<svg width="263" height="30" viewBox="0 0 263 30" fill="none" xmlns="http://www.w3.org/2000/svg">
<path d="M0.416719 9H2.55272C3.96872 9 4.88072 8.088 4.88072 6.612C4.88072 5.364 4.24472 4.8 3.63272 4.584C4.10072 4.416 4.61672 3.936 4.61672 2.856C4.61672 1.596 3.86072 0.852 2.61272 0.852H0.416719V9ZM1.40072 4.224V1.68H2.39672C3.22472 1.68 3.64472 2.148 3.64472 2.94C3.64472 3.792 3.29672 4.224 2.30072 4.224H1.40072ZM1.40072 5.04H2.28872C3.35672 5.04 3.87272 5.568 3.87272 6.612C3.87272 7.644 3.36872 8.184 2.45672 8.184H1.40072V5.04ZM5.36944 2.892L7.16944 9.12C6.94144 10.056 6.76144 10.452 6.14944 10.452C6.00544 10.452 5.82544 10.44 5.74144 10.428V11.292C5.86144 11.316 6.05344 11.328 6.19744 11.328C7.06144 11.328 7.57744 11.112 8.06944 9.3L9.85744 2.892H8.84944C8.29744 5.028 7.76944 7.068 7.64944 7.8H7.63744C7.56544 7.128 7.07344 5.328 6.44944 2.892H5.36944ZM15.7144 7.092C15.6664 7.428 15.5704 8.268 14.7304 8.268C13.9504 8.268 13.6504 7.392 13.6504 5.916C13.6504 4.536 13.9384 3.624 14.7784 3.624C15.5944 3.624 15.6664 4.5 15.6784 4.74H16.6864C16.6744 4.44 16.6024 2.784 14.7784 2.784C13.1944 2.784 12.6424 4.224 12.6424 5.916C12.6424 7.704 13.0744 9.108 14.7064 9.108C16.5304 9.108 16.6624 7.452 16.6864 7.092H15.7144ZM19.6662 2.784C18.3222 2.784 17.4822 3.768 17.4822 5.904C17.4822 8.076 18.1902 9.108 19.6182 9.108C21.0222 9.108 21.7662 8.04 21.7662 5.88C21.7662 3.828 21.0222 2.784 19.6662 2.784ZM19.6302 3.636C20.3982 3.636 20.7582 4.38 20.7582 5.904C20.7582 7.488 20.3982 8.268 19.6302 8.268C18.8622 8.268 18.4902 7.5 18.4902 5.904C18.4902 4.32 18.8862 3.636 19.6302 3.636ZM22.8799 9H23.8639V5.34C23.8639 4.14 24.1999 3.648 24.9679 3.648C25.6399 3.648 25.8559 4.128 25.8559 4.848V9H26.8519V4.644C26.8519 3.312 26.1799 2.784 25.2799 2.784C24.4639 2.784 24.0439 3.216 23.8519 3.66C23.8519 3.288 23.8279 3.036 23.8159 2.892H22.8679C22.8679 3.18 22.8799 3.528 22.8799 4.788V9ZM27.5148 3.72H28.3668V7.788C28.3668 8.784 28.7868 9.084 29.5548 9.084C29.7588 9.084 30.0828 9.06 30.2988 8.976V8.232C30.1908 8.256 30.0348 8.256 29.8908 8.256C29.4348 8.256 29.3388 8.016 29.3388 7.608V3.72H30.3828V2.892H29.3388V1.284H28.3668V2.892H27.5148V3.72ZM31.2002 9H32.1842V2.892H31.2002V9ZM32.1842 1.752V0.456H31.2002V1.752H32.1842ZM33.6025 9H34.5865V5.34C34.5865 4.14 34.9225 3.648 35.6905 3.648C36.3625 3.648 36.5785 4.128 36.5785 4.848V9H37.5745V4.644C37.5745 3.312 36.9025 2.784 36.0025 2.784C35.1865 2.784 34.7665 3.216 34.5745 3.66C34.5745 3.288 34.5505 3.036 34.5385 2.892H33.5905C33.5905 3.18 33.6025 3.528 33.6025 4.788V9ZM42.9054 2.892H41.9094V6.612C41.9094 7.86 41.4654 8.244 40.8174 8.244C40.1574 8.244 39.9534 7.8 39.9534 7.056V2.892H38.9694V7.284C38.9694 8.796 39.7494 9.108 40.4934 9.108C41.2014 9.108 41.6934 8.808 41.9214 8.22C41.9334 8.568 41.9454 8.82 41.9694 9H42.9174C42.9054 8.7 42.9054 8.1 42.9054 7.308V2.892ZM44.3135 9H45.2975V2.892H44.3135V9ZM45.2975 1.752V0.456H44.3135V1.752H45.2975ZM46.7158 9H47.6998V5.34C47.6998 4.14 48.0358 3.648 48.8038 3.648C49.4758 3.648 49.6918 4.128 49.6918 4.848V9H50.6878V4.644C50.6878 3.312 50.0158 2.784 49.1158 2.784C48.2998 2.784 47.8798 3.216 47.6878 3.66C47.6878 3.288 47.6638 3.036 47.6518 2.892H46.7038C46.7038 3.18 46.7158 3.528 46.7158 4.788V9ZM56.0067 4.668C56.0067 3.84 56.0067 3.216 56.0187 2.892H55.0827C55.0587 3.024 55.0347 3.3 55.0347 3.552C54.9267 3.192 54.5907 2.784 53.7627 2.784C52.5867 2.784 51.7827 3.84 51.7827 6.012C51.7827 7.92 52.3827 8.976 53.6307 8.976C54.3027 8.976 54.8067 8.688 55.0347 8.088V8.592C55.0347 9.792 54.8307 10.5 53.8587 10.5C53.0187 10.5 52.8507 9.936 52.8267 9.636H51.8307C51.8667 10.308 52.2147 11.328 53.8227 11.328C55.5987 11.328 56.0067 10.224 56.0067 8.592V4.668ZM52.8027 6C52.8027 4.452 53.2107 3.648 53.9787 3.648C54.8787 3.648 55.0467 4.464 55.0467 5.832C55.0467 7.236 54.8067 8.124 53.9067 8.124C53.1867 8.124 52.8027 7.44 52.8027 6ZM57.5585 10.344C57.9305 9.696 58.2905 8.532 58.3745 7.416H57.4265C57.3785 8.244 57.1385 9.36 56.7545 10.344H57.5585ZM61.0452 2.892L62.8452 9.12C62.6172 10.056 62.4372 10.452 61.8252 10.452C61.6812 10.452 61.5012 10.44 61.4172 10.428V11.292C61.5372 11.316 61.7292 11.328 61.8732 11.328C62.7372 11.328 63.2532 11.112 63.7452 9.3L65.5332 2.892H64.5252C63.9732 5.028 63.4452 7.068 63.3252 7.8H63.3132C63.2412 7.128 62.7492 5.328 62.1252 2.892H61.0452ZM68.217 2.784C66.873 2.784 66.033 3.768 66.033 5.904C66.033 8.076 66.741 9.108 68.169 9.108C69.573 9.108 70.317 8.04 70.317 5.88C70.317 3.828 69.573 2.784 68.217 2.784ZM68.181 3.636C68.949 3.636 69.309 4.38 69.309 5.904C69.309 7.488 68.949 8.268 68.181 8.268C67.413 8.268 67.041 7.5 67.041 5.904C67.041 4.32 67.437 3.636 68.181 3.636ZM75.3547 2.892H74.3587V6.612C74.3587 7.86 73.9147 8.244 73.2667 8.244C72.6067 8.244 72.4027 7.8 72.4027 7.056V2.892H71.4187V7.284C71.4187 8.796 72.1987 9.108 72.9427 9.108C73.6507 9.108 74.1427 8.808 74.3707 8.22C74.3827 8.568 74.3947 8.82 74.4187 9H75.3667C75.3547 8.7 75.3547 8.1 75.3547 7.308V2.892ZM82.6838 4.5C82.6838 3.372 82.0958 2.784 80.8838 2.784C79.4078 2.784 78.9998 3.696 78.9758 4.584H79.9118C79.9478 4.176 80.0078 3.576 80.8478 3.576C81.6278 3.576 81.7118 4.152 81.7118 4.596V5.388C81.5438 5.364 81.3758 5.364 81.0998 5.364C79.5158 5.364 78.7358 6.192 78.7358 7.332C78.7358 8.184 79.1678 9.108 80.3438 9.108C81.0998 9.108 81.5438 8.808 81.7718 8.328C81.7718 8.556 81.7958 8.868 81.8318 9H82.7318C82.7078 8.796 82.6838 8.244 82.6838 7.872V4.5ZM81.7358 6.456C81.7358 7.668 81.4718 8.28 80.6198 8.28C79.9838 8.28 79.7198 7.776 79.7198 7.26C79.7198 6.612 80.1278 6.12 81.1598 6.12C81.4238 6.12 81.5918 6.12 81.7358 6.144V6.456ZM88.0106 4.668C88.0106 3.84 88.0106 3.216 88.0226 2.892H87.0866C87.0626 3.024 87.0386 3.3 87.0386 3.552C86.9306 3.192 86.5946 2.784 85.7666 2.784C84.5906 2.784 83.7866 3.84 83.7866 6.012C83.7866 7.92 84.3866 8.976 85.6346 8.976C86.3066 8.976 86.8106 8.688 87.0386 8.088V8.592C87.0386 9.792 86.8346 10.5 85.8626 10.5C85.0226 10.5 84.8546 9.936 84.8306 9.636H83.8346C83.8706 10.308 84.2186 11.328 85.8266 11.328C87.6026 11.328 88.0106 10.224 88.0106 8.592V4.668ZM84.8066 6C84.8066 4.452 85.2146 3.648 85.9826 3.648C86.8826 3.648 87.0506 4.464 87.0506 5.832C87.0506 7.236 86.8106 8.124 85.9106 8.124C85.1906 8.124 84.8066 7.44 84.8066 6ZM89.4424 9H90.4264V5.628C90.4264 4.5 90.9664 3.912 92.0104 3.888V2.796C91.2304 2.808 90.6544 3.24 90.4024 3.96C90.4024 3.312 90.3784 3.036 90.3664 2.892H89.4304C89.4424 3.324 89.4424 3.996 89.4424 4.968V9ZM96.6339 6.144C96.6459 6.012 96.6579 5.784 96.6579 5.652C96.6579 4.116 96.2619 2.784 94.6299 2.784C93.1659 2.784 92.4939 4.008 92.4939 5.94C92.4939 7.464 92.7459 9.108 94.5819 9.108C96.4299 9.108 96.5859 7.404 96.6099 7.236H95.6499C95.6259 7.428 95.5059 8.28 94.5939 8.28C93.6579 8.28 93.4779 7.26 93.4779 6.144H96.6339ZM93.5019 5.388C93.5139 4.968 93.5619 3.624 94.6179 3.624C95.4819 3.624 95.6739 4.428 95.6739 5.388H93.5019ZM101.696 6.144C101.708 6.012 101.72 5.784 101.72 5.652C101.72 4.116 101.324 2.784 99.6924 2.784C98.2284 2.784 97.5564 4.008 97.5564 5.94C97.5564 7.464 97.8084 9.108 99.6444 9.108C101.492 9.108 101.648 7.404 101.672 7.236H100.712C100.688 7.428 100.568 8.28 99.6564 8.28C98.7204 8.28 98.5404 7.26 98.5404 6.144H101.696ZM98.5644 5.388C98.5764 4.968 98.6244 3.624 99.6804 3.624C100.544 3.624 100.736 4.428 100.736 5.388H98.5644ZM104.355 3.72H105.207V7.788C105.207 8.784 105.627 9.084 106.395 9.084C106.599 9.084 106.923 9.06 107.139 8.976V8.232C107.031 8.256 106.875 8.256 106.731 8.256C106.275 8.256 106.179 8.016 106.179 7.608V3.72H107.223V2.892H106.179V1.284H105.207V2.892H104.355V3.72ZM109.877 2.784C108.533 2.784 107.693 3.768 107.693 5.904C107.693 8.076 108.401 9.108 109.829 9.108C111.233 9.108 111.977 8.04 111.977 5.88C111.977 3.828 111.233 2.784 109.877 2.784ZM109.841 3.636C110.609 3.636 110.969 4.38 110.969 5.904C110.969 7.488 110.609 8.268 109.841 8.268C109.073 8.268 108.701 7.5 108.701 5.904C108.701 4.32 109.097 3.636 109.841 3.636ZM114.968 6.828C115.028 8.028 115.568 9.12 117.248 9.12C118.784 9.12 119.528 8.16 119.528 6.876C119.528 5.628 118.976 4.956 117.548 4.272C116.54 3.804 116.216 3.444 116.216 2.7C116.216 2.076 116.528 1.572 117.272 1.572C118.232 1.572 118.352 2.46 118.4 2.868H119.384C119.36 1.896 118.928 0.744 117.308 0.744C115.952 0.744 115.208 1.632 115.208 2.796C115.208 3.972 115.772 4.548 117.068 5.16C118.16 5.688 118.508 6.132 118.508 6.96C118.508 7.836 118.1 8.292 117.272 8.292C116.408 8.292 116.036 7.644 115.964 6.828H114.968ZM121.598 0.456H120.614V9H121.598V6.888C121.766 6.672 122.078 6.216 122.258 6L123.614 9H124.73L122.918 5.208C123.482 4.428 124.034 3.66 124.574 2.892H123.482C122.942 3.732 121.994 5.088 121.598 5.712V0.456ZM124.701 2.892L126.501 9.12C126.273 10.056 126.093 10.452 125.481 10.452C125.337 10.452 125.157 10.44 125.073 10.428V11.292C125.193 11.316 125.385 11.328 125.529 11.328C126.393 11.328 126.909 11.112 127.401 9.3L129.189 2.892H128.181C127.629 5.028 127.101 7.068 126.981 7.8H126.969C126.897 7.128 126.405 5.328 125.781 2.892H124.701ZM130.745 3.24C130.997 2.712 131.321 1.464 131.333 0.431999H130.385C130.385 1.356 130.205 2.364 129.965 3.24H130.745ZM131.455 7.224C131.479 8.328 132.115 9.108 133.411 9.108C134.671 9.108 135.379 8.448 135.379 7.32C135.379 6.276 134.851 5.832 133.651 5.376C132.835 5.064 132.619 4.836 132.619 4.368C132.619 3.912 132.871 3.576 133.411 3.576C134.215 3.576 134.275 4.284 134.287 4.56H135.247C135.235 3.744 134.851 2.784 133.435 2.784C132.151 2.784 131.647 3.6 131.647 4.428C131.647 5.28 132.007 5.748 133.303 6.24C134.095 6.54 134.383 6.828 134.383 7.416C134.383 7.944 134.083 8.316 133.459 8.316C132.787 8.316 132.463 7.836 132.427 7.224H131.455ZM137.964 3.72H138.816V7.788C138.816 8.784 139.236 9.084 140.004 9.084C140.208 9.084 140.532 9.06 140.748 8.976V8.232C140.64 8.256 140.484 8.256 140.34 8.256C139.884 8.256 139.788 8.016 139.788 7.608V3.72H140.832V2.892H139.788V1.284H138.816V2.892H137.964V3.72ZM141.649 0.456V9H142.645V5.316C142.645 4.296 142.921 3.648 143.713 3.648C144.433 3.648 144.637 4.14 144.637 4.86V9H145.621V4.656C145.621 3.36 145.009 2.784 144.085 2.784C143.317 2.784 142.861 3.132 142.645 3.6V0.456H141.649ZM150.868 6.144C150.88 6.012 150.892 5.784 150.892 5.652C150.892 4.116 150.496 2.784 148.864 2.784C147.4 2.784 146.728 4.008 146.728 5.94C146.728 7.464 146.98 9.108 148.816 9.108C150.664 9.108 150.82 7.404 150.844 7.236H149.884C149.86 7.428 149.74 8.28 148.828 8.28C147.892 8.28 147.712 7.26 147.712 6.144H150.868ZM147.736 5.388C147.748 4.968 147.796 3.624 148.852 3.624C149.716 3.624 149.908 4.428 149.908 5.388H147.736ZM154.354 9H158.111L158.243 8.124H155.351V0.852H154.354V9ZM159.099 9H160.083V2.892H159.099V9ZM160.083 1.752V0.456H159.099V1.752H160.083ZM161.501 9H162.485V5.172C162.485 4.272 162.797 3.66 163.493 3.66C164.069 3.66 164.309 4.044 164.309 4.764V9H165.281V5.1C165.281 4.296 165.533 3.648 166.277 3.648C166.913 3.648 167.093 4.14 167.093 4.74V9H168.065V4.572C168.065 3.168 167.357 2.784 166.577 2.784C165.773 2.784 165.317 3.204 165.089 3.684C164.909 3.072 164.477 2.784 163.829 2.784C163.157 2.784 162.713 3.12 162.473 3.636C162.473 3.372 162.461 3.06 162.437 2.892H161.489C161.501 3.18 161.501 3.612 161.501 4.728V9ZM169.481 9H170.465V2.892H169.481V9ZM170.465 1.752V0.456H169.481V1.752H170.465ZM171.257 3.72H172.109V7.788C172.109 8.784 172.529 9.084 173.297 9.084C173.501 9.084 173.825 9.06 174.041 8.976V8.232C173.933 8.256 173.777 8.256 173.633 8.256C173.177 8.256 173.081 8.016 173.081 7.608V3.72H174.125V2.892H173.081V1.284H172.109V2.892H171.257V3.72ZM175.757 3.24C176.009 2.712 176.333 1.464 176.345 0.431999H175.397C175.397 1.356 175.217 2.364 174.977 3.24H175.757ZM176.467 7.224C176.491 8.328 177.127 9.108 178.423 9.108C179.683 9.108 180.391 8.448 180.391 7.32C180.391 6.276 179.863 5.832 178.663 5.376C177.847 5.064 177.631 4.836 177.631 4.368C177.631 3.912 177.883 3.576 178.423 3.576C179.227 3.576 179.287 4.284 179.299 4.56H180.259C180.247 3.744 179.863 2.784 178.447 2.784C177.163 2.784 176.659 3.6 176.659 4.428C176.659 5.28 177.019 5.748 178.315 6.24C179.107 6.54 179.395 6.828 179.395 7.416C179.395 7.944 179.095 8.316 178.471 8.316C177.799 8.316 177.475 7.836 177.439 7.224H176.467ZM3.98072 22.5C3.98072 21.372 3.39272 20.784 2.18072 20.784C0.704719 20.784 0.296719 21.696 0.272719 22.584H1.20872C1.24472 22.176 1.30472 21.576 2.14472 21.576C2.92472 21.576 3.00872 22.152 3.00872 22.596V23.388C2.84072 23.364 2.67272 23.364 2.39672 23.364C0.812719 23.364 0.0327187 24.192 0.0327187 25.332C0.0327187 26.184 0.464719 27.108 1.64072 27.108C2.39672 27.108 2.84072 26.808 3.06872 26.328C3.06872 26.556 3.09272 26.868 3.12872 27H4.02872C4.00472 26.796 3.98072 26.244 3.98072 25.872V22.5ZM3.03272 24.456C3.03272 25.668 2.76872 26.28 1.91672 26.28C1.28072 26.28 1.01672 25.776 1.01672 25.26C1.01672 24.612 1.42472 24.12 2.45672 24.12C2.72072 24.12 2.88872 24.12 3.03272 24.144V24.456ZM5.3955 27H6.3795V23.34C6.3795 22.14 6.7155 21.648 7.4835 21.648C8.1555 21.648 8.3715 22.128 8.3715 22.848V27H9.3675V22.644C9.3675 21.312 8.6955 20.784 7.7955 20.784C6.9795 20.784 6.5595 21.216 6.3675 21.66C6.3675 21.288 6.3435 21.036 6.3315 20.892H5.3835C5.3835 21.18 5.3955 21.528 5.3955 22.788V27ZM13.6904 18.456V21.396C13.5584 21.108 13.2464 20.784 12.4784 20.784C11.1704 20.784 10.4744 21.948 10.4744 23.88C10.4744 26.016 11.0024 27.108 12.2744 27.108C13.1264 27.108 13.5104 26.724 13.7024 26.208C13.7024 26.46 13.7144 26.844 13.7384 27H14.6864C14.6744 26.64 14.6744 26.028 14.6744 25.404V18.456H13.6904ZM11.4824 23.892C11.4824 22.248 11.9384 21.648 12.6344 21.648C13.4864 21.648 13.7144 22.152 13.7144 23.856C13.7144 25.476 13.4744 26.244 12.5744 26.244C11.8544 26.244 11.4824 25.596 11.4824 23.892ZM76.3111 27.012V25.32H75.3151V27.012H76.3111Z" fill="#1A1A1A"/>
<path d="M0.416719 9H2.55272C3.96872 9 4.88072 8.088 4.88072 6.612C4.88072 5.364 4.24472 4.8 3.63272 4.584C4.10072 4.416 4.61672 3.936 4.61672 2.856C4.61672 1.596 3.86072 0.852 2.61272 0.852H0.416719V9ZM1.40072 4.224V1.68H2.39672C3.22472 1.68 3.64472 2.148 3.64472 2.94C3.64472 3.792 3.29672 4.224 2.30072 4.224H1.40072ZM1.40072 5.04H2.28872C3.35672 5.04 3.87272 5.568 3.87272 6.612C3.87272 7.644 3.36872 8.184 2.45672 8.184H1.40072V5.04ZM5.36944 2.892L7.16944 9.12C6.94144 10.056 6.76144 10.452 6.14944 10.452C6.00544 10.452 5.82544 10.44 5.74144 10.428V11.292C5.86144 11.316 6.05344 11.328 6.19744 11.328C7.06144 11.328 7.57744 11.112 8.06944 9.3L9.85744 2.892H8.84944C8.29744 5.028 7.76944 7.068 7.64944 7.8H7.63744C7.56544 7.128 7.07344 5.328 6.44944 2.892H5.36944ZM15.7144 7.092C15.6664 7.428 15.5704 8.268 14.7304 8.268C13.9504 8.268 13.6504 7.392 13.6504 5.916C13.6504 4.536 13.9384 3.624 14.7784 3.624C15.5944 3.624 15.6664 4.5 15.6784 4.74H16.6864C16.6744 4.44 16.6024 2.784 14.7784 2.784C13.1944 2.784 12.6424 4.224 12.6424 5.916C12.6424 7.704 13.0744 9.108 14.7064 9.108C16.5304 9.108 16.6624 7.452 16.6864 7.092H15.7144ZM19.6662 2.784C18.3222 2.784 17.4822 3.768 17.4822 5.904C17.4822 8.076 18.1902 9.108 19.6182 9.108C21.0222 9.108 21.7662 8.04 21.7662 5.88C21.7662 3.828 21.0222 2.784 19.6662 2.784ZM19.6302 3.636C20.3982 3.636 20.7582 4.38 20.7582 5.904C20.7582 7.488 20.3982 8.268 19.6302 8.268C18.8622 8.268 18.4902 7.5 18.4902 5.904C18.4902 4.32 18.8862 3.636 19.6302 3.636ZM22.8799 9H23.8639V5.34C23.8639 4.14 24.1999 3.648 24.9679 3.648C25.6399 3.648 25.8559 4.128 25.8559 4.848V9H26.8519V4.644C26.8519 3.312 26.1799 2.784 25.2799 2.784C24.4639 2.784 24.0439 3.216 23.8519 3.66C23.8519 3.288 23.8279 3.036 23.8159 2.892H22.8679C22.8679 3.18 22.8799 3.528 22.8799 4.788V9ZM27.5148 3.72H28.3668V7.788C28.3668 8.784 28.7868 9.084 29.5548 9.084C29.7588 9.084 30.0828 9.06 30.2988 8.976V8.232C30.1908 8.256 30.0348 8.256 29.8908 8.256C29.4348 8.256 29.3388 8.016 29.3388 7.608V3.72H30.3828V2.892H29.3388V1.284H28.3668V2.892H27.5148V3.72ZM31.2002 9H32.1842V2.892H31.2002V9ZM32.1842 1.752V0.456H31.2002V1.752H32.1842ZM33.6025 9H34.5865V5.34C34.5865 4.14 34.9225 3.648 35.6905 3.648C36.3625 3.648 36.5785 4.128 36.5785 4.848V9H37.5745V4.644C37.5745 3.312 36.9025 2.784 36.0025 2.784C35.1865 2.784 34.7665 3.216 34.5745 3.66C34.5745 3.288 34.5505 3.036 34.5385 2.892H33.5905C33.5905 3.18 33.6025 3.528 33.6025 4.788V9ZM42.9054 2.892H41.9094V6.612C41.9094 7.86 41.4654 8.244 40.8174 8.244C40.1574 8.244 39.9534 7.8 39.9534 7.056V2.892H38.9694V7.284C38.9694 8.796 39.7494 9.108 40.4934 9.108C41.2014 9.108 41.6934 8.808 41.9214 8.22C41.9334 8.568 41.9454 8.82 41.9694 9H42.9174C42.9054 8.7 42.9054 8.1 42.9054 7.308V2.892ZM44.3135 9H45.2975V2.892H44.3135V9ZM45.2975 1.752V0.456H44.3135V1.752H45.2975ZM46.7158 9H47.6998V5.34C47.6998 4.14 48.0358 3.648 48.8038 3.648C49.4758 3.648 49.6918 4.128 49.6918 4.848V9H50.6878V4.644C50.6878 3.312 50.0158 2.784 49.1158 2.784C48.2998 2.784 47.8798 3.216 47.6878 3.66C47.6878 3.288 47.6638 3.036 47.6518 2.892H46.7038C46.7038 3.18 46.7158 3.528 46.7158 4.788V9ZM56.0067 4.668C56.0067 3.84 56.0067 3.216 56.0187 2.892H55.0827C55.0587 3.024 55.0347 3.3 55.0347 3.552C54.9267 3.192 54.5907 2.784 53.7627 2.784C52.5867 2.784 51.7827 3.84 51.7827 6.012C51.7827 7.92 52.3827 8.976 53.6307 8.976C54.3027 8.976 54.8067 8.688 55.0347 8.088V8.592C55.0347 9.792 54.8307 10.5 53.8587 10.5C53.0187 10.5 52.8507 9.936 52.8267 9.636H51.8307C51.8667 10.308 52.2147 11.328 53.8227 11.328C55.5987 11.328 56.0067 10.224 56.0067 8.592V4.668ZM52.8027 6C52.8027 4.452 53.2107 3.648 53.9787 3.648C54.8787 3.648 55.0467 4.464 55.0467 5.832C55.0467 7.236 54.8067 8.124 53.9067 8.124C53.1867 8.124 52.8027 7.44 52.8027 6ZM57.5585 10.344C57.9305 9.696 58.2905 8.532 58.3745 7.416H57.4265C57.3785 8.244 57.1385 9.36 56.7545 10.344H57.5585ZM61.0452 2.892L62.8452 9.12C62.6172 10.056 62.4372 10.452 61.8252 10.452C61.6812 10.452 61.5012 10.44 61.4172 10.428V11.292C61.5372 11.316 61.7292 11.328 61.8732 11.328C62.7372 11.328 63.2532 11.112 63.7452 9.3L65.5332 2.892H64.5252C63.9732 5.028 63.4452 7.068 63.3252 7.8H63.3132C63.2412 7.128 62.7492 5.328 62.1252 2.892H61.0452ZM68.217 2.784C66.873 2.784 66.033 3.768 66.033 5.904C66.033 8.076 66.741 9.108 68.169 9.108C69.573 9.108 70.317 8.04 70.317 5.88C70.317 3.828 69.573 2.784 68.217 2.784ZM68.181 3.636C68.949 3.636 69.309 4.38 69.309 5.904C69.309 7.488 68.949 8.268 68.181 8.268C67.413 8.268 67.041 7.5 67.041 5.904C67.041 4.32 67.437 3.636 68.181 3.636ZM75.3547 2.892H74.3587V6.612C74.3587 7.86 73.9147 8.244 73.2667 8.244C72.6067 8.244 72.4027 7.8 72.4027 7.056V2.892H71.4187V7.284C71.4187 8.796 72.1987 9.108 72.9427 9.108C73.6507 9.108 74.1427 8.808 74.3707 8.22C74.3827 8.568 74.3947 8.82 74.4187 9H75.3667C75.3547 8.7 75.3547 8.1 75.3547 7.308V2.892ZM82.6838 4.5C82.6838 3.372 82.0958 2.784 80.8838 2.784C79.4078 2.784 78.9998 3.696 78.9758 4.584H79.9118C79.9478 4.176 80.0078 3.576 80.8478 3.576C81.6278 3.576 81.7118 4.152 81.7118 4.596V5.388C81.5438 5.364 81.3758 5.364 81.0998 5.364C79.5158 5.364 78.7358 6.192 78.7358 7.332C78.7358 8.184 79.1678 9.108 80.3438 9.108C81.0998 9.108 81.5438 8.808 81.7718 8.328C81.7718 8.556 81.7958 8.868 81.8318 9H82.7318C82.7078 8.796 82.6838 8.244 82.6838 7.872V4.5ZM81.7358 6.456C81.7358 7.668 81.4718 8.28 80.6198 8.28C79.9838 8.28 79.7198 7.776 79.7198 7.26C79.7198 6.612 80.1278 6.12 81.1598 6.12C81.4238 6.12 81.5918 6.12 81.7358 6.144V6.456ZM88.0106 4.668C88.0106 3.84 88.0106 3.216 88.0226 2.892H87.0866C87.0626 3.024 87.0386 3.3 87.0386 3.552C86.9306 3.192 86.5946 2.784 85.7666 2.784C84.5906 2.784 83.7866 3.84 83.7866 6.012C83.7866 7.92 84.3866 8.976 85.6346 8.976C86.3066 8.976 86.8106 8.688 87.0386 8.088V8.592C87.0386 9.792 86.8346 10.5 85.8626 10.5C85.0226 10.5 84.8546 9.936 84.8306 9.636H83.8346C83.8706 10.308 84.2186 11.328 85.8266 11.328C87.6026 11.328 88.0106 10.224 88.0106 8.592V4.668ZM84.8066 6C84.8066 4.452 85.2146 3.648 85.9826 3.648C86.8826 3.648 87.0506 4.464 87.0506 5.832C87.0506 7.236 86.8106 8.124 85.9106 8.124C85.1906 8.124 84.8066 7.44 84.8066 6ZM89.4424 9H90.4264V5.628C90.4264 4.5 90.9664 3.912 92.0104 3.888V2.796C91.2304 2.808 90.6544 3.24 90.4024 3.96C90.4024 3.312 90.3784 3.036 90.3664 2.892H89.4304C89.4424 3.324 89.4424 3.996 89.4424 4.968V9ZM96.6339 6.144C96.6459 6.012 96.6579 5.784 96.6579 5.652C96.6579 4.116 96.2619 2.784 94.6299 2.784C93.1659 2.784 92.4939 4.008 92.4939 5.94C92.4939 7.464 92.7459 9.108 94.5819 9.108C96.4299 9.108 96.5859 7.404 96.6099 7.236H95.6499C95.6259 7.428 95.5059 8.28 94.5939 8.28C93.6579 8.28 93.4779 7.26 93.4779 6.144H96.6339ZM93.5019 5.388C93.5139 4.968 93.5619 3.624 94.6179 3.624C95.4819 3.624 95.6739 4.428 95.6739 5.388H93.5019ZM101.696 6.144C101.708 6.012 101.72 5.784 101.72 5.652C101.72 4.116 101.324 2.784 99.6924 2.784C98.2284 2.784 97.5564 4.008 97.5564 5.94C97.5564 7.464 97.8084 9.108 99.6444 9.108C101.492 9.108 101.648 7.404 101.672 7.236H100.712C100.688 7.428 100.568 8.28 99.6564 8.28C98.7204 8.28 98.5404 7.26 98.5404 6.144H101.696ZM98.5644 5.388C98.5764 4.968 98.6244 3.624 99.6804 3.624C100.544 3.624 100.736 4.428 100.736 5.388H98.5644ZM104.355 3.72H105.207V7.788C105.207 8.784 105.627 9.084 106.395 9.084C106.599 9.084 106.923 9.06 107.139 8.976V8.232C107.031 8.256 106.875 8.256 106.731 8.256C106.275 8.256 106.179 8.016 106.179 7.608V3.72H107.223V2.892H106.179V1.284H105.207V2.892H104.355V3.72ZM109.877 2.784C108.533 2.784 107.693 3.768 107.693 5.904C107.693 8.076 108.401 9.108 109.829 9.108C111.233 9.108 111.977 8.04 111.977 5.88C111.977 3.828 111.233 2.784 109.877 2.784ZM109.841 3.636C110.609 3.636 110.969 4.38 110.969 5.904C110.969 7.488 110.609 8.268 109.841 8.268C109.073 8.268 108.701 7.5 108.701 5.904C108.701 4.32 109.097 3.636 109.841 3.636ZM114.968 6.828C115.028 8.028 115.568 9.12 117.248 9.12C118.784 9.12 119.528 8.16 119.528 6.876C119.528 5.628 118.976 4.956 117.548 4.272C116.54 3.804 116.216 3.444 116.216 2.7C116.216 2.076 116.528 1.572 117.272 1.572C118.232 1.572 118.352 2.46 118.4 2.868H119.384C119.36 1.896 118.928 0.744 117.308 0.744C115.952 0.744 115.208 1.632 115.208 2.796C115.208 3.972 115.772 4.548 117.068 5.16C118.16 5.688 118.508 6.132 118.508 6.96C118.508 7.836 118.1 8.292 117.272 8.292C116.408 8.292 116.036 7.644 115.964 6.828H114.968ZM121.598 0.456H120.614V9H121.598V6.888C121.766 6.672 122.078 6.216 122.258 6L123.614 9H124.73L122.918 5.208C123.482 4.428 124.034 3.66 124.574 2.892H123.482C122.942 3.732 121.994 5.088 121.598 5.712V0.456ZM124.701 2.892L126.501 9.12C126.273 10.056 126.093 10.452 125.481 10.452C125.337 10.452 125.157 10.44 125.073 10.428V11.292C125.193 11.316 125.385 11.328 125.529 11.328C126.393 11.328 126.909 11.112 127.401 9.3L129.189 2.892H128.181C127.629 5.028 127.101 7.068 126.981 7.8H126.969C126.897 7.128 126.405 5.328 125.781 2.892H124.701ZM130.745 3.24C130.997 2.712 131.321 1.464 131.333 0.431999H130.385C130.385 1.356 130.205 2.364 129.965 3.24H130.745ZM131.455 7.224C131.479 8.328 132.115 9.108 133.411 9.108C134.671 9.108 135.379 8.448 135.379 7.32C135.379 6.276 134.851 5.832 133.651 5.376C132.835 5.064 132.619 4.836 132.619 4.368C132.619 3.912 132.871 3.576 133.411 3.576C134.215 3.576 134.275 4.284 134.287 4.56H135.247C135.235 3.744 134.851 2.784 133.435 2.784C132.151 2.784 131.647 3.6 131.647 4.428C131.647 5.28 132.007 5.748 133.303 6.24C134.095 6.54 134.383 6.828 134.383 7.416C134.383 7.944 134.083 8.316 133.459 8.316C132.787 8.316 132.463 7.836 132.427 7.224H131.455ZM137.964 3.72H138.816V7.788C138.816 8.784 139.236 9.084 140.004 9.084C140.208 9.084 140.532 9.06 140.748 8.976V8.232C140.64 8.256 140.484 8.256 140.34 8.256C139.884 8.256 139.788 8.016 139.788 7.608V3.72H140.832V2.892H139.788V1.284H138.816V2.892H137.964V3.72ZM141.649 0.456V9H142.645V5.316C142.645 4.296 142.921 3.648 143.713 3.648C144.433 3.648 144.637 4.14 144.637 4.86V9H145.621V4.656C145.621 3.36 145.009 2.784 144.085 2.784C143.317 2.784 142.861 3.132 142.645 3.6V0.456H141.649ZM150.868 6.144C150.88 6.012 150.892 5.784 150.892 5.652C150.892 4.116 150.496 2.784 148.864 2.784C147.4 2.784 146.728 4.008 146.728 5.94C146.728 7.464 146.98 9.108 148.816 9.108C150.664 9.108 150.82 7.404 150.844 7.236H149.884C149.86 7.428 149.74 8.28 148.828 8.28C147.892 8.28 147.712 7.26 147.712 6.144H150.868ZM147.736 5.388C147.748 4.968 147.796 3.624 148.852 3.624C149.716 3.624 149.908 4.428 149.908 5.388H147.736ZM154.354 9H158.111L158.243 8.124H155.351V0.852H154.354V9ZM159.099 9H160.083V2.892H159.099V9ZM160.083 1.752V0.456H159.099V1.752H160.083ZM161.501 9H162.485V5.172C162.485 4.272 162.797 3.66 163.493 3.66C164.069 3.66 164.309 4.044 164.309 4.764V9H165.281V5.1C165.281 4.296 165.533 3.648 166.277 3.648C166.913 3.648 167.093 4.14 167.093 4.74V9H168.065V4.572C168.065 3.168 167.357 2.784 166.577 2.784C165.773 2.784 165.317 3.204 165.089 3.684C164.909 3.072 164.477 2.784 163.829 2.784C163.157 2.784 162.713 3.12 162.473 3.636C162.473 3.372 162.461 3.06 162.437 2.892H161.489C161.501 3.18 161.501 3.612 161.501 4.728V9ZM169.481 9H170.465V2.892H169.481V9ZM170.465 1.752V0.456H169.481V1.752H170.465ZM171.257 3.72H172.109V7.788C172.109 8.784 172.529 9.084 173.297 9.084C173.501 9.084 173.825 9.06 174.041 8.976V8.232C173.933 8.256 173.777 8.256 173.633 8.256C173.177 8.256 173.081 8.016 173.081 7.608V3.72H174.125V2.892H173.081V1.284H172.109V2.892H171.257V3.72ZM175.757 3.24C176.009 2.712 176.333 1.464 176.345 0.431999H175.397C175.397 1.356 175.217 2.364 174.977 3.24H175.757ZM176.467 7.224C176.491 8.328 177.127 9.108 178.423 9.108C179.683 9.108 180.391 8.448 180.391 7.32C180.391 6.276 179.863 5.832 178.663 5.376C177.847 5.064 177.631 4.836 177.631 4.368C177.631 3.912 177.883 3.576 178.423 3.576C179.227 3.576 179.287 4.284 179.299 4.56H180.259C180.247 3.744 179.863 2.784 178.447 2.784C177.163 2.784 176.659 3.6 176.659 4.428C176.659 5.28 177.019 5.748 178.315 6.24C179.107 6.54 179.395 6.828 179.395 7.416C179.395 7.944 179.095 8.316 178.471 8.316C177.799 8.316 177.475 7.836 177.439 7.224H176.467ZM3.98072 22.5C3.98072 21.372 3.39272 20.784 2.18072 20.784C0.704719 20.784 0.296719 21.696 0.272719 22.584H1.20872C1.24472 22.176 1.30472 21.576 2.14472 21.576C2.92472 21.576 3.00872 22.152 3.00872 22.596V23.388C2.84072 23.364 2.67272 23.364 2.39672 23.364C0.812719 23.364 0.0327187 24.192 0.0327187 25.332C0.0327187 26.184 0.464719 27.108 1.64072 27.108C2.39672 27.108 2.84072 26.808 3.06872 26.328C3.06872 26.556 3.09272 26.868 3.12872 27H4.02872C4.00472 26.796 3.98072 26.244 3.98072 25.872V22.5ZM3.03272 24.456C3.03272 25.668 2.76872 26.28 1.91672 26.28C1.28072 26.28 1.01672 25.776 1.01672 25.26C1.01672 24.612 1.42472 24.12 2.45672 24.12C2.72072 24.12 2.88872 24.12 3.03272 24.144V24.456ZM5.3955 27H6.3795V23.34C6.3795 22.14 6.7155 21.648 7.4835 21.648C8.1555 21.648 8.3715 22.128 8.3715 22.848V27H9.3675V22.644C9.3675 21.312 8.6955 20.784 7.7955 20.784C6.9795 20.784 6.5595 21.216 6.3675 21.66C6.3675 21.288 6.3435 21.036 6.3315 20.892H5.3835C5.3835 21.18 5.3955 21.528 5.3955 22.788V27ZM13.6904 18.456V21.396C13.5584 21.108 13.2464 20.784 12.4784 20.784C11.1704 20.784 10.4744 21.948 10.4744 23.88C10.4744 26.016 11.0024 27.108 12.2744 27.108C13.1264 27.108 13.5104 26.724 13.7024 26.208C13.7024 26.46 13.7144 26.844 13.7384 27H14.6864C14.6744 26.64 14.6744 26.028 14.6744 25.404V18.456H13.6904ZM11.4824 23.892C11.4824 22.248 11.9384 21.648 12.6344 21.648C13.4864 21.648 13.7144 22.152 13.7144 23.856C13.7144 25.476 13.4744 26.244 12.5744 26.244C11.8544 26.244 11.4824 25.596 11.4824 23.892ZM76.3111 27.012V25.32H75.3151V27.012H76.3111Z" fill="white" fill-opacity="0.48"/>
<path d="M0.416719 9H2.55272C3.96872 9 4.88072 8.088 4.88072 6.612C4.88072 5.364 4.24472 4.8 3.63272 4.584C4.10072 4.416 4.61672 3.936 4.61672 2.856C4.61672 1.596 3.86072 0.852 2.61272 0.852H0.416719V9ZM1.40072 4.224V1.68H2.39672C3.22472 1.68 3.64472 2.148 3.64472 2.94C3.64472 3.792 3.29672 4.224 2.30072 4.224H1.40072ZM1.40072 5.04H2.28872C3.35672 5.04 3.87272 5.568 3.87272 6.612C3.87272 7.644 3.36872 8.184 2.45672 8.184H1.40072V5.04ZM5.36944 2.892L7.16944 9.12C6.94144 10.056 6.76144 10.452 6.14944 10.452C6.00544 10.452 5.82544 10.44 5.74144 10.428V11.292C5.86144 11.316 6.05344 11.328 6.19744 11.328C7.06144 11.328 7.57744 11.112 8.06944 9.3L9.85744 2.892H8.84944C8.29744 5.028 7.76944 7.068 7.64944 7.8H7.63744C7.56544 7.128 7.07344 5.328 6.44944 2.892H5.36944ZM15.7144 7.092C15.6664 7.428 15.5704 8.268 14.7304 8.268C13.9504 8.268 13.6504 7.392 13.6504 5.916C13.6504 4.536 13.9384 3.624 14.7784 3.624C15.5944 3.624 15.6664 4.5 15.6784 4.74H16.6864C16.6744 4.44 16.6024 2.784 14.7784 2.784C13.1944 2.784 12.6424 4.224 12.6424 5.916C12.6424 7.704 13.0744 9.108 14.7064 9.108C16.5304 9.108 16.6624 7.452 16.6864 7.092H15.7144ZM19.6662 2.784C18.3222 2.784 17.4822 3.768 17.4822 5.904C17.4822 8.076 18.1902 9.108 19.6182 9.108C21.0222 9.108 21.7662 8.04 21.7662 5.88C21.7662 3.828 21.0222 2.784 19.6662 2.784ZM19.6302 3.636C20.3982 3.636 20.7582 4.38 20.7582 5.904C20.7582 7.488 20.3982 8.268 19.6302 8.268C18.8622 8.268 18.4902 7.5 18.4902 5.904C18.4902 4.32 18.8862 3.636 19.6302 3.636ZM22.8799 9H23.8639V5.34C23.8639 4.14 24.1999 3.648 24.9679 3.648C25.6399 3.648 25.8559 4.128 25.8559 4.848V9H26.8519V4.644C26.8519 3.312 26.1799 2.784 25.2799 2.784C24.4639 2.784 24.0439 3.216 23.8519 3.66C23.8519 3.288 23.8279 3.036 23.8159 2.892H22.8679C22.8679 3.18 22.8799 3.528 22.8799 4.788V9ZM27.5148 3.72H28.3668V7.788C28.3668 8.784 28.7868 9.084 29.5548 9.084C29.7588 9.084 30.0828 9.06 30.2988 8.976V8.232C30.1908 8.256 30.0348 8.256 29.8908 8.256C29.4348 8.256 29.3388 8.016 29.3388 7.608V3.72H30.3828V2.892H29.3388V1.284H28.3668V2.892H27.5148V3.72ZM31.2002 9H32.1842V2.892H31.2002V9ZM32.1842 1.752V0.456H31.2002V1.752H32.1842ZM33.6025 9H34.5865V5.34C34.5865 4.14 34.9225 3.648 35.6905 3.648C36.3625 3.648 36.5785 4.128 36.5785 4.848V9H37.5745V4.644C37.5745 3.312 36.9025 2.784 36.0025 2.784C35.1865 2.784 34.7665 3.216 34.5745 3.66C34.5745 3.288 34.5505 3.036 34.5385 2.892H33.5905C33.5905 3.18 33.6025 3.528 33.6025 4.788V9ZM42.9054 2.892H41.9094V6.612C41.9094 7.86 41.4654 8.244 40.8174 8.244C40.1574 8.244 39.9534 7.8 39.9534 7.056V2.892H38.9694V7.284C38.9694 8.796 39.7494 9.108 40.4934 9.108C41.2014 9.108 41.6934 8.808 41.9214 8.22C41.9334 8.568 41.9454 8.82 41.9694 9H42.9174C42.9054 8.7 42.9054 8.1 42.9054 7.308V2.892ZM44.3135 9H45.2975V2.892H44.3135V9ZM45.2975 1.752V0.456H44.3135V1.752H45.2975ZM46.7158 9H47.6998V5.34C47.6998 4.14 48.0358 3.648 48.8038 3.648C49.4758 3.648 49.6918 4.128 49.6918 4.848V9H50.6878V4.644C50.6878 3.312 50.0158 2.784 49.1158 2.784C48.2998 2.784 47.8798 3.216 47.6878 3.66C47.6878 3.288 47.6638 3.036 47.6518 2.892H46.7038C46.7038 3.18 46.7158 3.528 46.7158 4.788V9ZM56.0067 4.668C56.0067 3.84 56.0067 3.216 56.0187 2.892H55.0827C55.0587 3.024 55.0347 3.3 55.0347 3.552C54.9267 3.192 54.5907 2.784 53.7627 2.784C52.5867 2.784 51.7827 3.84 51.7827 6.012C51.7827 7.92 52.3827 8.976 53.6307 8.976C54.3027 8.976 54.8067 8.688 55.0347 8.088V8.592C55.0347 9.792 54.8307 10.5 53.8587 10.5C53.0187 10.5 52.8507 9.936 52.8267 9.636H51.8307C51.8667 10.308 52.2147 11.328 53.8227 11.328C55.5987 11.328 56.0067 10.224 56.0067 8.592V4.668ZM52.8027 6C52.8027 4.452 53.2107 3.648 53.9787 3.648C54.8787 3.648 55.0467 4.464 55.0467 5.832C55.0467 7.236 54.8067 8.124 53.9067 8.124C53.1867 8.124 52.8027 7.44 52.8027 6ZM57.5585 10.344C57.9305 9.696 58.2905 8.532 58.3745 7.416H57.4265C57.3785 8.244 57.1385 9.36 56.7545 10.344H57.5585ZM61.0452 2.892L62.8452 9.12C62.6172 10.056 62.4372 10.452 61.8252 10.452C61.6812 10.452 61.5012 10.44 61.4172 10.428V11.292C61.5372 11.316 61.7292 11.328 61.8732 11.328C62.7372 11.328 63.2532 11.112 63.7452 9.3L65.5332 2.892H64.5252C63.9732 5.028 63.4452 7.068 63.3252 7.8H63.3132C63.2412 7.128 62.7492 5.328 62.1252 2.892H61.0452ZM68.217 2.784C66.873 2.784 66.033 3.768 66.033 5.904C66.033 8.076 66.741 9.108 68.169 9.108C69.573 9.108 70.317 8.04 70.317 5.88C70.317 3.828 69.573 2.784 68.217 2.784ZM68.181 3.636C68.949 3.636 69.309 4.38 69.309 5.904C69.309 7.488 68.949 8.268 68.181 8.268C67.413 8.268 67.041 7.5 67.041 5.904C67.041 4.32 67.437 3.636 68.181 3.636ZM75.3547 2.892H74.3587V6.612C74.3587 7.86 73.9147 8.244 73.2667 8.244C72.6067 8.244 72.4027 7.8 72.4027 7.056V2.892H71.4187V7.284C71.4187 8.796 72.1987 9.108 72.9427 9.108C73.6507 9.108 74.1427 8.808 74.3707 8.22C74.3827 8.568 74.3947 8.82 74.4187 9H75.3667C75.3547 8.7 75.3547 8.1 75.3547 7.308V2.892ZM82.6838 4.5C82.6838 3.372 82.0958 2.784 80.8838 2.784C79.4078 2.784 78.9998 3.696 78.9758 4.584H79.9118C79.9478 4.176 80.0078 3.576 80.8478 3.576C81.6278 3.576 81.7118 4.152 81.7118 4.596V5.388C81.5438 5.364 81.3758 5.364 81.0998 5.364C79.5158 5.364 78.7358 6.192 78.7358 7.332C78.7358 8.184 79.1678 9.108 80.3438 9.108C81.0998 9.108 81.5438 8.808 81.7718 8.328C81.7718 8.556 81.7958 8.868 81.8318 9H82.7318C82.7078 8.796 82.6838 8.244 82.6838 7.872V4.5ZM81.7358 6.456C81.7358 7.668 81.4718 8.28 80.6198 8.28C79.9838 8.28 79.7198 7.776 79.7198 7.26C79.7198 6.612 80.1278 6.12 81.1598 6.12C81.4238 6.12 81.5918 6.12 81.7358 6.144V6.456ZM88.0106 4.668C88.0106 3.84 88.0106 3.216 88.0226 2.892H87.0866C87.0626 3.024 87.0386 3.3 87.0386 3.552C86.9306 3.192 86.5946 2.784 85.7666 2.784C84.5906 2.784 83.7866 3.84 83.7866 6.012C83.7866 7.92 84.3866 8.976 85.6346 8.976C86.3066 8.976 86.8106 8.688 87.0386 8.088V8.592C87.0386 9.792 86.8346 10.5 85.8626 10.5C85.0226 10.5 84.8546 9.936 84.8306 9.636H83.8346C83.8706 10.308 84.2186 11.328 85.8266 11.328C87.6026 11.328 88.0106 10.224 88.0106 8.592V4.668ZM84.8066 6C84.8066 4.452 85.2146 3.648 85.9826 3.648C86.8826 3.648 87.0506 4.464 87.0506 5.832C87.0506 7.236 86.8106 8.124 85.9106 8.124C85.1906 8.124 84.8066 7.44 84.8066 6ZM89.4424 9H90.4264V5.628C90.4264 4.5 90.9664 3.912 92.0104 3.888V2.796C91.2304 2.808 90.6544 3.24 90.4024 3.96C90.4024 3.312 90.3784 3.036 90.3664 2.892H89.4304C89.4424 3.324 89.4424 3.996 89.4424 4.968V9ZM96.6339 6.144C96.6459 6.012 96.6579 5.784 96.6579 5.652C96.6579 4.116 96.2619 2.784 94.6299 2.784C93.1659 2.784 92.4939 4.008 92.4939 5.94C92.4939 7.464 92.7459 9.108 94.5819 9.108C96.4299 9.108 96.5859 7.404 96.6099 7.236H95.6499C95.6259 7.428 95.5059 8.28 94.5939 8.28C93.6579 8.28 93.4779 7.26 93.4779 6.144H96.6339ZM93.5019 5.388C93.5139 4.968 93.5619 3.624 94.6179 3.624C95.4819 3.624 95.6739 4.428 95.6739 5.388H93.5019ZM101.696 6.144C101.708 6.012 101.72 5.784 101.72 5.652C101.72 4.116 101.324 2.784 99.6924 2.784C98.2284 2.784 97.5564 4.008 97.5564 5.94C97.5564 7.464 97.8084 9.108 99.6444 9.108C101.492 9.108 101.648 7.404 101.672 7.236H100.712C100.688 7.428 100.568 8.28 99.6564 8.28C98.7204 8.28 98.5404 7.26 98.5404 6.144H101.696ZM98.5644 5.388C98.5764 4.968 98.6244 3.624 99.6804 3.624C100.544 3.624 100.736 4.428 100.736 5.388H98.5644ZM104.355 3.72H105.207V7.788C105.207 8.784 105.627 9.084 106.395 9.084C106.599 9.084 106.923 9.06 107.139 8.976V8.232C107.031 8.256 106.875 8.256 106.731 8.256C106.275 8.256 106.179 8.016 106.179 7.608V3.72H107.223V2.892H106.179V1.284H105.207V2.892H104.355V3.72ZM109.877 2.784C108.533 2.784 107.693 3.768 107.693 5.904C107.693 8.076 108.401 9.108 109.829 9.108C111.233 9.108 111.977 8.04 111.977 5.88C111.977 3.828 111.233 2.784 109.877 2.784ZM109.841 3.636C110.609 3.636 110.969 4.38 110.969 5.904C110.969 7.488 110.609 8.268 109.841 8.268C109.073 8.268 108.701 7.5 108.701 5.904C108.701 4.32 109.097 3.636 109.841 3.636ZM114.968 6.828C115.028 8.028 115.568 9.12 117.248 9.12C118.784 9.12 119.528 8.16 119.528 6.876C119.528 5.628 118.976 4.956 117.548 4.272C116.54 3.804 116.216 3.444 116.216 2.7C116.216 2.076 116.528 1.572 117.272 1.572C118.232 1.572 118.352 2.46 118.4 2.868H119.384C119.36 1.896 118.928 0.744 117.308 0.744C115.952 0.744 115.208 1.632 115.208 2.796C115.208 3.972 115.772 4.548 117.068 5.16C118.16 5.688 118.508 6.132 118.508 6.96C118.508 7.836 118.1 8.292 117.272 8.292C116.408 8.292 116.036 7.644 115.964 6.828H114.968ZM121.598 0.456H120.614V9H121.598V6.888C121.766 6.672 122.078 6.216 122.258 6L123.614 9H124.73L122.918 5.208C123.482 4.428 124.034 3.66 124.574 2.892H123.482C122.942 3.732 121.994 5.088 121.598 5.712V0.456ZM124.701 2.892L126.501 9.12C126.273 10.056 126.093 10.452 125.481 10.452C125.337 10.452 125.157 10.44 125.073 10.428V11.292C125.193 11.316 125.385 11.328 125.529 11.328C126.393 11.328 126.909 11.112 127.401 9.3L129.189 2.892H128.181C127.629 5.028 127.101 7.068 126.981 7.8H126.969C126.897 7.128 126.405 5.328 125.781 2.892H124.701ZM130.745 3.24C130.997 2.712 131.321 1.464 131.333 0.431999H130.385C130.385 1.356 130.205 2.364 129.965 3.24H130.745ZM131.455 7.224C131.479 8.328 132.115 9.108 133.411 9.108C134.671 9.108 135.379 8.448 135.379 7.32C135.379 6.276 134.851 5.832 133.651 5.376C132.835 5.064 132.619 4.836 132.619 4.368C132.619 3.912 132.871 3.576 133.411 3.576C134.215 3.576 134.275 4.284 134.287 4.56H135.247C135.235 3.744 134.851 2.784 133.435 2.784C132.151 2.784 131.647 3.6 131.647 4.428C131.647 5.28 132.007 5.748 133.303 6.24C134.095 6.54 134.383 6.828 134.383 7.416C134.383 7.944 134.083 8.316 133.459 8.316C132.787 8.316 132.463 7.836 132.427 7.224H131.455ZM137.964 3.72H138.816V7.788C138.816 8.784 139.236 9.084 140.004 9.084C140.208 9.084 140.532 9.06 140.748 8.976V8.232C140.64 8.256 140.484 8.256 140.34 8.256C139.884 8.256 139.788 8.016 139.788 7.608V3.72H140.832V2.892H139.788V1.284H138.816V2.892H137.964V3.72ZM141.649 0.456V9H142.645V5.316C142.645 4.296 142.921 3.648 143.713 3.648C144.433 3.648 144.637 4.14 144.637 4.86V9H145.621V4.656C145.621 3.36 145.009 2.784 144.085 2.784C143.317 2.784 142.861 3.132 142.645 3.6V0.456H141.649ZM150.868 6.144C150.88 6.012 150.892 5.784 150.892 5.652C150.892 4.116 150.496 2.784 148.864 2.784C147.4 2.784 146.728 4.008 146.728 5.94C146.728 7.464 146.98 9.108 148.816 9.108C150.664 9.108 150.82 7.404 150.844 7.236H149.884C149.86 7.428 149.74 8.28 148.828 8.28C147.892 8.28 147.712 7.26 147.712 6.144H150.868ZM147.736 5.388C147.748 4.968 147.796 3.624 148.852 3.624C149.716 3.624 149.908 4.428 149.908 5.388H147.736ZM154.354 9H158.111L158.243 8.124H155.351V0.852H154.354V9ZM159.099 9H160.083V2.892H159.099V9ZM160.083 1.752V0.456H159.099V1.752H160.083ZM161.501 9H162.485V5.172C162.485 4.272 162.797 3.66 163.493 3.66C164.069 3.66 164.309 4.044 164.309 4.764V9H165.281V5.1C165.281 4.296 165.533 3.648 166.277 3.648C166.913 3.648 167.093 4.14 167.093 4.74V9H168.065V4.572C168.065 3.168 167.357 2.784 166.577 2.784C165.773 2.784 165.317 3.204 165.089 3.684C164.909 3.072 164.477 2.784 163.829 2.784C163.157 2.784 162.713 3.12 162.473 3.636C162.473 3.372 162.461 3.06 162.437 2.892H161.489C161.501 3.18 161.501 3.612 161.501 4.728V9ZM169.481 9H170.465V2.892H169.481V9ZM170.465 1.752V0.456H169.481V1.752H170.465ZM171.257 3.72H172.109V7.788C172.109 8.784 172.529 9.084 173.297 9.084C173.501 9.084 173.825 9.06 174.041 8.976V8.232C173.933 8.256 173.777 8.256 173.633 8.256C173.177 8.256 173.081 8.016 173.081 7.608V3.72H174.125V2.892H173.081V1.284H172.109V2.892H171.257V3.72ZM175.757 3.24C176.009 2.712 176.333 1.464 176.345 0.431999H175.397C175.397 1.356 175.217 2.364 174.977 3.24H175.757ZM176.467 7.224C176.491 8.328 177.127 9.108 178.423 9.108C179.683 9.108 180.391 8.448 180.391 7.32C180.391 6.276 179.863 5.832 178.663 5.376C177.847 5.064 177.631 4.836 177.631 4.368C177.631 3.912 177.883 3.576 178.423 3.576C179.227 3.576 179.287 4.284 179.299 4.56H180.259C180.247 3.744 179.863 2.784 178.447 2.784C177.163 2.784 176.659 3.6 176.659 4.428C176.659 5.28 177.019 5.748 178.315 6.24C179.107 6.54 179.395 6.828 179.395 7.416C179.395 7.944 179.095 8.316 178.471 8.316C177.799 8.316 177.475 7.836 177.439 7.224H176.467ZM3.98072 22.5C3.98072 21.372 3.39272 20.784 2.18072 20.784C0.704719 20.784 0.296719 21.696 0.272719 22.584H1.20872C1.24472 22.176 1.30472 21.576 2.14472 21.576C2.92472 21.576 3.00872 22.152 3.00872 22.596V23.388C2.84072 23.364 2.67272 23.364 2.39672 23.364C0.812719 23.364 0.0327187 24.192 0.0327187 25.332C0.0327187 26.184 0.464719 27.108 1.64072 27.108C2.39672 27.108 2.84072 26.808 3.06872 26.328C3.06872 26.556 3.09272 26.868 3.12872 27H4.02872C4.00472 26.796 3.98072 26.244 3.98072 25.872V22.5ZM3.03272 24.456C3.03272 25.668 2.76872 26.28 1.91672 26.28C1.28072 26.28 1.01672 25.776 1.01672 25.26C1.01672 24.612 1.42472 24.12 2.45672 24.12C2.72072 24.12 2.88872 24.12 3.03272 24.144V24.456ZM5.3955 27H6.3795V23.34C6.3795 22.14 6.7155 21.648 7.4835 21.648C8.1555 21.648 8.3715 22.128 8.3715 22.848V27H9.3675V22.644C9.3675 21.312 8.6955 20.784 7.7955 20.784C6.9795 20.784 6.5595 21.216 6.3675 21.66C6.3675 21.288 6.3435 21.036 6.3315 20.892H5.3835C5.3835 21.18 5.3955 21.528 5.3955 22.788V27ZM13.6904 18.456V21.396C13.5584 21.108 13.2464 20.784 12.4784 20.784C11.1704 20.784 10.4744 21.948 10.4744 23.88C10.4744 26.016 11.0024 27.108 12.2744 27.108C13.1264 27.108 13.5104 26.724 13.7024 26.208C13.7024 26.46 13.7144 26.844 13.7384 27H14.6864C14.6744 26.64 14.6744 26.028 14.6744 25.404V18.456H13.6904ZM11.4824 23.892C11.4824 22.248 11.9384 21.648 12.6344 21.648C13.4864 21.648 13.7144 22.152 13.7144 23.856C13.7144 25.476 13.4744 26.244 12.5744 26.244C11.8544 26.244 11.4824 25.596 11.4824 23.892ZM76.3111 27.012V25.32H75.3151V27.012H76.3111Z" fill="#A673FF"/>
<path d="M184.812 9H185.808V1.74H187.62V0.852H183.012V1.74H184.812V9ZM191.239 6.144C191.251 6.012 191.263 5.784 191.263 5.652C191.263 4.116 190.867 2.784 189.235 2.784C187.771 2.784 187.099 4.008 187.099 5.94C187.099 7.464 187.351 9.108 189.187 9.108C191.035 9.108 191.191 7.404 191.215 7.236H190.255C190.231 7.428 190.111 8.28 189.199 8.28C188.263 8.28 188.083 7.26 188.083 6.144H191.239ZM188.107 5.388C188.119 4.968 188.167 3.624 189.223 3.624C190.087 3.624 190.279 4.428 190.279 5.388H188.107ZM192.356 9H193.34V5.628C193.34 4.5 193.88 3.912 194.924 3.888V2.796C194.144 2.808 193.568 3.24 193.316 3.96C193.316 3.312 193.292 3.036 193.28 2.892H192.344C192.356 3.324 192.356 3.996 192.356 4.968V9ZM195.696 9H196.68V5.172C196.68 4.272 196.992 3.66 197.688 3.66C198.264 3.66 198.504 4.044 198.504 4.764V9H199.476V5.1C199.476 4.296 199.728 3.648 200.472 3.648C201.108 3.648 201.288 4.14 201.288 4.74V9H202.26V4.572C202.26 3.168 201.552 2.784 200.772 2.784C199.968 2.784 199.512 3.204 199.284 3.684C199.104 3.072 198.672 2.784 198.024 2.784C197.352 2.784 196.908 3.12 196.668 3.636C196.668 3.372 196.656 3.06 196.632 2.892H195.684C195.696 3.18 195.696 3.612 195.696 4.728V9ZM203.233 7.224C203.257 8.328 203.893 9.108 205.189 9.108C206.449 9.108 207.157 8.448 207.157 7.32C207.157 6.276 206.629 5.832 205.429 5.376C204.613 5.064 204.397 4.836 204.397 4.368C204.397 3.912 204.649 3.576 205.189 3.576C205.993 3.576 206.053 4.284 206.065 4.56H207.025C207.013 3.744 206.629 2.784 205.213 2.784C203.929 2.784 203.425 3.6 203.425 4.428C203.425 5.28 203.785 5.748 205.081 6.24C205.873 6.54 206.161 6.828 206.161 7.416C206.161 7.944 205.861 8.316 205.237 8.316C204.565 8.316 204.241 7.836 204.205 7.224H203.233ZM212.249 8.232C211.613 8.232 211.241 7.692 211.241 6.828C211.241 6.168 211.421 5.736 211.997 5.244L213.521 7.152C213.113 7.92 212.777 8.232 212.249 8.232ZM215.009 4.068L213.989 6.204L212.789 4.716C213.725 4.044 214.181 3.54 214.181 2.484C214.181 1.524 213.617 0.756 212.501 0.756C211.289 0.756 210.773 1.728 210.773 2.64C210.773 3.468 211.061 4.008 211.541 4.656C210.617 5.352 210.257 5.952 210.257 6.912C210.257 8.208 210.893 9.096 212.165 9.096C213.113 9.096 213.605 8.652 214.085 7.848L215.009 9H216.257L214.577 6.924L216.005 4.068H215.009ZM212.489 1.548C213.077 1.548 213.257 1.98 213.257 2.532C213.257 3.168 213.077 3.576 212.333 4.128C211.853 3.516 211.721 3.132 211.721 2.604C211.721 1.968 211.997 1.548 212.489 1.548ZM222.87 6.72C222.834 7.116 222.69 8.256 221.646 8.256C220.47 8.256 220.278 6.576 220.278 4.884C220.278 3.252 220.482 1.62 221.694 1.62C222.798 1.62 222.834 2.832 222.858 3.108H223.854C223.842 2.58 223.71 0.732 221.718 0.732C219.894 0.732 219.234 2.46 219.234 4.884C219.234 6.876 219.426 9.12 221.622 9.12C223.65 9.12 223.842 7.188 223.878 6.72H222.87ZM226.889 2.784C225.545 2.784 224.705 3.768 224.705 5.904C224.705 8.076 225.413 9.108 226.841 9.108C228.245 9.108 228.989 8.04 228.989 5.88C228.989 3.828 228.245 2.784 226.889 2.784ZM226.853 3.636C227.621 3.636 227.981 4.38 227.981 5.904C227.981 7.488 227.621 8.268 226.853 8.268C226.085 8.268 225.713 7.5 225.713 5.904C225.713 4.32 226.109 3.636 226.853 3.636ZM230.103 9H231.087V5.34C231.087 4.14 231.423 3.648 232.191 3.648C232.863 3.648 233.079 4.128 233.079 4.848V9H234.075V4.644C234.075 3.312 233.403 2.784 232.503 2.784C231.687 2.784 231.267 3.216 231.075 3.66C231.075 3.288 231.051 3.036 231.039 2.892H230.091C230.091 3.18 230.103 3.528 230.103 4.788V9ZM238.397 0.456V3.396C238.265 3.108 237.953 2.784 237.185 2.784C235.877 2.784 235.181 3.948 235.181 5.88C235.181 8.016 235.709 9.108 236.981 9.108C237.833 9.108 238.217 8.724 238.409 8.208C238.409 8.46 238.421 8.844 238.445 9H239.393C239.381 8.64 239.381 8.028 239.381 7.404V0.456H238.397ZM236.189 5.892C236.189 4.248 236.645 3.648 237.341 3.648C238.193 3.648 238.421 4.152 238.421 5.856C238.421 7.476 238.181 8.244 237.281 8.244C236.561 8.244 236.189 7.596 236.189 5.892ZM240.79 9H241.774V2.892H240.79V9ZM241.774 1.752V0.456H240.79V1.752H241.774ZM242.566 3.72H243.418V7.788C243.418 8.784 243.838 9.084 244.606 9.084C244.81 9.084 245.134 9.06 245.35 8.976V8.232C245.242 8.256 245.086 8.256 244.942 8.256C244.486 8.256 244.39 8.016 244.39 7.608V3.72H245.434V2.892H244.39V1.284H243.418V2.892H242.566V3.72ZM246.251 9H247.235V2.892H246.251V9ZM247.235 1.752V0.456H246.251V1.752H247.235ZM250.537 2.784C249.193 2.784 248.353 3.768 248.353 5.904C248.353 8.076 249.061 9.108 250.489 9.108C251.893 9.108 252.637 8.04 252.637 5.88C252.637 3.828 251.893 2.784 250.537 2.784ZM250.501 3.636C251.269 3.636 251.629 4.38 251.629 5.904C251.629 7.488 251.269 8.268 250.501 8.268C249.733 8.268 249.361 7.5 249.361 5.904C249.361 4.32 249.757 3.636 250.501 3.636ZM253.751 9H254.735V5.34C254.735 4.14 255.071 3.648 255.839 3.648C256.511 3.648 256.727 4.128 256.727 4.848V9H257.723V4.644C257.723 3.312 257.051 2.784 256.151 2.784C255.335 2.784 254.915 3.216 254.723 3.66C254.723 3.288 254.699 3.036 254.687 2.892H253.739C253.739 3.18 253.751 3.528 253.751 4.788V9ZM258.686 7.224C258.71 8.328 259.346 9.108 260.642 9.108C261.902 9.108 262.61 8.448 262.61 7.32C262.61 6.276 262.082 5.832 260.882 5.376C260.066 5.064 259.85 4.836 259.85 4.368C259.85 3.912 260.102 3.576 260.642 3.576C261.446 3.576 261.506 4.284 261.518 4.56H262.478C262.466 3.744 262.082 2.784 260.666 2.784C259.382 2.784 258.878 3.6 258.878 4.428C258.878 5.28 259.238 5.748 260.534 6.24C261.326 6.54 261.614 6.828 261.614 7.416C261.614 7.944 261.314 8.316 260.69 8.316C260.018 8.316 259.694 7.836 259.658 7.224H258.686ZM18.4522 27H19.4482V23.52H20.4922C21.9922 23.52 22.8082 22.62 22.8082 21.156C22.8082 19.656 21.9082 18.852 20.6122 18.852H18.4522V27ZM19.4482 19.692H20.4802C21.3442 19.692 21.8002 20.256 21.8002 21.144C21.8002 22.188 21.3202 22.68 20.3842 22.68H19.4482V19.692ZM23.7353 27H24.7193V23.628C24.7193 22.5 25.2593 21.912 26.3033 21.888V20.796C25.5233 20.808 24.9473 21.24 24.6953 21.96C24.6953 21.312 24.6713 21.036 24.6593 20.892H23.7233C23.7353 21.324 23.7353 21.996 23.7353 22.968V27ZM27.0986 27H28.0826V20.892H27.0986V27ZM28.0826 19.752V18.456H27.0986V19.752H28.0826ZM28.889 20.892L30.545 27H31.613L33.353 20.892H32.357C32.045 22.236 31.205 25.188 31.121 25.92H31.109C30.989 25.116 30.413 22.824 29.945 20.892H28.889ZM37.6018 22.5C37.6018 21.372 37.0138 20.784 35.8018 20.784C34.3258 20.784 33.9178 21.696 33.8938 22.584H34.8298C34.8658 22.176 34.9258 21.576 35.7658 21.576C36.5458 21.576 36.6298 22.152 36.6298 22.596V23.388C36.4618 23.364 36.2938 23.364 36.0178 23.364C34.4338 23.364 33.6538 24.192 33.6538 25.332C33.6538 26.184 34.0858 27.108 35.2618 27.108C36.0178 27.108 36.4618 26.808 36.6898 26.328C36.6898 26.556 36.7138 26.868 36.7498 27H37.6498C37.6258 26.796 37.6018 26.244 37.6018 25.872V22.5ZM36.6538 24.456C36.6538 25.668 36.3898 26.28 35.5378 26.28C34.9018 26.28 34.6378 25.776 34.6378 25.26C34.6378 24.612 35.0458 24.12 36.0778 24.12C36.3418 24.12 36.5098 24.12 36.6538 24.144V24.456ZM41.7886 25.092C41.7406 25.428 41.6446 26.268 40.8046 26.268C40.0246 26.268 39.7246 25.392 39.7246 23.916C39.7246 22.536 40.0126 21.624 40.8526 21.624C41.6686 21.624 41.7406 22.5 41.7526 22.74H42.7606C42.7486 22.44 42.6766 20.784 40.8526 20.784C39.2686 20.784 38.7166 22.224 38.7166 23.916C38.7166 25.704 39.1486 27.108 40.7806 27.108C42.6046 27.108 42.7366 25.452 42.7606 25.092H41.7886ZM43.2562 20.892L45.0562 27.12C44.8282 28.056 44.6482 28.452 44.0362 28.452C43.8922 28.452 43.7122 28.44 43.6282 28.428V29.292C43.7482 29.316 43.9402 29.328 44.0842 29.328C44.9482 29.328 45.4642 29.112 45.9562 27.3L47.7442 20.892H46.7362C46.1842 23.028 45.6562 25.068 45.5362 25.8H45.5242C45.4522 25.128 44.9602 23.328 44.3362 20.892H43.2562ZM50.9131 27H51.9091V23.52H52.9531C54.4531 23.52 55.2691 22.62 55.2691 21.156C55.2691 19.656 54.3691 18.852 53.0731 18.852H50.9131V27ZM51.9091 19.692H52.9411C53.8051 19.692 54.2611 20.256 54.2611 21.144C54.2611 22.188 53.7811 22.68 52.8451 22.68H51.9091V19.692ZM58.0451 20.784C56.7011 20.784 55.8611 21.768 55.8611 23.904C55.8611 26.076 56.5691 27.108 57.9971 27.108C59.4011 27.108 60.1451 26.04 60.1451 23.88C60.1451 21.828 59.4011 20.784 58.0451 20.784ZM58.0091 21.636C58.7771 21.636 59.1371 22.38 59.1371 23.904C59.1371 25.488 58.7771 26.268 58.0091 26.268C57.2411 26.268 56.8691 25.5 56.8691 23.904C56.8691 22.32 57.2651 21.636 58.0091 21.636ZM62.2428 27V18.456H61.2588V27H62.2428ZM63.6494 27H64.6334V20.892H63.6494V27ZM64.6334 19.752V18.456H63.6494V19.752H64.6334ZM68.8238 25.092C68.7758 25.428 68.6798 26.268 67.8398 26.268C67.0598 26.268 66.7598 25.392 66.7598 23.916C66.7598 22.536 67.0478 21.624 67.8878 21.624C68.7038 21.624 68.7758 22.5 68.7878 22.74H69.7958C69.7838 22.44 69.7118 20.784 67.8878 20.784C66.3038 20.784 65.7518 22.224 65.7518 23.916C65.7518 25.704 66.1838 27.108 67.8158 27.108C69.6398 27.108 69.7718 25.452 69.7958 25.092H68.8238ZM70.2913 20.892L72.0913 27.12C71.8633 28.056 71.6833 28.452 71.0713 28.452C70.9273 28.452 70.7473 28.44 70.6633 28.428V29.292C70.7833 29.316 70.9753 29.328 71.1193 29.328C71.9833 29.328 72.4993 29.112 72.9913 27.3L74.7793 20.892H73.7713C73.2193 23.028 72.6913 25.068 72.5713 25.8H72.5593C72.4873 25.128 71.9953 23.328 71.3713 20.892H70.2913Z" fill="#1A1A1A"/>
<path d="M184.812 9H185.808V1.74H187.62V0.852H183.012V1.74H184.812V9ZM191.239 6.144C191.251 6.012 191.263 5.784 191.263 5.652C191.263 4.116 190.867 2.784 189.235 2.784C187.771 2.784 187.099 4.008 187.099 5.94C187.099 7.464 187.351 9.108 189.187 9.108C191.035 9.108 191.191 7.404 191.215 7.236H190.255C190.231 7.428 190.111 8.28 189.199 8.28C188.263 8.28 188.083 7.26 188.083 6.144H191.239ZM188.107 5.388C188.119 4.968 188.167 3.624 189.223 3.624C190.087 3.624 190.279 4.428 190.279 5.388H188.107ZM192.356 9H193.34V5.628C193.34 4.5 193.88 3.912 194.924 3.888V2.796C194.144 2.808 193.568 3.24 193.316 3.96C193.316 3.312 193.292 3.036 193.28 2.892H192.344C192.356 3.324 192.356 3.996 192.356 4.968V9ZM195.696 9H196.68V5.172C196.68 4.272 196.992 3.66 197.688 3.66C198.264 3.66 198.504 4.044 198.504 4.764V9H199.476V5.1C199.476 4.296 199.728 3.648 200.472 3.648C201.108 3.648 201.288 4.14 201.288 4.74V9H202.26V4.572C202.26 3.168 201.552 2.784 200.772 2.784C199.968 2.784 199.512 3.204 199.284 3.684C199.104 3.072 198.672 2.784 198.024 2.784C197.352 2.784 196.908 3.12 196.668 3.636C196.668 3.372 196.656 3.06 196.632 2.892H195.684C195.696 3.18 195.696 3.612 195.696 4.728V9ZM203.233 7.224C203.257 8.328 203.893 9.108 205.189 9.108C206.449 9.108 207.157 8.448 207.157 7.32C207.157 6.276 206.629 5.832 205.429 5.376C204.613 5.064 204.397 4.836 204.397 4.368C204.397 3.912 204.649 3.576 205.189 3.576C205.993 3.576 206.053 4.284 206.065 4.56H207.025C207.013 3.744 206.629 2.784 205.213 2.784C203.929 2.784 203.425 3.6 203.425 4.428C203.425 5.28 203.785 5.748 205.081 6.24C205.873 6.54 206.161 6.828 206.161 7.416C206.161 7.944 205.861 8.316 205.237 8.316C204.565 8.316 204.241 7.836 204.205 7.224H203.233ZM212.249 8.232C211.613 8.232 211.241 7.692 211.241 6.828C211.241 6.168 211.421 5.736 211.997 5.244L213.521 7.152C213.113 7.92 212.777 8.232 212.249 8.232ZM215.009 4.068L213.989 6.204L212.789 4.716C213.725 4.044 214.181 3.54 214.181 2.484C214.181 1.524 213.617 0.756 212.501 0.756C211.289 0.756 210.773 1.728 210.773 2.64C210.773 3.468 211.061 4.008 211.541 4.656C210.617 5.352 210.257 5.952 210.257 6.912C210.257 8.208 210.893 9.096 212.165 9.096C213.113 9.096 213.605 8.652 214.085 7.848L215.009 9H216.257L214.577 6.924L216.005 4.068H215.009ZM212.489 1.548C213.077 1.548 213.257 1.98 213.257 2.532C213.257 3.168 213.077 3.576 212.333 4.128C211.853 3.516 211.721 3.132 211.721 2.604C211.721 1.968 211.997 1.548 212.489 1.548ZM222.87 6.72C222.834 7.116 222.69 8.256 221.646 8.256C220.47 8.256 220.278 6.576 220.278 4.884C220.278 3.252 220.482 1.62 221.694 1.62C222.798 1.62 222.834 2.832 222.858 3.108H223.854C223.842 2.58 223.71 0.732 221.718 0.732C219.894 0.732 219.234 2.46 219.234 4.884C219.234 6.876 219.426 9.12 221.622 9.12C223.65 9.12 223.842 7.188 223.878 6.72H222.87ZM226.889 2.784C225.545 2.784 224.705 3.768 224.705 5.904C224.705 8.076 225.413 9.108 226.841 9.108C228.245 9.108 228.989 8.04 228.989 5.88C228.989 3.828 228.245 2.784 226.889 2.784ZM226.853 3.636C227.621 3.636 227.981 4.38 227.981 5.904C227.981 7.488 227.621 8.268 226.853 8.268C226.085 8.268 225.713 7.5 225.713 5.904C225.713 4.32 226.109 3.636 226.853 3.636ZM230.103 9H231.087V5.34C231.087 4.14 231.423 3.648 232.191 3.648C232.863 3.648 233.079 4.128 233.079 4.848V9H234.075V4.644C234.075 3.312 233.403 2.784 232.503 2.784C231.687 2.784 231.267 3.216 231.075 3.66C231.075 3.288 231.051 3.036 231.039 2.892H230.091C230.091 3.18 230.103 3.528 230.103 4.788V9ZM238.397 0.456V3.396C238.265 3.108 237.953 2.784 237.185 2.784C235.877 2.784 235.181 3.948 235.181 5.88C235.181 8.016 235.709 9.108 236.981 9.108C237.833 9.108 238.217 8.724 238.409 8.208C238.409 8.46 238.421 8.844 238.445 9H239.393C239.381 8.64 239.381 8.028 239.381 7.404V0.456H238.397ZM236.189 5.892C236.189 4.248 236.645 3.648 237.341 3.648C238.193 3.648 238.421 4.152 238.421 5.856C238.421 7.476 238.181 8.244 237.281 8.244C236.561 8.244 236.189 7.596 236.189 5.892ZM240.79 9H241.774V2.892H240.79V9ZM241.774 1.752V0.456H240.79V1.752H241.774ZM242.566 3.72H243.418V7.788C243.418 8.784 243.838 9.084 244.606 9.084C244.81 9.084 245.134 9.06 245.35 8.976V8.232C245.242 8.256 245.086 8.256 244.942 8.256C244.486 8.256 244.39 8.016 244.39 7.608V3.72H245.434V2.892H244.39V1.284H243.418V2.892H242.566V3.72ZM246.251 9H247.235V2.892H246.251V9ZM247.235 1.752V0.456H246.251V1.752H247.235ZM250.537 2.784C249.193 2.784 248.353 3.768 248.353 5.904C248.353 8.076 249.061 9.108 250.489 9.108C251.893 9.108 252.637 8.04 252.637 5.88C252.637 3.828 251.893 2.784 250.537 2.784ZM250.501 3.636C251.269 3.636 251.629 4.38 251.629 5.904C251.629 7.488 251.269 8.268 250.501 8.268C249.733 8.268 249.361 7.5 249.361 5.904C249.361 4.32 249.757 3.636 250.501 3.636ZM253.751 9H254.735V5.34C254.735 4.14 255.071 3.648 255.839 3.648C256.511 3.648 256.727 4.128 256.727 4.848V9H257.723V4.644C257.723 3.312 257.051 2.784 256.151 2.784C255.335 2.784 254.915 3.216 254.723 3.66C254.723 3.288 254.699 3.036 254.687 2.892H253.739C253.739 3.18 253.751 3.528 253.751 4.788V9ZM258.686 7.224C258.71 8.328 259.346 9.108 260.642 9.108C261.902 9.108 262.61 8.448 262.61 7.32C262.61 6.276 262.082 5.832 260.882 5.376C260.066 5.064 259.85 4.836 259.85 4.368C259.85 3.912 260.102 3.576 260.642 3.576C261.446 3.576 261.506 4.284 261.518 4.56H262.478C262.466 3.744 262.082 2.784 260.666 2.784C259.382 2.784 258.878 3.6 258.878 4.428C258.878 5.28 259.238 5.748 260.534 6.24C261.326 6.54 261.614 6.828 261.614 7.416C261.614 7.944 261.314 8.316 260.69 8.316C260.018 8.316 259.694 7.836 259.658 7.224H258.686ZM18.4522 27H19.4482V23.52H20.4922C21.9922 23.52 22.8082 22.62 22.8082 21.156C22.8082 19.656 21.9082 18.852 20.6122 18.852H18.4522V27ZM19.4482 19.692H20.4802C21.3442 19.692 21.8002 20.256 21.8002 21.144C21.8002 22.188 21.3202 22.68 20.3842 22.68H19.4482V19.692ZM23.7353 27H24.7193V23.628C24.7193 22.5 25.2593 21.912 26.3033 21.888V20.796C25.5233 20.808 24.9473 21.24 24.6953 21.96C24.6953 21.312 24.6713 21.036 24.6593 20.892H23.7233C23.7353 21.324 23.7353 21.996 23.7353 22.968V27ZM27.0986 27H28.0826V20.892H27.0986V27ZM28.0826 19.752V18.456H27.0986V19.752H28.0826ZM28.889 20.892L30.545 27H31.613L33.353 20.892H32.357C32.045 22.236 31.205 25.188 31.121 25.92H31.109C30.989 25.116 30.413 22.824 29.945 20.892H28.889ZM37.6018 22.5C37.6018 21.372 37.0138 20.784 35.8018 20.784C34.3258 20.784 33.9178 21.696 33.8938 22.584H34.8298C34.8658 22.176 34.9258 21.576 35.7658 21.576C36.5458 21.576 36.6298 22.152 36.6298 22.596V23.388C36.4618 23.364 36.2938 23.364 36.0178 23.364C34.4338 23.364 33.6538 24.192 33.6538 25.332C33.6538 26.184 34.0858 27.108 35.2618 27.108C36.0178 27.108 36.4618 26.808 36.6898 26.328C36.6898 26.556 36.7138 26.868 36.7498 27H37.6498C37.6258 26.796 37.6018 26.244 37.6018 25.872V22.5ZM36.6538 24.456C36.6538 25.668 36.3898 26.28 35.5378 26.28C34.9018 26.28 34.6378 25.776 34.6378 25.26C34.6378 24.612 35.0458 24.12 36.0778 24.12C36.3418 24.12 36.5098 24.12 36.6538 24.144V24.456ZM41.7886 25.092C41.7406 25.428 41.6446 26.268 40.8046 26.268C40.0246 26.268 39.7246 25.392 39.7246 23.916C39.7246 22.536 40.0126 21.624 40.8526 21.624C41.6686 21.624 41.7406 22.5 41.7526 22.74H42.7606C42.7486 22.44 42.6766 20.784 40.8526 20.784C39.2686 20.784 38.7166 22.224 38.7166 23.916C38.7166 25.704 39.1486 27.108 40.7806 27.108C42.6046 27.108 42.7366 25.452 42.7606 25.092H41.7886ZM43.2562 20.892L45.0562 27.12C44.8282 28.056 44.6482 28.452 44.0362 28.452C43.8922 28.452 43.7122 28.44 43.6282 28.428V29.292C43.7482 29.316 43.9402 29.328 44.0842 29.328C44.9482 29.328 45.4642 29.112 45.9562 27.3L47.7442 20.892H46.7362C46.1842 23.028 45.6562 25.068 45.5362 25.8H45.5242C45.4522 25.128 44.9602 23.328 44.3362 20.892H43.2562ZM50.9131 27H51.9091V23.52H52.9531C54.4531 23.52 55.2691 22.62 55.2691 21.156C55.2691 19.656 54.3691 18.852 53.0731 18.852H50.9131V27ZM51.9091 19.692H52.9411C53.8051 19.692 54.2611 20.256 54.2611 21.144C54.2611 22.188 53.7811 22.68 52.8451 22.68H51.9091V19.692ZM58.0451 20.784C56.7011 20.784 55.8611 21.768 55.8611 23.904C55.8611 26.076 56.5691 27.108 57.9971 27.108C59.4011 27.108 60.1451 26.04 60.1451 23.88C60.1451 21.828 59.4011 20.784 58.0451 20.784ZM58.0091 21.636C58.7771 21.636 59.1371 22.38 59.1371 23.904C59.1371 25.488 58.7771 26.268 58.0091 26.268C57.2411 26.268 56.8691 25.5 56.8691 23.904C56.8691 22.32 57.2651 21.636 58.0091 21.636ZM62.2428 27V18.456H61.2588V27H62.2428ZM63.6494 27H64.6334V20.892H63.6494V27ZM64.6334 19.752V18.456H63.6494V19.752H64.6334ZM68.8238 25.092C68.7758 25.428 68.6798 26.268 67.8398 26.268C67.0598 26.268 66.7598 25.392 66.7598 23.916C66.7598 22.536 67.0478 21.624 67.8878 21.624C68.7038 21.624 68.7758 22.5 68.7878 22.74H69.7958C69.7838 22.44 69.7118 20.784 67.8878 20.784C66.3038 20.784 65.7518 22.224 65.7518 23.916C65.7518 25.704 66.1838 27.108 67.8158 27.108C69.6398 27.108 69.7718 25.452 69.7958 25.092H68.8238ZM70.2913 20.892L72.0913 27.12C71.8633 28.056 71.6833 28.452 71.0713 28.452C70.9273 28.452 70.7473 28.44 70.6633 28.428V29.292C70.7833 29.316 70.9753 29.328 71.1193 29.328C71.9833 29.328 72.4993 29.112 72.9913 27.3L74.7793 20.892H73.7713C73.2193 23.028 72.6913 25.068 72.5713 25.8H72.5593C72.4873 25.128 71.9953 23.328 71.3713 20.892H70.2913Z" fill="white" fill-opacity="0.48"/>
<path d="M184.812 9H185.808V1.74H187.62V0.852H183.012V1.74H184.812V9ZM191.239 6.144C191.251 6.012 191.263 5.784 191.263 5.652C191.263 4.116 190.867 2.784 189.235 2.784C187.771 2.784 187.099 4.008 187.099 5.94C187.099 7.464 187.351 9.108 189.187 9.108C191.035 9.108 191.191 7.404 191.215 7.236H190.255C190.231 7.428 190.111 8.28 189.199 8.28C188.263 8.28 188.083 7.26 188.083 6.144H191.239ZM188.107 5.388C188.119 4.968 188.167 3.624 189.223 3.624C190.087 3.624 190.279 4.428 190.279 5.388H188.107ZM192.356 9H193.34V5.628C193.34 4.5 193.88 3.912 194.924 3.888V2.796C194.144 2.808 193.568 3.24 193.316 3.96C193.316 3.312 193.292 3.036 193.28 2.892H192.344C192.356 3.324 192.356 3.996 192.356 4.968V9ZM195.696 9H196.68V5.172C196.68 4.272 196.992 3.66 197.688 3.66C198.264 3.66 198.504 4.044 198.504 4.764V9H199.476V5.1C199.476 4.296 199.728 3.648 200.472 3.648C201.108 3.648 201.288 4.14 201.288 4.74V9H202.26V4.572C202.26 3.168 201.552 2.784 200.772 2.784C199.968 2.784 199.512 3.204 199.284 3.684C199.104 3.072 198.672 2.784 198.024 2.784C197.352 2.784 196.908 3.12 196.668 3.636C196.668 3.372 196.656 3.06 196.632 2.892H195.684C195.696 3.18 195.696 3.612 195.696 4.728V9ZM203.233 7.224C203.257 8.328 203.893 9.108 205.189 9.108C206.449 9.108 207.157 8.448 207.157 7.32C207.157 6.276 206.629 5.832 205.429 5.376C204.613 5.064 204.397 4.836 204.397 4.368C204.397 3.912 204.649 3.576 205.189 3.576C205.993 3.576 206.053 4.284 206.065 4.56H207.025C207.013 3.744 206.629 2.784 205.213 2.784C203.929 2.784 203.425 3.6 203.425 4.428C203.425 5.28 203.785 5.748 205.081 6.24C205.873 6.54 206.161 6.828 206.161 7.416C206.161 7.944 205.861 8.316 205.237 8.316C204.565 8.316 204.241 7.836 204.205 7.224H203.233ZM212.249 8.232C211.613 8.232 211.241 7.692 211.241 6.828C211.241 6.168 211.421 5.736 211.997 5.244L213.521 7.152C213.113 7.92 212.777 8.232 212.249 8.232ZM215.009 4.068L213.989 6.204L212.789 4.716C213.725 4.044 214.181 3.54 214.181 2.484C214.181 1.524 213.617 0.756 212.501 0.756C211.289 0.756 210.773 1.728 210.773 2.64C210.773 3.468 211.061 4.008 211.541 4.656C210.617 5.352 210.257 5.952 210.257 6.912C210.257 8.208 210.893 9.096 212.165 9.096C213.113 9.096 213.605 8.652 214.085 7.848L215.009 9H216.257L214.577 6.924L216.005 4.068H215.009ZM212.489 1.548C213.077 1.548 213.257 1.98 213.257 2.532C213.257 3.168 213.077 3.576 212.333 4.128C211.853 3.516 211.721 3.132 211.721 2.604C211.721 1.968 211.997 1.548 212.489 1.548ZM222.87 6.72C222.834 7.116 222.69 8.256 221.646 8.256C220.47 8.256 220.278 6.576 220.278 4.884C220.278 3.252 220.482 1.62 221.694 1.62C222.798 1.62 222.834 2.832 222.858 3.108H223.854C223.842 2.58 223.71 0.732 221.718 0.732C219.894 0.732 219.234 2.46 219.234 4.884C219.234 6.876 219.426 9.12 221.622 9.12C223.65 9.12 223.842 7.188 223.878 6.72H222.87ZM226.889 2.784C225.545 2.784 224.705 3.768 224.705 5.904C224.705 8.076 225.413 9.108 226.841 9.108C228.245 9.108 228.989 8.04 228.989 5.88C228.989 3.828 228.245 2.784 226.889 2.784ZM226.853 3.636C227.621 3.636 227.981 4.38 227.981 5.904C227.981 7.488 227.621 8.268 226.853 8.268C226.085 8.268 225.713 7.5 225.713 5.904C225.713 4.32 226.109 3.636 226.853 3.636ZM230.103 9H231.087V5.34C231.087 4.14 231.423 3.648 232.191 3.648C232.863 3.648 233.079 4.128 233.079 4.848V9H234.075V4.644C234.075 3.312 233.403 2.784 232.503 2.784C231.687 2.784 231.267 3.216 231.075 3.66C231.075 3.288 231.051 3.036 231.039 2.892H230.091C230.091 3.18 230.103 3.528 230.103 4.788V9ZM238.397 0.456V3.396C238.265 3.108 237.953 2.784 237.185 2.784C235.877 2.784 235.181 3.948 235.181 5.88C235.181 8.016 235.709 9.108 236.981 9.108C237.833 9.108 238.217 8.724 238.409 8.208C238.409 8.46 238.421 8.844 238.445 9H239.393C239.381 8.64 239.381 8.028 239.381 7.404V0.456H238.397ZM236.189 5.892C236.189 4.248 236.645 3.648 237.341 3.648C238.193 3.648 238.421 4.152 238.421 5.856C238.421 7.476 238.181 8.244 237.281 8.244C236.561 8.244 236.189 7.596 236.189 5.892ZM240.79 9H241.774V2.892H240.79V9ZM241.774 1.752V0.456H240.79V1.752H241.774ZM242.566 3.72H243.418V7.788C243.418 8.784 243.838 9.084 244.606 9.084C244.81 9.084 245.134 9.06 245.35 8.976V8.232C245.242 8.256 245.086 8.256 244.942 8.256C244.486 8.256 244.39 8.016 244.39 7.608V3.72H245.434V2.892H244.39V1.284H243.418V2.892H242.566V3.72ZM246.251 9H247.235V2.892H246.251V9ZM247.235 1.752V0.456H246.251V1.752H247.235ZM250.537 2.784C249.193 2.784 248.353 3.768 248.353 5.904C248.353 8.076 249.061 9.108 250.489 9.108C251.893 9.108 252.637 8.04 252.637 5.88C252.637 3.828 251.893 2.784 250.537 2.784ZM250.501 3.636C251.269 3.636 251.629 4.38 251.629 5.904C251.629 7.488 251.269 8.268 250.501 8.268C249.733 8.268 249.361 7.5 249.361 5.904C249.361 4.32 249.757 3.636 250.501 3.636ZM253.751 9H254.735V5.34C254.735 4.14 255.071 3.648 255.839 3.648C256.511 3.648 256.727 4.128 256.727 4.848V9H257.723V4.644C257.723 3.312 257.051 2.784 256.151 2.784C255.335 2.784 254.915 3.216 254.723 3.66C254.723 3.288 254.699 3.036 254.687 2.892H253.739C253.739 3.18 253.751 3.528 253.751 4.788V9ZM258.686 7.224C258.71 8.328 259.346 9.108 260.642 9.108C261.902 9.108 262.61 8.448 262.61 7.32C262.61 6.276 262.082 5.832 260.882 5.376C260.066 5.064 259.85 4.836 259.85 4.368C259.85 3.912 260.102 3.576 260.642 3.576C261.446 3.576 261.506 4.284 261.518 4.56H262.478C262.466 3.744 262.082 2.784 260.666 2.784C259.382 2.784 258.878 3.6 258.878 4.428C258.878 5.28 259.238 5.748 260.534 6.24C261.326 6.54 261.614 6.828 261.614 7.416C261.614 7.944 261.314 8.316 260.69 8.316C260.018 8.316 259.694 7.836 259.658 7.224H258.686ZM18.4522 27H19.4482V23.52H20.4922C21.9922 23.52 22.8082 22.62 22.8082 21.156C22.8082 19.656 21.9082 18.852 20.6122 18.852H18.4522V27ZM19.4482 19.692H20.4802C21.3442 19.692 21.8002 20.256 21.8002 21.144C21.8002 22.188 21.3202 22.68 20.3842 22.68H19.4482V19.692ZM23.7353 27H24.7193V23.628C24.7193 22.5 25.2593 21.912 26.3033 21.888V20.796C25.5233 20.808 24.9473 21.24 24.6953 21.96C24.6953 21.312 24.6713 21.036 24.6593 20.892H23.7233C23.7353 21.324 23.7353 21.996 23.7353 22.968V27ZM27.0986 27H28.0826V20.892H27.0986V27ZM28.0826 19.752V18.456H27.0986V19.752H28.0826ZM28.889 20.892L30.545 27H31.613L33.353 20.892H32.357C32.045 22.236 31.205 25.188 31.121 25.92H31.109C30.989 25.116 30.413 22.824 29.945 20.892H28.889ZM37.6018 22.5C37.6018 21.372 37.0138 20.784 35.8018 20.784C34.3258 20.784 33.9178 21.696 33.8938 22.584H34.8298C34.8658 22.176 34.9258 21.576 35.7658 21.576C36.5458 21.576 36.6298 22.152 36.6298 22.596V23.388C36.4618 23.364 36.2938 23.364 36.0178 23.364C34.4338 23.364 33.6538 24.192 33.6538 25.332C33.6538 26.184 34.0858 27.108 35.2618 27.108C36.0178 27.108 36.4618 26.808 36.6898 26.328C36.6898 26.556 36.7138 26.868 36.7498 27H37.6498C37.6258 26.796 37.6018 26.244 37.6018 25.872V22.5ZM36.6538 24.456C36.6538 25.668 36.3898 26.28 35.5378 26.28C34.9018 26.28 34.6378 25.776 34.6378 25.26C34.6378 24.612 35.0458 24.12 36.0778 24.12C36.3418 24.12 36.5098 24.12 36.6538 24.144V24.456ZM41.7886 25.092C41.7406 25.428 41.6446 26.268 40.8046 26.268C40.0246 26.268 39.7246 25.392 39.7246 23.916C39.7246 22.536 40.0126 21.624 40.8526 21.624C41.6686 21.624 41.7406 22.5 41.7526 22.74H42.7606C42.7486 22.44 42.6766 20.784 40.8526 20.784C39.2686 20.784 38.7166 22.224 38.7166 23.916C38.7166 25.704 39.1486 27.108 40.7806 27.108C42.6046 27.108 42.7366 25.452 42.7606 25.092H41.7886ZM43.2562 20.892L45.0562 27.12C44.8282 28.056 44.6482 28.452 44.0362 28.452C43.8922 28.452 43.7122 28.44 43.6282 28.428V29.292C43.7482 29.316 43.9402 29.328 44.0842 29.328C44.9482 29.328 45.4642 29.112 45.9562 27.3L47.7442 20.892H46.7362C46.1842 23.028 45.6562 25.068 45.5362 25.8H45.5242C45.4522 25.128 44.9602 23.328 44.3362 20.892H43.2562ZM50.9131 27H51.9091V23.52H52.9531C54.4531 23.52 55.2691 22.62 55.2691 21.156C55.2691 19.656 54.3691 18.852 53.0731 18.852H50.9131V27ZM51.9091 19.692H52.9411C53.8051 19.692 54.2611 20.256 54.2611 21.144C54.2611 22.188 53.7811 22.68 52.8451 22.68H51.9091V19.692ZM58.0451 20.784C56.7011 20.784 55.8611 21.768 55.8611 23.904C55.8611 26.076 56.5691 27.108 57.9971 27.108C59.4011 27.108 60.1451 26.04 60.1451 23.88C60.1451 21.828 59.4011 20.784 58.0451 20.784ZM58.0091 21.636C58.7771 21.636 59.1371 22.38 59.1371 23.904C59.1371 25.488 58.7771 26.268 58.0091 26.268C57.2411 26.268 56.8691 25.5 56.8691 23.904C56.8691 22.32 57.2651 21.636 58.0091 21.636ZM62.2428 27V18.456H61.2588V27H62.2428ZM63.6494 27H64.6334V20.892H63.6494V27ZM64.6334 19.752V18.456H63.6494V19.752H64.6334ZM68.8238 25.092C68.7758 25.428 68.6798 26.268 67.8398 26.268C67.0598 26.268 66.7598 25.392 66.7598 23.916C66.7598 22.536 67.0478 21.624 67.8878 21.624C68.7038 21.624 68.7758 22.5 68.7878 22.74H69.7958C69.7838 22.44 69.7118 20.784 67.8878 20.784C66.3038 20.784 65.7518 22.224 65.7518 23.916C65.7518 25.704 66.1838 27.108 67.8158 27.108C69.6398 27.108 69.7718 25.452 69.7958 25.092H68.8238ZM70.2913 20.892L72.0913 27.12C71.8633 28.056 71.6833 28.452 71.0713 28.452C70.9273 28.452 70.7473 28.44 70.6633 28.428V29.292C70.7833 29.316 70.9753 29.328 71.1193 29.328C71.9833 29.328 72.4993 29.112 72.9913 27.3L74.7793 20.892H73.7713C73.2193 23.028 72.6913 25.068 72.5713 25.8H72.5593C72.4873 25.128 71.9953 23.328 71.3713 20.892H70.2913Z" fill="#EFEEFF"/>
</svg>
