<svg width="302" height="68" viewBox="0 0 302 68" fill="none" xmlns="http://www.w3.org/2000/svg">
<path d="M14.5219 17C15.6002 13.4191 17.2279 8.04783 17.6348 5.80979H17.6551C18.0824 7.76299 19.8321 13.8057 20.7884 17H24.0437L28.5402 2.63584H25.5086C24.5931 5.89117 22.9044 11.6897 22.4771 14.1516H22.4568C22.0905 12.2187 20.2391 5.80979 19.3032 2.63584H16.3937C15.3561 6.01325 13.6267 11.7915 13.1791 14.2533H13.1587C12.8535 11.8728 11.1648 6.01325 10.2493 2.63584H7.0753L11.2869 17H14.5219ZM39.8973 12.4629C39.9176 12.178 39.9176 11.9949 39.9176 11.7711C39.9176 9.10582 38.351 6.27774 34.3225 6.27774C30.6806 6.27774 28.646 8.78028 28.646 11.7915C28.646 14.4771 30.2533 17.2848 34.3632 17.2848C37.6389 17.2848 39.1648 15.6368 39.7752 13.8667H36.9064C36.4588 14.6399 35.7874 15.1078 34.4039 15.1078C32.6745 15.1078 31.6165 13.9685 31.5148 12.4629H39.8973ZM31.5555 10.6521C31.6979 9.411 32.4507 8.33267 34.3225 8.33267C36.3978 8.33267 36.9064 9.71619 36.9878 10.6521H31.5555ZM45.0216 17V1.80166H42.1528V17H45.0216ZM55.5629 13.5616C55.1153 14.5382 54.4032 15.0875 53.04 15.0875C51.1479 15.0875 50.273 13.6022 50.273 11.7508C50.273 9.83826 51.1886 8.45475 53.0604 8.45475C54.6474 8.45475 55.2577 9.34997 55.5019 10.0621H58.391C58.2282 8.82097 56.9871 6.27774 53.04 6.27774C49.3574 6.27774 47.3229 8.90236 47.3229 11.7711C47.3229 14.762 49.1133 17.2848 53.04 17.2848C56.3157 17.2848 57.9841 15.4944 58.452 13.5616H55.5629ZM65.8598 6.27774C62.0348 6.27774 59.9595 8.86167 59.9595 11.7711C59.9595 14.6602 61.9534 17.2848 65.7378 17.2848C69.5628 17.2848 71.6787 14.884 71.6787 11.7711C71.6787 9.12616 69.7866 6.27774 65.8598 6.27774ZM65.7988 8.47509C67.7723 8.47509 68.7082 10.0824 68.7082 11.8118C68.7082 13.5616 67.7927 15.0671 65.8191 15.0671C63.927 15.0671 62.9097 13.5209 62.9097 11.7711C62.9097 10.0214 63.8252 8.47509 65.7988 8.47509ZM73.9829 17H76.8313V11.3032C76.8313 9.63481 77.462 8.49544 79.0083 8.49544C80.4936 8.49544 80.8801 9.57377 80.8801 10.6928V17H83.7286V11.2421C83.7286 9.34997 84.5627 8.49544 85.9056 8.49544C87.4315 8.49544 87.757 9.71619 87.757 10.7131V17H90.6055V10.6521C90.6055 7.53919 88.8964 6.27774 86.7397 6.27774C84.7255 6.27774 83.7489 7.25434 83.1996 8.06818C82.7723 7.09158 81.8364 6.27774 80.046 6.27774C78.3369 6.27774 77.34 7.09158 76.7906 7.88506C76.7906 7.4578 76.7703 6.9695 76.7092 6.56259H73.9626C73.9829 7.4578 73.9829 8.35302 73.9829 9.24824V17ZM104.134 12.4629C104.154 12.178 104.154 11.9949 104.154 11.7711C104.154 9.10582 102.587 6.27774 98.5589 6.27774C94.917 6.27774 92.8824 8.78028 92.8824 11.7915C92.8824 14.4771 94.4898 17.2848 98.5996 17.2848C101.875 17.2848 103.401 15.6368 104.012 13.8667H101.143C100.695 14.6399 100.024 15.1078 98.6403 15.1078C96.9109 15.1078 95.8529 13.9685 95.7512 12.4629H104.134ZM95.7919 10.6521C95.9343 9.411 96.6871 8.33267 98.5589 8.33267C100.634 8.33267 101.143 9.71619 101.224 10.6521H95.7919ZM111.031 8.67855H112.964V13.9685C112.964 16.0234 113.697 17.0814 116.138 17.0814C116.85 17.0814 117.542 17.0407 118.071 16.8576V14.8637C117.786 14.9247 117.42 14.9451 117.135 14.9451C116.077 14.9451 115.853 14.4975 115.853 13.5005V8.67855H118.376V6.56259H115.853V3.38863H112.964V6.56259H111.031V8.67855ZM125.507 6.27774C121.681 6.27774 119.606 8.86167 119.606 11.7711C119.606 14.6602 121.6 17.2848 125.384 17.2848C129.209 17.2848 131.325 14.884 131.325 11.7711C131.325 9.12616 129.433 6.27774 125.507 6.27774ZM125.445 8.47509C127.419 8.47509 128.355 10.0824 128.355 11.8118C128.355 13.5616 127.439 15.0671 125.466 15.0671C123.574 15.0671 122.556 13.5209 122.556 11.7711C122.556 10.0214 123.472 8.47509 125.445 8.47509ZM138.536 12.7274C138.984 15.3316 140.998 17.2848 145.352 17.2848C150.011 17.2848 151.924 15.2909 151.924 12.8698C151.924 10.8149 151.069 9.1872 145.698 8.23094C142.809 7.7223 142.219 7.21365 142.219 6.2574C142.219 5.15872 143.236 4.58904 145.026 4.58904C147.61 4.58904 148.119 5.64702 148.363 6.44051H151.374C151.212 4.85354 149.95 2.33065 145.108 2.33065C141.791 2.33065 139.146 3.79555 139.146 6.56259C139.146 8.49544 140.103 10.0214 144.884 10.8352C148.119 11.3845 148.831 12.056 148.831 13.175C148.831 14.233 148.038 15.0468 145.616 15.0468C143.094 15.0468 142.015 14.1109 141.568 12.7274H138.536ZM157.361 1.80166H154.492V17H157.361V13.6429L159.111 12.178L162.651 17H166.15L161.145 10.5707L165.682 6.56259H162.244C160.82 7.9461 158.419 10.1435 157.361 11.2218V1.80166ZM165.588 6.56259L170.308 17.4273C169.616 18.8311 169.23 19.3194 167.805 19.3194C167.5 19.3194 167.195 19.3194 166.727 19.2584V21.6185C167.093 21.6999 167.826 21.7406 168.273 21.7406C171.529 21.7406 172.119 20.4181 173.929 15.8199L177.612 6.56259H174.682C173.075 10.8352 172.18 13.6836 171.875 14.7213H171.834C171.59 13.9278 170.674 11.2828 168.741 6.56259H165.588ZM182.009 8.16991C182.722 6.72535 183.576 3.99901 183.82 1.80166H180.87C180.728 4.0397 180.239 6.44051 179.731 8.16991H182.009ZM184.256 13.8057C184.601 16.0437 186.697 17.2848 189.607 17.2848C193.269 17.2848 194.713 15.7589 194.713 13.8667C194.713 12.3815 194.103 11.0387 189.952 10.4283C187.877 10.1231 187.491 9.79757 187.491 9.26858C187.491 8.82097 187.775 8.23094 189.24 8.23094C190.97 8.23094 191.377 8.94305 191.519 9.47204H194.367C194.225 8.04783 193.025 6.27774 189.362 6.27774C185.822 6.27774 184.663 8.02749 184.663 9.53308C184.663 10.8149 185.253 12.2391 189.139 12.7681C191.397 13.0529 191.885 13.4395 191.885 14.1109C191.885 14.7416 191.397 15.2706 189.79 15.2706C188.223 15.2706 187.409 14.7009 187.124 13.8057H184.256ZM201.594 8.67855H203.527V13.9685C203.527 16.0234 204.259 17.0814 206.701 17.0814C207.413 17.0814 208.105 17.0407 208.634 16.8576V14.8637C208.349 14.9247 207.983 14.9451 207.698 14.9451C206.64 14.9451 206.416 14.4975 206.416 13.5005V8.67855H208.939V6.56259H206.416V3.38863H203.527V6.56259H201.594V8.67855ZM210.999 1.80166V17H213.868V11.9542C213.868 9.8993 214.743 8.53613 216.513 8.53613C218.141 8.53613 218.588 9.59412 218.588 11.059V17H221.498V10.7131C221.498 7.74264 219.952 6.27774 217.449 6.27774C215.17 6.27774 214.234 7.39676 213.848 8.04783V1.80166H210.999ZM235.05 12.4629C235.071 12.178 235.071 11.9949 235.071 11.7711C235.071 9.10582 233.504 6.27774 229.476 6.27774C225.834 6.27774 223.799 8.78028 223.799 11.7915C223.799 14.4771 225.406 17.2848 229.516 17.2848C232.792 17.2848 234.318 15.6368 234.928 13.8667H232.06C231.612 14.6399 230.941 15.1078 229.557 15.1078C227.828 15.1078 226.77 13.9685 226.668 12.4629H235.05ZM226.709 10.6521C226.851 9.411 227.604 8.33267 229.476 8.33267C231.551 8.33267 232.06 9.71619 232.141 10.6521H226.709ZM243.555 17H254.4L254.807 14.5585H246.546V2.63584H243.555V17ZM256.877 17H259.766V6.56259H256.877V17ZM259.766 4.34489V1.80166H256.877V4.34489H259.766ZM262.718 17H265.567V11.3032C265.567 9.63481 266.197 8.49544 267.744 8.49544C269.229 8.49544 269.616 9.57377 269.616 10.6928V17H272.464V11.2421C272.464 9.34997 273.298 8.49544 274.641 8.49544C276.167 8.49544 276.492 9.71619 276.492 10.7131V17H279.341V10.6521C279.341 7.53919 277.632 6.27774 275.475 6.27774C273.461 6.27774 272.484 7.25434 271.935 8.06818C271.508 7.09158 270.572 6.27774 268.781 6.27774C267.072 6.27774 266.075 7.09158 265.526 7.88506C265.526 7.4578 265.506 6.9695 265.445 6.56259H262.698C262.718 7.4578 262.718 8.35302 262.718 9.24824V17ZM282.349 17H285.238V6.56259H282.349V17ZM285.238 4.34489V1.80166H282.349V4.34489H285.238ZM287.269 8.67855H289.202V13.9685C289.202 16.0234 289.934 17.0814 292.376 17.0814C293.088 17.0814 293.78 17.0407 294.309 16.8576V14.8637C294.024 14.9247 293.658 14.9451 293.373 14.9451C292.315 14.9451 292.091 14.4975 292.091 13.5005V8.67855H294.614V6.56259H292.091V3.38863H289.202V6.56259H287.269V8.67855Z" fill="white"/>
<path d="M28.6979 41.6C28.4099 42.344 27.8819 43.088 26.6219 43.088C24.7619 43.088 24.0899 41.42 24.0899 39.824C24.0899 38.168 24.7979 36.56 26.5739 36.56C27.8579 36.56 28.4219 37.232 28.6979 38.096H29.9339C29.7059 36.704 28.6379 35.54 26.6219 35.54C24.0539 35.54 22.7939 37.592 22.7939 39.86C22.7939 42.224 24.0539 44.108 26.5739 44.108C28.4939 44.108 29.5739 43.04 29.9339 41.6H28.6979ZM31.2022 44H32.3782V41.096C32.3782 39.524 33.1702 38.936 34.4182 38.912V37.748C33.3982 37.772 32.6902 38.3 32.3782 39.104C32.3782 38.564 32.3662 38.06 32.3422 37.892H31.1902C31.1902 38.252 31.2022 38.744 31.2022 39.548V44ZM40.4486 41.168C40.4726 41 40.4726 40.856 40.4726 40.664C40.4726 39.32 39.8126 37.748 37.8206 37.748C35.9366 37.748 35.0126 39.176 35.0126 41.012C35.0126 42.596 35.8166 44.144 37.7486 44.144C39.4766 44.144 40.1246 43.064 40.3646 42.284H39.1766C38.9966 42.716 38.6966 43.172 37.7846 43.172C36.7886 43.172 36.2126 42.32 36.2006 41.168H40.4486ZM36.2366 40.364C36.3326 39.368 36.7766 38.66 37.8086 38.66C38.8046 38.66 39.2726 39.416 39.2846 40.364H36.2366ZM46.4282 39.764C46.4282 38.372 45.6002 37.748 44.0762 37.748C42.3002 37.736 41.7482 38.696 41.6642 39.584H42.8042C42.9002 39.116 43.0682 38.648 44.0402 38.648C45.1082 38.648 45.2762 39.26 45.2762 39.776V40.268H44.2682C42.4562 40.268 41.3762 40.904 41.3762 42.272C41.3762 43.196 41.9882 44.144 43.4402 44.144C44.6042 44.144 45.0842 43.64 45.2882 43.244C45.3122 43.568 45.3482 43.868 45.3962 44H46.5122C46.4762 43.832 46.4282 43.184 46.4282 42.62V39.764ZM45.2882 41.252C45.2882 42.296 45.0962 43.244 43.7042 43.244C42.9842 43.244 42.5762 42.8 42.5762 42.2C42.5762 41.396 43.1762 41.06 44.3522 41.06H45.2882V41.252ZM47.3566 38.828H48.3886V42.536C48.3886 43.568 48.7966 44.084 49.8046 44.084C50.1046 44.084 50.4766 44.072 50.7526 43.976V43.1C50.5966 43.148 50.3926 43.148 50.2486 43.148C49.7086 43.148 49.5646 42.872 49.5646 42.296V38.828H50.8846V37.892H49.5646V36.116H48.3886V37.892H47.3566V38.828ZM56.9486 41.168C56.9726 41 56.9726 40.856 56.9726 40.664C56.9726 39.32 56.3126 37.748 54.3206 37.748C52.4366 37.748 51.5126 39.176 51.5126 41.012C51.5126 42.596 52.3166 44.144 54.2486 44.144C55.9766 44.144 56.6246 43.064 56.8646 42.284H55.6766C55.4966 42.716 55.1966 43.172 54.2846 43.172C53.2886 43.172 52.7126 42.32 52.7006 41.168H56.9486ZM52.7366 40.364C52.8326 39.368 53.2766 38.66 54.3086 38.66C55.3046 38.66 55.7726 39.416 55.7846 40.364H52.7366ZM60.5279 37.892L62.8079 44.228C62.4719 45.176 62.1719 45.5 61.4279 45.5C61.2719 45.5 61.0919 45.488 60.9359 45.464V46.472C61.1879 46.496 61.4399 46.508 61.6199 46.508C62.9159 46.508 63.3839 46.04 63.9959 44.264L66.1679 37.892H64.9799C64.0319 40.868 63.6119 42.26 63.4319 42.944H63.4199C63.2639 42.332 62.7239 40.652 61.7999 37.892H60.5279ZM69.6513 37.748C67.7913 37.748 66.7353 39.14 66.7353 40.952C66.7353 42.788 67.8033 44.144 69.5793 44.144C71.4633 44.144 72.4833 42.716 72.4833 40.928C72.4833 39.02 71.3673 37.748 69.6513 37.748ZM69.6033 38.72C70.6833 38.72 71.2833 39.596 71.2833 40.952C71.2833 42.296 70.6833 43.172 69.6273 43.172C68.5833 43.172 67.9473 42.248 67.9473 40.94C67.9473 39.572 68.5233 38.72 69.6033 38.72ZM78.8035 37.892H77.6275V41.084C77.6275 42.56 77.2195 43.136 76.1635 43.136C75.2035 43.136 74.9635 42.428 74.9635 41.648V37.892H73.7875V41.9C73.7875 43.58 74.7355 44.144 75.8155 44.144C76.7395 44.144 77.3155 43.784 77.6275 43.124C77.6275 43.472 77.6395 43.844 77.6635 44H78.8155C78.8155 43.604 78.8035 42.812 78.8035 42.224V37.892ZM80.5498 44H81.7258V41.096C81.7258 39.524 82.5178 38.936 83.7658 38.912V37.748C82.7458 37.772 82.0378 38.3 81.7258 39.104C81.7258 38.564 81.7138 38.06 81.6898 37.892H80.5378C80.5378 38.252 80.5498 38.744 80.5498 39.548V44ZM92.5298 39.764C92.5298 38.372 91.7018 37.748 90.1778 37.748C88.4018 37.736 87.8498 38.696 87.7658 39.584H88.9058C89.0018 39.116 89.1698 38.648 90.1418 38.648C91.2098 38.648 91.3778 39.26 91.3778 39.776V40.268H90.3698C88.5578 40.268 87.4778 40.904 87.4778 42.272C87.4778 43.196 88.0898 44.144 89.5418 44.144C90.7058 44.144 91.1858 43.64 91.3898 43.244C91.4138 43.568 91.4498 43.868 91.4978 44H92.6138C92.5778 43.832 92.5298 43.184 92.5298 42.62V39.764ZM91.3898 41.252C91.3898 42.296 91.1978 43.244 89.8058 43.244C89.0858 43.244 88.6778 42.8 88.6778 42.2C88.6778 41.396 89.2778 41.06 90.4538 41.06H91.3898V41.252ZM98.0399 42.116C97.8119 42.788 97.3919 43.184 96.6599 43.184C95.6639 43.184 95.0999 42.308 95.0999 40.94C95.0999 39.596 95.6759 38.72 96.6959 38.72C97.5359 38.72 97.9079 39.212 98.0399 39.812H99.2039C99.1319 39.044 98.5319 37.748 96.7199 37.748C94.8839 37.748 93.8879 39.236 93.8879 40.976C93.8879 42.908 94.9199 44.144 96.6359 44.144C98.2439 44.144 98.9519 43.16 99.2039 42.116H98.0399ZM104.239 42.116C104.011 42.788 103.591 43.184 102.859 43.184C101.863 43.184 101.299 42.308 101.299 40.94C101.299 39.596 101.875 38.72 102.895 38.72C103.735 38.72 104.107 39.212 104.239 39.812H105.403C105.331 39.044 104.731 37.748 102.919 37.748C101.083 37.748 100.087 39.236 100.087 40.976C100.087 42.908 101.119 44.144 102.835 44.144C104.443 44.144 105.151 43.16 105.403 42.116H104.239ZM109.19 37.748C107.33 37.748 106.274 39.14 106.274 40.952C106.274 42.788 107.342 44.144 109.118 44.144C111.002 44.144 112.022 42.716 112.022 40.928C112.022 39.02 110.906 37.748 109.19 37.748ZM109.142 38.72C110.222 38.72 110.822 39.596 110.822 40.952C110.822 42.296 110.222 43.172 109.166 43.172C108.122 43.172 107.486 42.248 107.486 40.94C107.486 39.572 108.062 38.72 109.142 38.72ZM118.343 37.892H117.167V41.084C117.167 42.56 116.759 43.136 115.703 43.136C114.743 43.136 114.503 42.428 114.503 41.648V37.892H113.327V41.9C113.327 43.58 114.275 44.144 115.355 44.144C116.279 44.144 116.855 43.784 117.167 43.124C117.167 43.472 117.179 43.844 117.203 44H118.355C118.355 43.604 118.343 42.812 118.343 42.224V37.892ZM120.089 44H121.277V40.736C121.277 39.536 121.721 38.744 122.789 38.744C123.689 38.744 124.025 39.344 124.025 40.22V44H125.201V40.076C125.201 38.468 124.325 37.748 123.161 37.748C122.009 37.748 121.505 38.348 121.277 38.852C121.277 38.672 121.253 38.072 121.229 37.892H120.077C120.089 38.36 120.089 38.9 120.089 39.428V44ZM126.118 38.828H127.15V42.536C127.15 43.568 127.558 44.084 128.566 44.084C128.866 44.084 129.238 44.072 129.514 43.976V43.1C129.358 43.148 129.154 43.148 129.01 43.148C128.47 43.148 128.326 42.872 128.326 42.296V38.828H129.646V37.892H128.326V36.116H127.15V37.892H126.118V38.828ZM138.444 39.764C138.444 38.372 137.616 37.748 136.092 37.748C134.316 37.736 133.764 38.696 133.68 39.584H134.82C134.916 39.116 135.084 38.648 136.056 38.648C137.124 38.648 137.292 39.26 137.292 39.776V40.268H136.284C134.472 40.268 133.392 40.904 133.392 42.272C133.392 43.196 134.004 44.144 135.456 44.144C136.62 44.144 137.1 43.64 137.304 43.244C137.328 43.568 137.364 43.868 137.412 44H138.528C138.492 43.832 138.444 43.184 138.444 42.62V39.764ZM137.304 41.252C137.304 42.296 137.112 43.244 135.72 43.244C135 43.244 134.592 42.8 134.592 42.2C134.592 41.396 135.192 41.06 136.368 41.06H137.304V41.252ZM140.21 44H141.398V40.736C141.398 39.536 141.842 38.744 142.91 38.744C143.81 38.744 144.146 39.344 144.146 40.22V44H145.322V40.076C145.322 38.468 144.446 37.748 143.282 37.748C142.13 37.748 141.626 38.348 141.398 38.852C141.398 38.672 141.374 38.072 141.35 37.892H140.198C140.21 38.36 140.21 38.9 140.21 39.428V44ZM151.073 35.204V38.492C150.905 38.156 150.425 37.748 149.393 37.748C147.689 37.748 146.645 39.128 146.645 41.012C146.645 42.872 147.617 44.144 149.189 44.144C150.173 44.144 150.773 43.784 151.073 43.172C151.073 43.4 151.097 43.832 151.121 44H152.261C152.249 43.412 152.249 42.848 152.249 42.284V35.204H151.073ZM147.869 40.976C147.869 39.548 148.493 38.732 149.537 38.732C150.857 38.732 151.109 39.572 151.109 40.868C151.109 42.128 150.833 43.16 149.453 43.16C148.529 43.16 147.869 42.392 147.869 40.976ZM156.487 42.236C156.643 43.328 157.411 44.144 159.043 44.144C160.639 44.144 161.467 43.34 161.467 42.272C161.467 41.372 161.119 40.736 159.223 40.292C158.131 40.028 157.891 39.824 157.891 39.392C157.891 39.02 158.131 38.636 158.935 38.636C159.847 38.636 160.111 39.164 160.195 39.524H161.323C161.251 38.684 160.615 37.748 158.983 37.748C157.363 37.748 156.727 38.624 156.727 39.488C156.727 40.328 157.075 40.88 158.875 41.312C159.979 41.588 160.255 41.828 160.255 42.368C160.255 42.884 159.931 43.232 159.091 43.232C158.299 43.232 157.819 42.872 157.663 42.236H156.487ZM161.989 38.828H163.021V42.536C163.021 43.568 163.429 44.084 164.437 44.084C164.737 44.084 165.109 44.072 165.385 43.976V43.1C165.229 43.148 165.025 43.148 164.881 43.148C164.341 43.148 164.197 42.872 164.197 42.296V38.828H165.517V37.892H164.197V36.116H163.021V37.892H161.989V38.828ZM171.268 39.764C171.268 38.372 170.44 37.748 168.916 37.748C167.14 37.736 166.588 38.696 166.504 39.584H167.644C167.74 39.116 167.908 38.648 168.88 38.648C169.948 38.648 170.116 39.26 170.116 39.776V40.268H169.108C167.296 40.268 166.216 40.904 166.216 42.272C166.216 43.196 166.828 44.144 168.28 44.144C169.444 44.144 169.924 43.64 170.128 43.244C170.152 43.568 170.188 43.868 170.236 44H171.352C171.316 43.832 171.268 43.184 171.268 42.62V39.764ZM170.128 41.252C170.128 42.296 169.936 43.244 168.544 43.244C167.824 43.244 167.416 42.8 167.416 42.2C167.416 41.396 168.016 41.06 169.192 41.06H170.128V41.252ZM173.034 44H174.21V41.096C174.21 39.524 175.002 38.936 176.25 38.912V37.748C175.23 37.772 174.522 38.3 174.21 39.104C174.21 38.564 174.198 38.06 174.174 37.892H173.022C173.022 38.252 173.034 38.744 173.034 39.548V44ZM176.931 38.828H177.963V42.536C177.963 43.568 178.371 44.084 179.379 44.084C179.679 44.084 180.051 44.072 180.327 43.976V43.1C180.171 43.148 179.967 43.148 179.823 43.148C179.283 43.148 179.139 42.872 179.139 42.296V38.828H180.459V37.892H179.139V36.116H177.963V37.892H176.931V38.828ZM184.612 41.96C184.612 42.632 184.612 43.316 184.6 44H185.728C185.752 43.832 185.776 43.532 185.776 43.232C186.088 43.796 186.568 44.144 187.54 44.144C189.268 44.144 190.192 42.656 190.192 40.82C190.192 39.032 189.256 37.748 187.696 37.748C186.616 37.748 186.064 38.228 185.788 38.72V35.204H184.612V41.96ZM188.992 40.844C188.992 42.272 188.392 43.16 187.36 43.16C186.112 43.16 185.728 42.188 185.728 40.964C185.728 39.56 186.172 38.732 187.396 38.732C188.428 38.732 188.992 39.584 188.992 40.844ZM196.518 37.892H195.342V41.084C195.342 42.56 194.934 43.136 193.878 43.136C192.918 43.136 192.678 42.428 192.678 41.648V37.892H191.502V41.9C191.502 43.58 192.45 44.144 193.53 44.144C194.454 44.144 195.03 43.784 195.342 43.124C195.342 43.472 195.354 43.844 195.378 44H196.53C196.53 43.604 196.518 42.812 196.518 42.224V37.892ZM198.265 44H199.441V37.892H198.265V44ZM199.441 36.56V35.204H198.265V36.56H199.441ZM202.37 44V35.204H201.194V44H202.37ZM208.132 35.204V38.492C207.964 38.156 207.484 37.748 206.452 37.748C204.748 37.748 203.704 39.128 203.704 41.012C203.704 42.872 204.676 44.144 206.248 44.144C207.232 44.144 207.832 43.784 208.132 43.172C208.132 43.4 208.156 43.832 208.18 44H209.32C209.308 43.412 209.308 42.848 209.308 42.284V35.204H208.132ZM204.928 40.976C204.928 39.548 205.552 38.732 206.596 38.732C207.916 38.732 208.168 39.572 208.168 40.868C208.168 42.128 207.892 43.16 206.512 43.16C205.588 43.16 204.928 42.392 204.928 40.976ZM211.05 44H212.226V37.892H211.05V44ZM212.226 36.56V35.204H211.05V36.56H212.226ZM213.98 44H215.168V40.736C215.168 39.536 215.612 38.744 216.68 38.744C217.58 38.744 217.916 39.344 217.916 40.22V44H219.092V40.076C219.092 38.468 218.216 37.748 217.052 37.748C215.9 37.748 215.396 38.348 215.168 38.852C215.168 38.672 215.144 38.072 215.12 37.892H213.968C213.98 38.36 213.98 38.9 213.98 39.428V44ZM225.971 39.656C225.971 39.068 225.983 38.276 225.983 37.892H224.867C224.855 38.012 224.831 38.408 224.819 38.672C224.687 38.288 224.207 37.748 223.067 37.748C221.579 37.748 220.415 38.984 220.415 40.952C220.415 42.716 221.423 43.964 222.947 43.964C223.943 43.964 224.495 43.58 224.819 42.932V43.388C224.819 44.756 224.507 45.596 223.175 45.596C222.407 45.596 221.915 45.248 221.747 44.624H220.547C220.655 45.428 221.195 46.508 223.115 46.508C225.179 46.508 225.971 45.368 225.971 43.412V39.656ZM221.639 40.904C221.639 39.608 222.215 38.732 223.271 38.732C224.531 38.732 224.855 39.524 224.855 40.832C224.855 42.128 224.495 42.968 223.235 42.968C222.275 42.968 221.639 42.152 221.639 40.904ZM235.37 39.764C235.37 38.372 234.542 37.748 233.018 37.748C231.242 37.736 230.69 38.696 230.606 39.584H231.746C231.842 39.116 232.01 38.648 232.982 38.648C234.05 38.648 234.218 39.26 234.218 39.776V40.268H233.21C231.398 40.268 230.318 40.904 230.318 42.272C230.318 43.196 230.93 44.144 232.382 44.144C233.546 44.144 234.026 43.64 234.23 43.244C234.254 43.568 234.29 43.868 234.338 44H235.454C235.418 43.832 235.37 43.184 235.37 42.62V39.764ZM234.23 41.252C234.23 42.296 234.038 43.244 232.646 43.244C231.926 43.244 231.518 42.8 231.518 42.2C231.518 41.396 232.118 41.06 233.294 41.06H234.23V41.252ZM239.403 38.828H240.435V42.536C240.435 43.568 240.843 44.084 241.851 44.084C242.151 44.084 242.523 44.072 242.799 43.976V43.1C242.643 43.148 242.439 43.148 242.295 43.148C241.755 43.148 241.611 42.872 241.611 42.296V38.828H242.931V37.892H241.611V36.116H240.435V37.892H239.403V38.828ZM244.015 35.204V44H245.191V40.676C245.191 39.476 245.623 38.744 246.691 38.744C247.543 38.744 247.951 39.296 247.951 40.292V44H249.127V40.1C249.127 38.312 248.083 37.748 247.063 37.748C246.043 37.748 245.491 38.252 245.191 38.756V35.204H244.015ZM250.882 44H252.058V41.096C252.058 39.524 252.85 38.936 254.098 38.912V37.748C253.078 37.772 252.37 38.3 252.058 39.104C252.058 38.564 252.046 38.06 252.022 37.892H250.87C250.87 38.252 250.882 38.744 250.882 39.548V44ZM255.136 44H256.312V37.892H255.136V44ZM256.312 36.56V35.204H255.136V36.56H256.312ZM257.368 37.892L259.492 44H260.764L262.996 37.892H261.808C260.968 40.34 260.32 42.176 260.176 42.92H260.164C259.984 42.164 259.408 40.304 258.628 37.892H257.368ZM264.042 44H265.218V37.892H264.042V44ZM265.218 36.56V35.204H264.042V36.56H265.218ZM266.972 44H268.16V40.736C268.16 39.536 268.604 38.744 269.672 38.744C270.572 38.744 270.908 39.344 270.908 40.22V44H272.084V40.076C272.084 38.468 271.208 37.748 270.044 37.748C268.892 37.748 268.388 38.348 268.16 38.852C268.16 38.672 268.136 38.072 268.112 37.892H266.96C266.972 38.36 266.972 38.9 266.972 39.428V44ZM278.963 39.656C278.963 39.068 278.975 38.276 278.975 37.892H277.859C277.847 38.012 277.823 38.408 277.811 38.672C277.679 38.288 277.199 37.748 276.059 37.748C274.571 37.748 273.407 38.984 273.407 40.952C273.407 42.716 274.415 43.964 275.939 43.964C276.935 43.964 277.487 43.58 277.811 42.932V43.388C277.811 44.756 277.499 45.596 276.167 45.596C275.399 45.596 274.907 45.248 274.739 44.624H273.539C273.647 45.428 274.187 46.508 276.107 46.508C278.171 46.508 278.963 45.368 278.963 43.412V39.656ZM274.631 40.904C274.631 39.608 275.207 38.732 276.263 38.732C277.523 38.732 277.847 39.524 277.847 40.832C277.847 42.128 277.487 42.968 276.227 42.968C275.267 42.968 274.631 42.152 274.631 40.904ZM126.921 59.96C126.921 60.632 126.921 61.316 126.909 62H128.037C128.061 61.832 128.085 61.532 128.085 61.232C128.397 61.796 128.877 62.144 129.849 62.144C131.577 62.144 132.501 60.656 132.501 58.82C132.501 57.032 131.565 55.748 130.005 55.748C128.925 55.748 128.373 56.228 128.097 56.72V53.204H126.921V59.96ZM131.301 58.844C131.301 60.272 130.701 61.16 129.669 61.16C128.421 61.16 128.037 60.188 128.037 58.964C128.037 57.56 128.481 56.732 129.705 56.732C130.737 56.732 131.301 57.584 131.301 58.844ZM138.827 55.892H137.651V59.084C137.651 60.56 137.243 61.136 136.187 61.136C135.227 61.136 134.987 60.428 134.987 59.648V55.892H133.811V59.9C133.811 61.58 134.759 62.144 135.839 62.144C136.763 62.144 137.339 61.784 137.651 61.124C137.651 61.472 137.663 61.844 137.687 62H138.839C138.839 61.604 138.827 60.812 138.827 60.224V55.892ZM139.975 60.236C140.131 61.328 140.899 62.144 142.531 62.144C144.127 62.144 144.955 61.34 144.955 60.272C144.955 59.372 144.607 58.736 142.711 58.292C141.619 58.028 141.379 57.824 141.379 57.392C141.379 57.02 141.619 56.636 142.423 56.636C143.335 56.636 143.599 57.164 143.683 57.524H144.811C144.739 56.684 144.103 55.748 142.471 55.748C140.851 55.748 140.215 56.624 140.215 57.488C140.215 58.328 140.563 58.88 142.363 59.312C143.467 59.588 143.743 59.828 143.743 60.368C143.743 60.884 143.419 61.232 142.579 61.232C141.787 61.232 141.307 60.872 141.151 60.236H139.975ZM146.269 62H147.445V55.892H146.269V62ZM147.445 54.56V53.204H146.269V54.56H147.445ZM149.198 62H150.386V58.736C150.386 57.536 150.83 56.744 151.898 56.744C152.798 56.744 153.134 57.344 153.134 58.22V62H154.31V58.076C154.31 56.468 153.434 55.748 152.27 55.748C151.118 55.748 150.614 56.348 150.386 56.852C150.386 56.672 150.362 56.072 150.338 55.892H149.186C149.198 56.36 149.198 56.9 149.198 57.428V62ZM161.07 59.168C161.094 59 161.094 58.856 161.094 58.664C161.094 57.32 160.434 55.748 158.442 55.748C156.558 55.748 155.634 57.176 155.634 59.012C155.634 60.596 156.438 62.144 158.37 62.144C160.098 62.144 160.746 61.064 160.986 60.284H159.798C159.618 60.716 159.318 61.172 158.406 61.172C157.41 61.172 156.834 60.32 156.822 59.168H161.07ZM156.858 58.364C156.954 57.368 157.398 56.66 158.43 56.66C159.426 56.66 159.894 57.416 159.906 58.364H156.858ZM161.971 60.236C162.127 61.328 162.895 62.144 164.527 62.144C166.123 62.144 166.951 61.34 166.951 60.272C166.951 59.372 166.603 58.736 164.707 58.292C163.615 58.028 163.375 57.824 163.375 57.392C163.375 57.02 163.615 56.636 164.419 56.636C165.331 56.636 165.595 57.164 165.679 57.524H166.807C166.735 56.684 166.099 55.748 164.467 55.748C162.847 55.748 162.211 56.624 162.211 57.488C162.211 58.328 162.559 58.88 164.359 59.312C165.463 59.588 165.739 59.828 165.739 60.368C165.739 60.884 165.415 61.232 164.575 61.232C163.783 61.232 163.303 60.872 163.147 60.236H161.971ZM167.819 60.236C167.975 61.328 168.743 62.144 170.375 62.144C171.971 62.144 172.799 61.34 172.799 60.272C172.799 59.372 172.451 58.736 170.555 58.292C169.463 58.028 169.223 57.824 169.223 57.392C169.223 57.02 169.463 56.636 170.267 56.636C171.179 56.636 171.443 57.164 171.527 57.524H172.655C172.583 56.684 171.947 55.748 170.315 55.748C168.695 55.748 168.059 56.624 168.059 57.488C168.059 58.328 168.407 58.88 170.207 59.312C171.311 59.588 171.587 59.828 171.587 60.368C171.587 60.884 171.263 61.232 170.423 61.232C169.631 61.232 169.151 60.872 168.995 60.236H167.819ZM175.308 62V60.164H174.06V62H175.308Z" fill="#1A1A1A"/>
<path d="M28.6979 41.6C28.4099 42.344 27.8819 43.088 26.6219 43.088C24.7619 43.088 24.0899 41.42 24.0899 39.824C24.0899 38.168 24.7979 36.56 26.5739 36.56C27.8579 36.56 28.4219 37.232 28.6979 38.096H29.9339C29.7059 36.704 28.6379 35.54 26.6219 35.54C24.0539 35.54 22.7939 37.592 22.7939 39.86C22.7939 42.224 24.0539 44.108 26.5739 44.108C28.4939 44.108 29.5739 43.04 29.9339 41.6H28.6979ZM31.2022 44H32.3782V41.096C32.3782 39.524 33.1702 38.936 34.4182 38.912V37.748C33.3982 37.772 32.6902 38.3 32.3782 39.104C32.3782 38.564 32.3662 38.06 32.3422 37.892H31.1902C31.1902 38.252 31.2022 38.744 31.2022 39.548V44ZM40.4486 41.168C40.4726 41 40.4726 40.856 40.4726 40.664C40.4726 39.32 39.8126 37.748 37.8206 37.748C35.9366 37.748 35.0126 39.176 35.0126 41.012C35.0126 42.596 35.8166 44.144 37.7486 44.144C39.4766 44.144 40.1246 43.064 40.3646 42.284H39.1766C38.9966 42.716 38.6966 43.172 37.7846 43.172C36.7886 43.172 36.2126 42.32 36.2006 41.168H40.4486ZM36.2366 40.364C36.3326 39.368 36.7766 38.66 37.8086 38.66C38.8046 38.66 39.2726 39.416 39.2846 40.364H36.2366ZM46.4282 39.764C46.4282 38.372 45.6002 37.748 44.0762 37.748C42.3002 37.736 41.7482 38.696 41.6642 39.584H42.8042C42.9002 39.116 43.0682 38.648 44.0402 38.648C45.1082 38.648 45.2762 39.26 45.2762 39.776V40.268H44.2682C42.4562 40.268 41.3762 40.904 41.3762 42.272C41.3762 43.196 41.9882 44.144 43.4402 44.144C44.6042 44.144 45.0842 43.64 45.2882 43.244C45.3122 43.568 45.3482 43.868 45.3962 44H46.5122C46.4762 43.832 46.4282 43.184 46.4282 42.62V39.764ZM45.2882 41.252C45.2882 42.296 45.0962 43.244 43.7042 43.244C42.9842 43.244 42.5762 42.8 42.5762 42.2C42.5762 41.396 43.1762 41.06 44.3522 41.06H45.2882V41.252ZM47.3566 38.828H48.3886V42.536C48.3886 43.568 48.7966 44.084 49.8046 44.084C50.1046 44.084 50.4766 44.072 50.7526 43.976V43.1C50.5966 43.148 50.3926 43.148 50.2486 43.148C49.7086 43.148 49.5646 42.872 49.5646 42.296V38.828H50.8846V37.892H49.5646V36.116H48.3886V37.892H47.3566V38.828ZM56.9486 41.168C56.9726 41 56.9726 40.856 56.9726 40.664C56.9726 39.32 56.3126 37.748 54.3206 37.748C52.4366 37.748 51.5126 39.176 51.5126 41.012C51.5126 42.596 52.3166 44.144 54.2486 44.144C55.9766 44.144 56.6246 43.064 56.8646 42.284H55.6766C55.4966 42.716 55.1966 43.172 54.2846 43.172C53.2886 43.172 52.7126 42.32 52.7006 41.168H56.9486ZM52.7366 40.364C52.8326 39.368 53.2766 38.66 54.3086 38.66C55.3046 38.66 55.7726 39.416 55.7846 40.364H52.7366ZM60.5279 37.892L62.8079 44.228C62.4719 45.176 62.1719 45.5 61.4279 45.5C61.2719 45.5 61.0919 45.488 60.9359 45.464V46.472C61.1879 46.496 61.4399 46.508 61.6199 46.508C62.9159 46.508 63.3839 46.04 63.9959 44.264L66.1679 37.892H64.9799C64.0319 40.868 63.6119 42.26 63.4319 42.944H63.4199C63.2639 42.332 62.7239 40.652 61.7999 37.892H60.5279ZM69.6513 37.748C67.7913 37.748 66.7353 39.14 66.7353 40.952C66.7353 42.788 67.8033 44.144 69.5793 44.144C71.4633 44.144 72.4833 42.716 72.4833 40.928C72.4833 39.02 71.3673 37.748 69.6513 37.748ZM69.6033 38.72C70.6833 38.72 71.2833 39.596 71.2833 40.952C71.2833 42.296 70.6833 43.172 69.6273 43.172C68.5833 43.172 67.9473 42.248 67.9473 40.94C67.9473 39.572 68.5233 38.72 69.6033 38.72ZM78.8035 37.892H77.6275V41.084C77.6275 42.56 77.2195 43.136 76.1635 43.136C75.2035 43.136 74.9635 42.428 74.9635 41.648V37.892H73.7875V41.9C73.7875 43.58 74.7355 44.144 75.8155 44.144C76.7395 44.144 77.3155 43.784 77.6275 43.124C77.6275 43.472 77.6395 43.844 77.6635 44H78.8155C78.8155 43.604 78.8035 42.812 78.8035 42.224V37.892ZM80.5498 44H81.7258V41.096C81.7258 39.524 82.5178 38.936 83.7658 38.912V37.748C82.7458 37.772 82.0378 38.3 81.7258 39.104C81.7258 38.564 81.7138 38.06 81.6898 37.892H80.5378C80.5378 38.252 80.5498 38.744 80.5498 39.548V44ZM92.5298 39.764C92.5298 38.372 91.7018 37.748 90.1778 37.748C88.4018 37.736 87.8498 38.696 87.7658 39.584H88.9058C89.0018 39.116 89.1698 38.648 90.1418 38.648C91.2098 38.648 91.3778 39.26 91.3778 39.776V40.268H90.3698C88.5578 40.268 87.4778 40.904 87.4778 42.272C87.4778 43.196 88.0898 44.144 89.5418 44.144C90.7058 44.144 91.1858 43.64 91.3898 43.244C91.4138 43.568 91.4498 43.868 91.4978 44H92.6138C92.5778 43.832 92.5298 43.184 92.5298 42.62V39.764ZM91.3898 41.252C91.3898 42.296 91.1978 43.244 89.8058 43.244C89.0858 43.244 88.6778 42.8 88.6778 42.2C88.6778 41.396 89.2778 41.06 90.4538 41.06H91.3898V41.252ZM98.0399 42.116C97.8119 42.788 97.3919 43.184 96.6599 43.184C95.6639 43.184 95.0999 42.308 95.0999 40.94C95.0999 39.596 95.6759 38.72 96.6959 38.72C97.5359 38.72 97.9079 39.212 98.0399 39.812H99.2039C99.1319 39.044 98.5319 37.748 96.7199 37.748C94.8839 37.748 93.8879 39.236 93.8879 40.976C93.8879 42.908 94.9199 44.144 96.6359 44.144C98.2439 44.144 98.9519 43.16 99.2039 42.116H98.0399ZM104.239 42.116C104.011 42.788 103.591 43.184 102.859 43.184C101.863 43.184 101.299 42.308 101.299 40.94C101.299 39.596 101.875 38.72 102.895 38.72C103.735 38.72 104.107 39.212 104.239 39.812H105.403C105.331 39.044 104.731 37.748 102.919 37.748C101.083 37.748 100.087 39.236 100.087 40.976C100.087 42.908 101.119 44.144 102.835 44.144C104.443 44.144 105.151 43.16 105.403 42.116H104.239ZM109.19 37.748C107.33 37.748 106.274 39.14 106.274 40.952C106.274 42.788 107.342 44.144 109.118 44.144C111.002 44.144 112.022 42.716 112.022 40.928C112.022 39.02 110.906 37.748 109.19 37.748ZM109.142 38.72C110.222 38.72 110.822 39.596 110.822 40.952C110.822 42.296 110.222 43.172 109.166 43.172C108.122 43.172 107.486 42.248 107.486 40.94C107.486 39.572 108.062 38.72 109.142 38.72ZM118.343 37.892H117.167V41.084C117.167 42.56 116.759 43.136 115.703 43.136C114.743 43.136 114.503 42.428 114.503 41.648V37.892H113.327V41.9C113.327 43.58 114.275 44.144 115.355 44.144C116.279 44.144 116.855 43.784 117.167 43.124C117.167 43.472 117.179 43.844 117.203 44H118.355C118.355 43.604 118.343 42.812 118.343 42.224V37.892ZM120.089 44H121.277V40.736C121.277 39.536 121.721 38.744 122.789 38.744C123.689 38.744 124.025 39.344 124.025 40.22V44H125.201V40.076C125.201 38.468 124.325 37.748 123.161 37.748C122.009 37.748 121.505 38.348 121.277 38.852C121.277 38.672 121.253 38.072 121.229 37.892H120.077C120.089 38.36 120.089 38.9 120.089 39.428V44ZM126.118 38.828H127.15V42.536C127.15 43.568 127.558 44.084 128.566 44.084C128.866 44.084 129.238 44.072 129.514 43.976V43.1C129.358 43.148 129.154 43.148 129.01 43.148C128.47 43.148 128.326 42.872 128.326 42.296V38.828H129.646V37.892H128.326V36.116H127.15V37.892H126.118V38.828ZM138.444 39.764C138.444 38.372 137.616 37.748 136.092 37.748C134.316 37.736 133.764 38.696 133.68 39.584H134.82C134.916 39.116 135.084 38.648 136.056 38.648C137.124 38.648 137.292 39.26 137.292 39.776V40.268H136.284C134.472 40.268 133.392 40.904 133.392 42.272C133.392 43.196 134.004 44.144 135.456 44.144C136.62 44.144 137.1 43.64 137.304 43.244C137.328 43.568 137.364 43.868 137.412 44H138.528C138.492 43.832 138.444 43.184 138.444 42.62V39.764ZM137.304 41.252C137.304 42.296 137.112 43.244 135.72 43.244C135 43.244 134.592 42.8 134.592 42.2C134.592 41.396 135.192 41.06 136.368 41.06H137.304V41.252ZM140.21 44H141.398V40.736C141.398 39.536 141.842 38.744 142.91 38.744C143.81 38.744 144.146 39.344 144.146 40.22V44H145.322V40.076C145.322 38.468 144.446 37.748 143.282 37.748C142.13 37.748 141.626 38.348 141.398 38.852C141.398 38.672 141.374 38.072 141.35 37.892H140.198C140.21 38.36 140.21 38.9 140.21 39.428V44ZM151.073 35.204V38.492C150.905 38.156 150.425 37.748 149.393 37.748C147.689 37.748 146.645 39.128 146.645 41.012C146.645 42.872 147.617 44.144 149.189 44.144C150.173 44.144 150.773 43.784 151.073 43.172C151.073 43.4 151.097 43.832 151.121 44H152.261C152.249 43.412 152.249 42.848 152.249 42.284V35.204H151.073ZM147.869 40.976C147.869 39.548 148.493 38.732 149.537 38.732C150.857 38.732 151.109 39.572 151.109 40.868C151.109 42.128 150.833 43.16 149.453 43.16C148.529 43.16 147.869 42.392 147.869 40.976ZM156.487 42.236C156.643 43.328 157.411 44.144 159.043 44.144C160.639 44.144 161.467 43.34 161.467 42.272C161.467 41.372 161.119 40.736 159.223 40.292C158.131 40.028 157.891 39.824 157.891 39.392C157.891 39.02 158.131 38.636 158.935 38.636C159.847 38.636 160.111 39.164 160.195 39.524H161.323C161.251 38.684 160.615 37.748 158.983 37.748C157.363 37.748 156.727 38.624 156.727 39.488C156.727 40.328 157.075 40.88 158.875 41.312C159.979 41.588 160.255 41.828 160.255 42.368C160.255 42.884 159.931 43.232 159.091 43.232C158.299 43.232 157.819 42.872 157.663 42.236H156.487ZM161.989 38.828H163.021V42.536C163.021 43.568 163.429 44.084 164.437 44.084C164.737 44.084 165.109 44.072 165.385 43.976V43.1C165.229 43.148 165.025 43.148 164.881 43.148C164.341 43.148 164.197 42.872 164.197 42.296V38.828H165.517V37.892H164.197V36.116H163.021V37.892H161.989V38.828ZM171.268 39.764C171.268 38.372 170.44 37.748 168.916 37.748C167.14 37.736 166.588 38.696 166.504 39.584H167.644C167.74 39.116 167.908 38.648 168.88 38.648C169.948 38.648 170.116 39.26 170.116 39.776V40.268H169.108C167.296 40.268 166.216 40.904 166.216 42.272C166.216 43.196 166.828 44.144 168.28 44.144C169.444 44.144 169.924 43.64 170.128 43.244C170.152 43.568 170.188 43.868 170.236 44H171.352C171.316 43.832 171.268 43.184 171.268 42.62V39.764ZM170.128 41.252C170.128 42.296 169.936 43.244 168.544 43.244C167.824 43.244 167.416 42.8 167.416 42.2C167.416 41.396 168.016 41.06 169.192 41.06H170.128V41.252ZM173.034 44H174.21V41.096C174.21 39.524 175.002 38.936 176.25 38.912V37.748C175.23 37.772 174.522 38.3 174.21 39.104C174.21 38.564 174.198 38.06 174.174 37.892H173.022C173.022 38.252 173.034 38.744 173.034 39.548V44ZM176.931 38.828H177.963V42.536C177.963 43.568 178.371 44.084 179.379 44.084C179.679 44.084 180.051 44.072 180.327 43.976V43.1C180.171 43.148 179.967 43.148 179.823 43.148C179.283 43.148 179.139 42.872 179.139 42.296V38.828H180.459V37.892H179.139V36.116H177.963V37.892H176.931V38.828ZM184.612 41.96C184.612 42.632 184.612 43.316 184.6 44H185.728C185.752 43.832 185.776 43.532 185.776 43.232C186.088 43.796 186.568 44.144 187.54 44.144C189.268 44.144 190.192 42.656 190.192 40.82C190.192 39.032 189.256 37.748 187.696 37.748C186.616 37.748 186.064 38.228 185.788 38.72V35.204H184.612V41.96ZM188.992 40.844C188.992 42.272 188.392 43.16 187.36 43.16C186.112 43.16 185.728 42.188 185.728 40.964C185.728 39.56 186.172 38.732 187.396 38.732C188.428 38.732 188.992 39.584 188.992 40.844ZM196.518 37.892H195.342V41.084C195.342 42.56 194.934 43.136 193.878 43.136C192.918 43.136 192.678 42.428 192.678 41.648V37.892H191.502V41.9C191.502 43.58 192.45 44.144 193.53 44.144C194.454 44.144 195.03 43.784 195.342 43.124C195.342 43.472 195.354 43.844 195.378 44H196.53C196.53 43.604 196.518 42.812 196.518 42.224V37.892ZM198.265 44H199.441V37.892H198.265V44ZM199.441 36.56V35.204H198.265V36.56H199.441ZM202.37 44V35.204H201.194V44H202.37ZM208.132 35.204V38.492C207.964 38.156 207.484 37.748 206.452 37.748C204.748 37.748 203.704 39.128 203.704 41.012C203.704 42.872 204.676 44.144 206.248 44.144C207.232 44.144 207.832 43.784 208.132 43.172C208.132 43.4 208.156 43.832 208.18 44H209.32C209.308 43.412 209.308 42.848 209.308 42.284V35.204H208.132ZM204.928 40.976C204.928 39.548 205.552 38.732 206.596 38.732C207.916 38.732 208.168 39.572 208.168 40.868C208.168 42.128 207.892 43.16 206.512 43.16C205.588 43.16 204.928 42.392 204.928 40.976ZM211.05 44H212.226V37.892H211.05V44ZM212.226 36.56V35.204H211.05V36.56H212.226ZM213.98 44H215.168V40.736C215.168 39.536 215.612 38.744 216.68 38.744C217.58 38.744 217.916 39.344 217.916 40.22V44H219.092V40.076C219.092 38.468 218.216 37.748 217.052 37.748C215.9 37.748 215.396 38.348 215.168 38.852C215.168 38.672 215.144 38.072 215.12 37.892H213.968C213.98 38.36 213.98 38.9 213.98 39.428V44ZM225.971 39.656C225.971 39.068 225.983 38.276 225.983 37.892H224.867C224.855 38.012 224.831 38.408 224.819 38.672C224.687 38.288 224.207 37.748 223.067 37.748C221.579 37.748 220.415 38.984 220.415 40.952C220.415 42.716 221.423 43.964 222.947 43.964C223.943 43.964 224.495 43.58 224.819 42.932V43.388C224.819 44.756 224.507 45.596 223.175 45.596C222.407 45.596 221.915 45.248 221.747 44.624H220.547C220.655 45.428 221.195 46.508 223.115 46.508C225.179 46.508 225.971 45.368 225.971 43.412V39.656ZM221.639 40.904C221.639 39.608 222.215 38.732 223.271 38.732C224.531 38.732 224.855 39.524 224.855 40.832C224.855 42.128 224.495 42.968 223.235 42.968C222.275 42.968 221.639 42.152 221.639 40.904ZM235.37 39.764C235.37 38.372 234.542 37.748 233.018 37.748C231.242 37.736 230.69 38.696 230.606 39.584H231.746C231.842 39.116 232.01 38.648 232.982 38.648C234.05 38.648 234.218 39.26 234.218 39.776V40.268H233.21C231.398 40.268 230.318 40.904 230.318 42.272C230.318 43.196 230.93 44.144 232.382 44.144C233.546 44.144 234.026 43.64 234.23 43.244C234.254 43.568 234.29 43.868 234.338 44H235.454C235.418 43.832 235.37 43.184 235.37 42.62V39.764ZM234.23 41.252C234.23 42.296 234.038 43.244 232.646 43.244C231.926 43.244 231.518 42.8 231.518 42.2C231.518 41.396 232.118 41.06 233.294 41.06H234.23V41.252ZM239.403 38.828H240.435V42.536C240.435 43.568 240.843 44.084 241.851 44.084C242.151 44.084 242.523 44.072 242.799 43.976V43.1C242.643 43.148 242.439 43.148 242.295 43.148C241.755 43.148 241.611 42.872 241.611 42.296V38.828H242.931V37.892H241.611V36.116H240.435V37.892H239.403V38.828ZM244.015 35.204V44H245.191V40.676C245.191 39.476 245.623 38.744 246.691 38.744C247.543 38.744 247.951 39.296 247.951 40.292V44H249.127V40.1C249.127 38.312 248.083 37.748 247.063 37.748C246.043 37.748 245.491 38.252 245.191 38.756V35.204H244.015ZM250.882 44H252.058V41.096C252.058 39.524 252.85 38.936 254.098 38.912V37.748C253.078 37.772 252.37 38.3 252.058 39.104C252.058 38.564 252.046 38.06 252.022 37.892H250.87C250.87 38.252 250.882 38.744 250.882 39.548V44ZM255.136 44H256.312V37.892H255.136V44ZM256.312 36.56V35.204H255.136V36.56H256.312ZM257.368 37.892L259.492 44H260.764L262.996 37.892H261.808C260.968 40.34 260.32 42.176 260.176 42.92H260.164C259.984 42.164 259.408 40.304 258.628 37.892H257.368ZM264.042 44H265.218V37.892H264.042V44ZM265.218 36.56V35.204H264.042V36.56H265.218ZM266.972 44H268.16V40.736C268.16 39.536 268.604 38.744 269.672 38.744C270.572 38.744 270.908 39.344 270.908 40.22V44H272.084V40.076C272.084 38.468 271.208 37.748 270.044 37.748C268.892 37.748 268.388 38.348 268.16 38.852C268.16 38.672 268.136 38.072 268.112 37.892H266.96C266.972 38.36 266.972 38.9 266.972 39.428V44ZM278.963 39.656C278.963 39.068 278.975 38.276 278.975 37.892H277.859C277.847 38.012 277.823 38.408 277.811 38.672C277.679 38.288 277.199 37.748 276.059 37.748C274.571 37.748 273.407 38.984 273.407 40.952C273.407 42.716 274.415 43.964 275.939 43.964C276.935 43.964 277.487 43.58 277.811 42.932V43.388C277.811 44.756 277.499 45.596 276.167 45.596C275.399 45.596 274.907 45.248 274.739 44.624H273.539C273.647 45.428 274.187 46.508 276.107 46.508C278.171 46.508 278.963 45.368 278.963 43.412V39.656ZM274.631 40.904C274.631 39.608 275.207 38.732 276.263 38.732C277.523 38.732 277.847 39.524 277.847 40.832C277.847 42.128 277.487 42.968 276.227 42.968C275.267 42.968 274.631 42.152 274.631 40.904ZM126.921 59.96C126.921 60.632 126.921 61.316 126.909 62H128.037C128.061 61.832 128.085 61.532 128.085 61.232C128.397 61.796 128.877 62.144 129.849 62.144C131.577 62.144 132.501 60.656 132.501 58.82C132.501 57.032 131.565 55.748 130.005 55.748C128.925 55.748 128.373 56.228 128.097 56.72V53.204H126.921V59.96ZM131.301 58.844C131.301 60.272 130.701 61.16 129.669 61.16C128.421 61.16 128.037 60.188 128.037 58.964C128.037 57.56 128.481 56.732 129.705 56.732C130.737 56.732 131.301 57.584 131.301 58.844ZM138.827 55.892H137.651V59.084C137.651 60.56 137.243 61.136 136.187 61.136C135.227 61.136 134.987 60.428 134.987 59.648V55.892H133.811V59.9C133.811 61.58 134.759 62.144 135.839 62.144C136.763 62.144 137.339 61.784 137.651 61.124C137.651 61.472 137.663 61.844 137.687 62H138.839C138.839 61.604 138.827 60.812 138.827 60.224V55.892ZM139.975 60.236C140.131 61.328 140.899 62.144 142.531 62.144C144.127 62.144 144.955 61.34 144.955 60.272C144.955 59.372 144.607 58.736 142.711 58.292C141.619 58.028 141.379 57.824 141.379 57.392C141.379 57.02 141.619 56.636 142.423 56.636C143.335 56.636 143.599 57.164 143.683 57.524H144.811C144.739 56.684 144.103 55.748 142.471 55.748C140.851 55.748 140.215 56.624 140.215 57.488C140.215 58.328 140.563 58.88 142.363 59.312C143.467 59.588 143.743 59.828 143.743 60.368C143.743 60.884 143.419 61.232 142.579 61.232C141.787 61.232 141.307 60.872 141.151 60.236H139.975ZM146.269 62H147.445V55.892H146.269V62ZM147.445 54.56V53.204H146.269V54.56H147.445ZM149.198 62H150.386V58.736C150.386 57.536 150.83 56.744 151.898 56.744C152.798 56.744 153.134 57.344 153.134 58.22V62H154.31V58.076C154.31 56.468 153.434 55.748 152.27 55.748C151.118 55.748 150.614 56.348 150.386 56.852C150.386 56.672 150.362 56.072 150.338 55.892H149.186C149.198 56.36 149.198 56.9 149.198 57.428V62ZM161.07 59.168C161.094 59 161.094 58.856 161.094 58.664C161.094 57.32 160.434 55.748 158.442 55.748C156.558 55.748 155.634 57.176 155.634 59.012C155.634 60.596 156.438 62.144 158.37 62.144C160.098 62.144 160.746 61.064 160.986 60.284H159.798C159.618 60.716 159.318 61.172 158.406 61.172C157.41 61.172 156.834 60.32 156.822 59.168H161.07ZM156.858 58.364C156.954 57.368 157.398 56.66 158.43 56.66C159.426 56.66 159.894 57.416 159.906 58.364H156.858ZM161.971 60.236C162.127 61.328 162.895 62.144 164.527 62.144C166.123 62.144 166.951 61.34 166.951 60.272C166.951 59.372 166.603 58.736 164.707 58.292C163.615 58.028 163.375 57.824 163.375 57.392C163.375 57.02 163.615 56.636 164.419 56.636C165.331 56.636 165.595 57.164 165.679 57.524H166.807C166.735 56.684 166.099 55.748 164.467 55.748C162.847 55.748 162.211 56.624 162.211 57.488C162.211 58.328 162.559 58.88 164.359 59.312C165.463 59.588 165.739 59.828 165.739 60.368C165.739 60.884 165.415 61.232 164.575 61.232C163.783 61.232 163.303 60.872 163.147 60.236H161.971ZM167.819 60.236C167.975 61.328 168.743 62.144 170.375 62.144C171.971 62.144 172.799 61.34 172.799 60.272C172.799 59.372 172.451 58.736 170.555 58.292C169.463 58.028 169.223 57.824 169.223 57.392C169.223 57.02 169.463 56.636 170.267 56.636C171.179 56.636 171.443 57.164 171.527 57.524H172.655C172.583 56.684 171.947 55.748 170.315 55.748C168.695 55.748 168.059 56.624 168.059 57.488C168.059 58.328 168.407 58.88 170.207 59.312C171.311 59.588 171.587 59.828 171.587 60.368C171.587 60.884 171.263 61.232 170.423 61.232C169.631 61.232 169.151 60.872 168.995 60.236H167.819ZM175.308 62V60.164H174.06V62H175.308Z" fill="white" fill-opacity="0.48"/>
<path d="M28.6979 41.6C28.4099 42.344 27.8819 43.088 26.6219 43.088C24.7619 43.088 24.0899 41.42 24.0899 39.824C24.0899 38.168 24.7979 36.56 26.5739 36.56C27.8579 36.56 28.4219 37.232 28.6979 38.096H29.9339C29.7059 36.704 28.6379 35.54 26.6219 35.54C24.0539 35.54 22.7939 37.592 22.7939 39.86C22.7939 42.224 24.0539 44.108 26.5739 44.108C28.4939 44.108 29.5739 43.04 29.9339 41.6H28.6979ZM31.2022 44H32.3782V41.096C32.3782 39.524 33.1702 38.936 34.4182 38.912V37.748C33.3982 37.772 32.6902 38.3 32.3782 39.104C32.3782 38.564 32.3662 38.06 32.3422 37.892H31.1902C31.1902 38.252 31.2022 38.744 31.2022 39.548V44ZM40.4486 41.168C40.4726 41 40.4726 40.856 40.4726 40.664C40.4726 39.32 39.8126 37.748 37.8206 37.748C35.9366 37.748 35.0126 39.176 35.0126 41.012C35.0126 42.596 35.8166 44.144 37.7486 44.144C39.4766 44.144 40.1246 43.064 40.3646 42.284H39.1766C38.9966 42.716 38.6966 43.172 37.7846 43.172C36.7886 43.172 36.2126 42.32 36.2006 41.168H40.4486ZM36.2366 40.364C36.3326 39.368 36.7766 38.66 37.8086 38.66C38.8046 38.66 39.2726 39.416 39.2846 40.364H36.2366ZM46.4282 39.764C46.4282 38.372 45.6002 37.748 44.0762 37.748C42.3002 37.736 41.7482 38.696 41.6642 39.584H42.8042C42.9002 39.116 43.0682 38.648 44.0402 38.648C45.1082 38.648 45.2762 39.26 45.2762 39.776V40.268H44.2682C42.4562 40.268 41.3762 40.904 41.3762 42.272C41.3762 43.196 41.9882 44.144 43.4402 44.144C44.6042 44.144 45.0842 43.64 45.2882 43.244C45.3122 43.568 45.3482 43.868 45.3962 44H46.5122C46.4762 43.832 46.4282 43.184 46.4282 42.62V39.764ZM45.2882 41.252C45.2882 42.296 45.0962 43.244 43.7042 43.244C42.9842 43.244 42.5762 42.8 42.5762 42.2C42.5762 41.396 43.1762 41.06 44.3522 41.06H45.2882V41.252ZM47.3566 38.828H48.3886V42.536C48.3886 43.568 48.7966 44.084 49.8046 44.084C50.1046 44.084 50.4766 44.072 50.7526 43.976V43.1C50.5966 43.148 50.3926 43.148 50.2486 43.148C49.7086 43.148 49.5646 42.872 49.5646 42.296V38.828H50.8846V37.892H49.5646V36.116H48.3886V37.892H47.3566V38.828ZM56.9486 41.168C56.9726 41 56.9726 40.856 56.9726 40.664C56.9726 39.32 56.3126 37.748 54.3206 37.748C52.4366 37.748 51.5126 39.176 51.5126 41.012C51.5126 42.596 52.3166 44.144 54.2486 44.144C55.9766 44.144 56.6246 43.064 56.8646 42.284H55.6766C55.4966 42.716 55.1966 43.172 54.2846 43.172C53.2886 43.172 52.7126 42.32 52.7006 41.168H56.9486ZM52.7366 40.364C52.8326 39.368 53.2766 38.66 54.3086 38.66C55.3046 38.66 55.7726 39.416 55.7846 40.364H52.7366ZM60.5279 37.892L62.8079 44.228C62.4719 45.176 62.1719 45.5 61.4279 45.5C61.2719 45.5 61.0919 45.488 60.9359 45.464V46.472C61.1879 46.496 61.4399 46.508 61.6199 46.508C62.9159 46.508 63.3839 46.04 63.9959 44.264L66.1679 37.892H64.9799C64.0319 40.868 63.6119 42.26 63.4319 42.944H63.4199C63.2639 42.332 62.7239 40.652 61.7999 37.892H60.5279ZM69.6513 37.748C67.7913 37.748 66.7353 39.14 66.7353 40.952C66.7353 42.788 67.8033 44.144 69.5793 44.144C71.4633 44.144 72.4833 42.716 72.4833 40.928C72.4833 39.02 71.3673 37.748 69.6513 37.748ZM69.6033 38.72C70.6833 38.72 71.2833 39.596 71.2833 40.952C71.2833 42.296 70.6833 43.172 69.6273 43.172C68.5833 43.172 67.9473 42.248 67.9473 40.94C67.9473 39.572 68.5233 38.72 69.6033 38.72ZM78.8035 37.892H77.6275V41.084C77.6275 42.56 77.2195 43.136 76.1635 43.136C75.2035 43.136 74.9635 42.428 74.9635 41.648V37.892H73.7875V41.9C73.7875 43.58 74.7355 44.144 75.8155 44.144C76.7395 44.144 77.3155 43.784 77.6275 43.124C77.6275 43.472 77.6395 43.844 77.6635 44H78.8155C78.8155 43.604 78.8035 42.812 78.8035 42.224V37.892ZM80.5498 44H81.7258V41.096C81.7258 39.524 82.5178 38.936 83.7658 38.912V37.748C82.7458 37.772 82.0378 38.3 81.7258 39.104C81.7258 38.564 81.7138 38.06 81.6898 37.892H80.5378C80.5378 38.252 80.5498 38.744 80.5498 39.548V44ZM92.5298 39.764C92.5298 38.372 91.7018 37.748 90.1778 37.748C88.4018 37.736 87.8498 38.696 87.7658 39.584H88.9058C89.0018 39.116 89.1698 38.648 90.1418 38.648C91.2098 38.648 91.3778 39.26 91.3778 39.776V40.268H90.3698C88.5578 40.268 87.4778 40.904 87.4778 42.272C87.4778 43.196 88.0898 44.144 89.5418 44.144C90.7058 44.144 91.1858 43.64 91.3898 43.244C91.4138 43.568 91.4498 43.868 91.4978 44H92.6138C92.5778 43.832 92.5298 43.184 92.5298 42.62V39.764ZM91.3898 41.252C91.3898 42.296 91.1978 43.244 89.8058 43.244C89.0858 43.244 88.6778 42.8 88.6778 42.2C88.6778 41.396 89.2778 41.06 90.4538 41.06H91.3898V41.252ZM98.0399 42.116C97.8119 42.788 97.3919 43.184 96.6599 43.184C95.6639 43.184 95.0999 42.308 95.0999 40.94C95.0999 39.596 95.6759 38.72 96.6959 38.72C97.5359 38.72 97.9079 39.212 98.0399 39.812H99.2039C99.1319 39.044 98.5319 37.748 96.7199 37.748C94.8839 37.748 93.8879 39.236 93.8879 40.976C93.8879 42.908 94.9199 44.144 96.6359 44.144C98.2439 44.144 98.9519 43.16 99.2039 42.116H98.0399ZM104.239 42.116C104.011 42.788 103.591 43.184 102.859 43.184C101.863 43.184 101.299 42.308 101.299 40.94C101.299 39.596 101.875 38.72 102.895 38.72C103.735 38.72 104.107 39.212 104.239 39.812H105.403C105.331 39.044 104.731 37.748 102.919 37.748C101.083 37.748 100.087 39.236 100.087 40.976C100.087 42.908 101.119 44.144 102.835 44.144C104.443 44.144 105.151 43.16 105.403 42.116H104.239ZM109.19 37.748C107.33 37.748 106.274 39.14 106.274 40.952C106.274 42.788 107.342 44.144 109.118 44.144C111.002 44.144 112.022 42.716 112.022 40.928C112.022 39.02 110.906 37.748 109.19 37.748ZM109.142 38.72C110.222 38.72 110.822 39.596 110.822 40.952C110.822 42.296 110.222 43.172 109.166 43.172C108.122 43.172 107.486 42.248 107.486 40.94C107.486 39.572 108.062 38.72 109.142 38.72ZM118.343 37.892H117.167V41.084C117.167 42.56 116.759 43.136 115.703 43.136C114.743 43.136 114.503 42.428 114.503 41.648V37.892H113.327V41.9C113.327 43.58 114.275 44.144 115.355 44.144C116.279 44.144 116.855 43.784 117.167 43.124C117.167 43.472 117.179 43.844 117.203 44H118.355C118.355 43.604 118.343 42.812 118.343 42.224V37.892ZM120.089 44H121.277V40.736C121.277 39.536 121.721 38.744 122.789 38.744C123.689 38.744 124.025 39.344 124.025 40.22V44H125.201V40.076C125.201 38.468 124.325 37.748 123.161 37.748C122.009 37.748 121.505 38.348 121.277 38.852C121.277 38.672 121.253 38.072 121.229 37.892H120.077C120.089 38.36 120.089 38.9 120.089 39.428V44ZM126.118 38.828H127.15V42.536C127.15 43.568 127.558 44.084 128.566 44.084C128.866 44.084 129.238 44.072 129.514 43.976V43.1C129.358 43.148 129.154 43.148 129.01 43.148C128.47 43.148 128.326 42.872 128.326 42.296V38.828H129.646V37.892H128.326V36.116H127.15V37.892H126.118V38.828ZM138.444 39.764C138.444 38.372 137.616 37.748 136.092 37.748C134.316 37.736 133.764 38.696 133.68 39.584H134.82C134.916 39.116 135.084 38.648 136.056 38.648C137.124 38.648 137.292 39.26 137.292 39.776V40.268H136.284C134.472 40.268 133.392 40.904 133.392 42.272C133.392 43.196 134.004 44.144 135.456 44.144C136.62 44.144 137.1 43.64 137.304 43.244C137.328 43.568 137.364 43.868 137.412 44H138.528C138.492 43.832 138.444 43.184 138.444 42.62V39.764ZM137.304 41.252C137.304 42.296 137.112 43.244 135.72 43.244C135 43.244 134.592 42.8 134.592 42.2C134.592 41.396 135.192 41.06 136.368 41.06H137.304V41.252ZM140.21 44H141.398V40.736C141.398 39.536 141.842 38.744 142.91 38.744C143.81 38.744 144.146 39.344 144.146 40.22V44H145.322V40.076C145.322 38.468 144.446 37.748 143.282 37.748C142.13 37.748 141.626 38.348 141.398 38.852C141.398 38.672 141.374 38.072 141.35 37.892H140.198C140.21 38.36 140.21 38.9 140.21 39.428V44ZM151.073 35.204V38.492C150.905 38.156 150.425 37.748 149.393 37.748C147.689 37.748 146.645 39.128 146.645 41.012C146.645 42.872 147.617 44.144 149.189 44.144C150.173 44.144 150.773 43.784 151.073 43.172C151.073 43.4 151.097 43.832 151.121 44H152.261C152.249 43.412 152.249 42.848 152.249 42.284V35.204H151.073ZM147.869 40.976C147.869 39.548 148.493 38.732 149.537 38.732C150.857 38.732 151.109 39.572 151.109 40.868C151.109 42.128 150.833 43.16 149.453 43.16C148.529 43.16 147.869 42.392 147.869 40.976ZM156.487 42.236C156.643 43.328 157.411 44.144 159.043 44.144C160.639 44.144 161.467 43.34 161.467 42.272C161.467 41.372 161.119 40.736 159.223 40.292C158.131 40.028 157.891 39.824 157.891 39.392C157.891 39.02 158.131 38.636 158.935 38.636C159.847 38.636 160.111 39.164 160.195 39.524H161.323C161.251 38.684 160.615 37.748 158.983 37.748C157.363 37.748 156.727 38.624 156.727 39.488C156.727 40.328 157.075 40.88 158.875 41.312C159.979 41.588 160.255 41.828 160.255 42.368C160.255 42.884 159.931 43.232 159.091 43.232C158.299 43.232 157.819 42.872 157.663 42.236H156.487ZM161.989 38.828H163.021V42.536C163.021 43.568 163.429 44.084 164.437 44.084C164.737 44.084 165.109 44.072 165.385 43.976V43.1C165.229 43.148 165.025 43.148 164.881 43.148C164.341 43.148 164.197 42.872 164.197 42.296V38.828H165.517V37.892H164.197V36.116H163.021V37.892H161.989V38.828ZM171.268 39.764C171.268 38.372 170.44 37.748 168.916 37.748C167.14 37.736 166.588 38.696 166.504 39.584H167.644C167.74 39.116 167.908 38.648 168.88 38.648C169.948 38.648 170.116 39.26 170.116 39.776V40.268H169.108C167.296 40.268 166.216 40.904 166.216 42.272C166.216 43.196 166.828 44.144 168.28 44.144C169.444 44.144 169.924 43.64 170.128 43.244C170.152 43.568 170.188 43.868 170.236 44H171.352C171.316 43.832 171.268 43.184 171.268 42.62V39.764ZM170.128 41.252C170.128 42.296 169.936 43.244 168.544 43.244C167.824 43.244 167.416 42.8 167.416 42.2C167.416 41.396 168.016 41.06 169.192 41.06H170.128V41.252ZM173.034 44H174.21V41.096C174.21 39.524 175.002 38.936 176.25 38.912V37.748C175.23 37.772 174.522 38.3 174.21 39.104C174.21 38.564 174.198 38.06 174.174 37.892H173.022C173.022 38.252 173.034 38.744 173.034 39.548V44ZM176.931 38.828H177.963V42.536C177.963 43.568 178.371 44.084 179.379 44.084C179.679 44.084 180.051 44.072 180.327 43.976V43.1C180.171 43.148 179.967 43.148 179.823 43.148C179.283 43.148 179.139 42.872 179.139 42.296V38.828H180.459V37.892H179.139V36.116H177.963V37.892H176.931V38.828ZM184.612 41.96C184.612 42.632 184.612 43.316 184.6 44H185.728C185.752 43.832 185.776 43.532 185.776 43.232C186.088 43.796 186.568 44.144 187.54 44.144C189.268 44.144 190.192 42.656 190.192 40.82C190.192 39.032 189.256 37.748 187.696 37.748C186.616 37.748 186.064 38.228 185.788 38.72V35.204H184.612V41.96ZM188.992 40.844C188.992 42.272 188.392 43.16 187.36 43.16C186.112 43.16 185.728 42.188 185.728 40.964C185.728 39.56 186.172 38.732 187.396 38.732C188.428 38.732 188.992 39.584 188.992 40.844ZM196.518 37.892H195.342V41.084C195.342 42.56 194.934 43.136 193.878 43.136C192.918 43.136 192.678 42.428 192.678 41.648V37.892H191.502V41.9C191.502 43.58 192.45 44.144 193.53 44.144C194.454 44.144 195.03 43.784 195.342 43.124C195.342 43.472 195.354 43.844 195.378 44H196.53C196.53 43.604 196.518 42.812 196.518 42.224V37.892ZM198.265 44H199.441V37.892H198.265V44ZM199.441 36.56V35.204H198.265V36.56H199.441ZM202.37 44V35.204H201.194V44H202.37ZM208.132 35.204V38.492C207.964 38.156 207.484 37.748 206.452 37.748C204.748 37.748 203.704 39.128 203.704 41.012C203.704 42.872 204.676 44.144 206.248 44.144C207.232 44.144 207.832 43.784 208.132 43.172C208.132 43.4 208.156 43.832 208.18 44H209.32C209.308 43.412 209.308 42.848 209.308 42.284V35.204H208.132ZM204.928 40.976C204.928 39.548 205.552 38.732 206.596 38.732C207.916 38.732 208.168 39.572 208.168 40.868C208.168 42.128 207.892 43.16 206.512 43.16C205.588 43.16 204.928 42.392 204.928 40.976ZM211.05 44H212.226V37.892H211.05V44ZM212.226 36.56V35.204H211.05V36.56H212.226ZM213.98 44H215.168V40.736C215.168 39.536 215.612 38.744 216.68 38.744C217.58 38.744 217.916 39.344 217.916 40.22V44H219.092V40.076C219.092 38.468 218.216 37.748 217.052 37.748C215.9 37.748 215.396 38.348 215.168 38.852C215.168 38.672 215.144 38.072 215.12 37.892H213.968C213.98 38.36 213.98 38.9 213.98 39.428V44ZM225.971 39.656C225.971 39.068 225.983 38.276 225.983 37.892H224.867C224.855 38.012 224.831 38.408 224.819 38.672C224.687 38.288 224.207 37.748 223.067 37.748C221.579 37.748 220.415 38.984 220.415 40.952C220.415 42.716 221.423 43.964 222.947 43.964C223.943 43.964 224.495 43.58 224.819 42.932V43.388C224.819 44.756 224.507 45.596 223.175 45.596C222.407 45.596 221.915 45.248 221.747 44.624H220.547C220.655 45.428 221.195 46.508 223.115 46.508C225.179 46.508 225.971 45.368 225.971 43.412V39.656ZM221.639 40.904C221.639 39.608 222.215 38.732 223.271 38.732C224.531 38.732 224.855 39.524 224.855 40.832C224.855 42.128 224.495 42.968 223.235 42.968C222.275 42.968 221.639 42.152 221.639 40.904ZM235.37 39.764C235.37 38.372 234.542 37.748 233.018 37.748C231.242 37.736 230.69 38.696 230.606 39.584H231.746C231.842 39.116 232.01 38.648 232.982 38.648C234.05 38.648 234.218 39.26 234.218 39.776V40.268H233.21C231.398 40.268 230.318 40.904 230.318 42.272C230.318 43.196 230.93 44.144 232.382 44.144C233.546 44.144 234.026 43.64 234.23 43.244C234.254 43.568 234.29 43.868 234.338 44H235.454C235.418 43.832 235.37 43.184 235.37 42.62V39.764ZM234.23 41.252C234.23 42.296 234.038 43.244 232.646 43.244C231.926 43.244 231.518 42.8 231.518 42.2C231.518 41.396 232.118 41.06 233.294 41.06H234.23V41.252ZM239.403 38.828H240.435V42.536C240.435 43.568 240.843 44.084 241.851 44.084C242.151 44.084 242.523 44.072 242.799 43.976V43.1C242.643 43.148 242.439 43.148 242.295 43.148C241.755 43.148 241.611 42.872 241.611 42.296V38.828H242.931V37.892H241.611V36.116H240.435V37.892H239.403V38.828ZM244.015 35.204V44H245.191V40.676C245.191 39.476 245.623 38.744 246.691 38.744C247.543 38.744 247.951 39.296 247.951 40.292V44H249.127V40.1C249.127 38.312 248.083 37.748 247.063 37.748C246.043 37.748 245.491 38.252 245.191 38.756V35.204H244.015ZM250.882 44H252.058V41.096C252.058 39.524 252.85 38.936 254.098 38.912V37.748C253.078 37.772 252.37 38.3 252.058 39.104C252.058 38.564 252.046 38.06 252.022 37.892H250.87C250.87 38.252 250.882 38.744 250.882 39.548V44ZM255.136 44H256.312V37.892H255.136V44ZM256.312 36.56V35.204H255.136V36.56H256.312ZM257.368 37.892L259.492 44H260.764L262.996 37.892H261.808C260.968 40.34 260.32 42.176 260.176 42.92H260.164C259.984 42.164 259.408 40.304 258.628 37.892H257.368ZM264.042 44H265.218V37.892H264.042V44ZM265.218 36.56V35.204H264.042V36.56H265.218ZM266.972 44H268.16V40.736C268.16 39.536 268.604 38.744 269.672 38.744C270.572 38.744 270.908 39.344 270.908 40.22V44H272.084V40.076C272.084 38.468 271.208 37.748 270.044 37.748C268.892 37.748 268.388 38.348 268.16 38.852C268.16 38.672 268.136 38.072 268.112 37.892H266.96C266.972 38.36 266.972 38.9 266.972 39.428V44ZM278.963 39.656C278.963 39.068 278.975 38.276 278.975 37.892H277.859C277.847 38.012 277.823 38.408 277.811 38.672C277.679 38.288 277.199 37.748 276.059 37.748C274.571 37.748 273.407 38.984 273.407 40.952C273.407 42.716 274.415 43.964 275.939 43.964C276.935 43.964 277.487 43.58 277.811 42.932V43.388C277.811 44.756 277.499 45.596 276.167 45.596C275.399 45.596 274.907 45.248 274.739 44.624H273.539C273.647 45.428 274.187 46.508 276.107 46.508C278.171 46.508 278.963 45.368 278.963 43.412V39.656ZM274.631 40.904C274.631 39.608 275.207 38.732 276.263 38.732C277.523 38.732 277.847 39.524 277.847 40.832C277.847 42.128 277.487 42.968 276.227 42.968C275.267 42.968 274.631 42.152 274.631 40.904ZM126.921 59.96C126.921 60.632 126.921 61.316 126.909 62H128.037C128.061 61.832 128.085 61.532 128.085 61.232C128.397 61.796 128.877 62.144 129.849 62.144C131.577 62.144 132.501 60.656 132.501 58.82C132.501 57.032 131.565 55.748 130.005 55.748C128.925 55.748 128.373 56.228 128.097 56.72V53.204H126.921V59.96ZM131.301 58.844C131.301 60.272 130.701 61.16 129.669 61.16C128.421 61.16 128.037 60.188 128.037 58.964C128.037 57.56 128.481 56.732 129.705 56.732C130.737 56.732 131.301 57.584 131.301 58.844ZM138.827 55.892H137.651V59.084C137.651 60.56 137.243 61.136 136.187 61.136C135.227 61.136 134.987 60.428 134.987 59.648V55.892H133.811V59.9C133.811 61.58 134.759 62.144 135.839 62.144C136.763 62.144 137.339 61.784 137.651 61.124C137.651 61.472 137.663 61.844 137.687 62H138.839C138.839 61.604 138.827 60.812 138.827 60.224V55.892ZM139.975 60.236C140.131 61.328 140.899 62.144 142.531 62.144C144.127 62.144 144.955 61.34 144.955 60.272C144.955 59.372 144.607 58.736 142.711 58.292C141.619 58.028 141.379 57.824 141.379 57.392C141.379 57.02 141.619 56.636 142.423 56.636C143.335 56.636 143.599 57.164 143.683 57.524H144.811C144.739 56.684 144.103 55.748 142.471 55.748C140.851 55.748 140.215 56.624 140.215 57.488C140.215 58.328 140.563 58.88 142.363 59.312C143.467 59.588 143.743 59.828 143.743 60.368C143.743 60.884 143.419 61.232 142.579 61.232C141.787 61.232 141.307 60.872 141.151 60.236H139.975ZM146.269 62H147.445V55.892H146.269V62ZM147.445 54.56V53.204H146.269V54.56H147.445ZM149.198 62H150.386V58.736C150.386 57.536 150.83 56.744 151.898 56.744C152.798 56.744 153.134 57.344 153.134 58.22V62H154.31V58.076C154.31 56.468 153.434 55.748 152.27 55.748C151.118 55.748 150.614 56.348 150.386 56.852C150.386 56.672 150.362 56.072 150.338 55.892H149.186C149.198 56.36 149.198 56.9 149.198 57.428V62ZM161.07 59.168C161.094 59 161.094 58.856 161.094 58.664C161.094 57.32 160.434 55.748 158.442 55.748C156.558 55.748 155.634 57.176 155.634 59.012C155.634 60.596 156.438 62.144 158.37 62.144C160.098 62.144 160.746 61.064 160.986 60.284H159.798C159.618 60.716 159.318 61.172 158.406 61.172C157.41 61.172 156.834 60.32 156.822 59.168H161.07ZM156.858 58.364C156.954 57.368 157.398 56.66 158.43 56.66C159.426 56.66 159.894 57.416 159.906 58.364H156.858ZM161.971 60.236C162.127 61.328 162.895 62.144 164.527 62.144C166.123 62.144 166.951 61.34 166.951 60.272C166.951 59.372 166.603 58.736 164.707 58.292C163.615 58.028 163.375 57.824 163.375 57.392C163.375 57.02 163.615 56.636 164.419 56.636C165.331 56.636 165.595 57.164 165.679 57.524H166.807C166.735 56.684 166.099 55.748 164.467 55.748C162.847 55.748 162.211 56.624 162.211 57.488C162.211 58.328 162.559 58.88 164.359 59.312C165.463 59.588 165.739 59.828 165.739 60.368C165.739 60.884 165.415 61.232 164.575 61.232C163.783 61.232 163.303 60.872 163.147 60.236H161.971ZM167.819 60.236C167.975 61.328 168.743 62.144 170.375 62.144C171.971 62.144 172.799 61.34 172.799 60.272C172.799 59.372 172.451 58.736 170.555 58.292C169.463 58.028 169.223 57.824 169.223 57.392C169.223 57.02 169.463 56.636 170.267 56.636C171.179 56.636 171.443 57.164 171.527 57.524H172.655C172.583 56.684 171.947 55.748 170.315 55.748C168.695 55.748 168.059 56.624 168.059 57.488C168.059 58.328 168.407 58.88 170.207 59.312C171.311 59.588 171.587 59.828 171.587 60.368C171.587 60.884 171.263 61.232 170.423 61.232C169.631 61.232 169.151 60.872 168.995 60.236H167.819ZM175.308 62V60.164H174.06V62H175.308Z" fill="#E8E8ED"/>
</svg>
