<svg width="176" height="48" viewBox="0 0 176 48" fill="none" xmlns="http://www.w3.org/2000/svg">
<circle cx="152" cy="24" r="24" fill="white"/>
<path d="M161.341 30.9364L162.405 23.9986H155.749V19.4964C155.749 17.5984 156.679 15.7483 159.66 15.7483H162.687V9.84182C162.687 9.84182 159.94 9.37305 157.314 9.37305C151.832 9.37305 148.248 12.6957 148.248 18.7109V23.9986H142.154V30.9364H148.248V47.708C149.47 47.8997 150.723 47.9996 151.999 47.9996C153.274 47.9996 154.527 47.8997 155.749 47.708V30.9364H161.341Z" fill="#1877F2"/>
<circle cx="88" cy="24" r="24" fill="black"/>
<path fill-rule="evenodd" clip-rule="evenodd" d="M93.9395 8.57408C93.9395 10.0369 93.2934 11.4997 92.3815 12.5552C91.4124 13.7218 89.7406 14.5921 88.4105 14.5923C88.2586 14.5923 88.1064 14.5736 88.0115 14.5551C87.9926 14.4811 87.9545 14.2588 87.9545 14.0366C87.9545 12.5552 88.7336 11.0924 89.5695 10.1665C90.6335 8.96296 92.4005 8.05558 93.8825 8C93.9206 8.16674 93.9395 8.37041 93.9395 8.57408ZM99.1663 17.7886C99.2033 17.765 99.2286 17.7488 99.2404 17.7399C97.2645 14.981 94.2624 14.9067 93.4263 14.9066C92.1488 14.9066 91.0053 15.3483 90.044 15.7197C89.3469 15.989 88.7456 16.2213 88.2584 16.2213C87.7209 16.2213 87.1055 15.9789 86.4188 15.7084C85.5518 15.3669 84.571 14.9806 83.4895 14.9806C79.8417 14.9806 76.1367 17.9249 76.1367 23.48C76.1367 26.9426 77.5047 30.5904 79.1956 32.9421C80.6585 34.9419 81.9315 36.5714 83.7555 36.5714C84.6205 36.5714 85.2548 36.3091 85.9217 36.0332C86.6612 35.7273 87.4408 35.4048 88.6195 35.4048C89.8098 35.4048 90.5213 35.7076 91.2076 35.9996C91.8469 36.2716 92.4644 36.5343 93.4264 36.5343C95.4213 36.5343 96.7324 34.7753 97.9863 33.0161C99.3924 31.0164 99.9814 29.0535 100 28.961C99.8863 28.9241 96.0674 27.4241 96.0674 23.1838C96.0674 19.7708 98.6689 18.1068 99.1663 17.7886Z" fill="white"/>
<circle cx="24" cy="24" r="24" fill="#F7F7F7"/>
<path d="M38.9994 24.3607C38.9994 23.3073 38.907 22.3073 38.7487 21.334H23.8359V27.3473H32.3745C31.9917 29.3207 30.87 30.9873 29.2072 32.1207V36.1207H34.3012C37.2838 33.334 38.9994 29.2273 38.9994 24.3607Z" fill="#4285F4"/>
<path d="M23.8372 39.9994C28.1131 39.9994 31.6895 38.5594 34.3025 36.1194L29.2084 32.1194C27.7832 33.0794 25.9752 33.6661 23.8372 33.6661C19.7065 33.6661 16.2093 30.8527 14.9556 27.0527H9.70312V31.1727C12.303 36.3994 17.6478 39.9994 23.8372 39.9994Z" fill="#34A853"/>
<path d="M14.9549 27.0528C14.6249 26.0928 14.4534 25.0662 14.4534 23.9995C14.4534 22.9328 14.6381 21.9062 14.9549 20.9462V16.8262H9.70243C8.62026 18.9862 8 21.4128 8 23.9995C8 26.5862 8.62026 29.0128 9.70243 31.1728L14.9549 27.0528Z" fill="#FBBC05"/>
<path d="M23.8372 14.3333C26.1731 14.3333 28.2583 15.1467 29.9079 16.7333L34.4213 12.1733C31.6895 9.58667 28.1131 8 23.8372 8C17.6478 8 12.303 11.6 9.70312 16.8267L14.9556 20.9467C16.2093 17.1467 19.7065 14.3333 23.8372 14.3333Z" fill="#EA4335"/>
</svg>
