<svg width="323" height="75" viewBox="0 0 323 75" fill="none" xmlns="http://www.w3.org/2000/svg">
<path d="M18.6042 17.3672C19.6825 13.7863 21.3102 8.41502 21.7171 6.17698H21.7375C22.1647 8.13018 23.9145 14.1729 24.8707 17.3672H28.1261L32.6225 3.00303H29.591C28.6754 6.25836 26.9867 12.0569 26.5594 14.5188H26.5391C26.1729 12.5859 24.3214 6.17698 23.3855 3.00303H20.476C19.4384 6.38044 17.709 12.1587 17.2614 14.6205H17.241C16.9358 12.24 15.2471 6.38044 14.3316 3.00303H11.1576L15.3692 17.3672H18.6042ZM34.4329 2.16885V17.3672H37.3017V12.3214C37.3017 10.2665 38.1766 8.90332 39.9467 8.90332C41.5743 8.90332 42.0219 9.9613 42.0219 11.4262V17.3672H44.9314V11.0803C44.9314 8.10983 43.3851 6.64493 40.8826 6.64493C38.6038 6.64493 37.6679 7.76395 37.2814 8.41502V2.16885H34.4329ZM57.7738 10.4293C57.7738 8.67951 57.0616 6.64493 52.7687 6.64493C48.8012 6.64493 47.8857 8.67951 47.7839 10.002H50.6731C50.8358 9.28989 51.202 8.63882 52.8094 8.63882C54.5591 8.63882 54.966 9.45266 54.966 10.3886V10.7751H52.6669C49.6151 10.7751 47.1939 11.5483 47.1939 14.2543C47.1939 15.9023 48.3333 17.652 51.2224 17.652C53.257 17.652 54.4574 17.0417 55.0271 16.0854C55.0271 16.3906 55.0678 17.0823 55.1491 17.3672H57.8551C57.8348 17.1434 57.7738 15.8006 57.7738 14.5391V10.4293ZM54.966 12.9114C54.966 14.4781 54.1115 15.5564 51.9955 15.5564C50.612 15.5564 50.0016 14.9053 50.0016 14.1119C50.0016 13.1149 50.8155 12.647 52.7076 12.647H54.966V12.9114ZM59.3612 9.04574H61.2941V14.3357C61.2941 16.3906 62.0265 17.4486 64.468 17.4486C65.1801 17.4486 65.8719 17.4079 66.4009 17.2248V15.2309C66.116 15.2919 65.7498 15.3123 65.465 15.3123C64.407 15.3123 64.1832 14.8646 64.1832 13.8677V9.04574H66.706V6.92977H64.1832V3.75582H61.2941V6.92977H59.3612V9.04574ZM73.3679 6.92977L76.5622 17.3672H79.7158C80.8551 13.9694 81.669 11.2024 81.9538 10.1241H81.9742C82.32 11.4465 83.0322 13.7049 84.1512 17.3672H87.2234L90.6008 6.92977H87.7727C86.3689 11.9959 85.9213 13.9084 85.7178 14.9664H85.6975C85.5143 14.0508 85.1278 12.5656 83.4391 6.92977H80.7127C79.0444 12.4435 78.6781 13.827 78.373 15.0478H78.3526C78.1492 13.9084 77.8033 12.4028 76.3384 6.92977H73.3679ZM97.5998 6.64493C93.7748 6.64493 91.6995 9.22885 91.6995 12.1383C91.6995 15.0274 93.6934 17.652 97.4777 17.652C101.303 17.652 103.419 15.2512 103.419 12.1383C103.419 9.49335 101.527 6.64493 97.5998 6.64493ZM97.5387 8.84228C99.5123 8.84228 100.448 10.4496 100.448 12.179C100.448 13.9287 99.5326 15.4343 97.5591 15.4343C95.6669 15.4343 94.6496 13.888 94.6496 12.1383C94.6496 10.3886 95.5652 8.84228 97.5387 8.84228ZM116.059 6.92977H113.169V11.711C113.169 14.3153 112.457 15.3733 110.647 15.3733C109.121 15.3733 108.571 14.295 108.571 12.8504V6.92977H105.703V13.3387C105.703 16.3906 107.412 17.652 109.609 17.652C111.827 17.652 112.661 16.8992 113.19 15.9633C113.21 16.5127 113.21 17.0823 113.251 17.3672H116.059C116.038 16.3499 116.059 15.3326 116.059 14.3153V6.92977ZM121.884 17.3672V2.16885H119.015V17.3672H121.884ZM132.853 2.16885V7.88603C132.547 7.45876 131.713 6.64493 129.557 6.64493C126.932 6.64493 124.185 8.74055 124.185 12.24C124.185 15.4547 126.322 17.652 129.251 17.652C131.51 17.652 132.283 16.8585 132.853 16.0447C132.873 16.472 132.893 17.0213 132.934 17.3672H135.762C135.742 16.3906 135.742 15.3733 135.742 14.3967V2.16885H132.853ZM127.156 12.179C127.156 10.4903 128.112 8.90332 130.086 8.90332C132.202 8.90332 132.934 10.1851 132.934 12.1383C132.934 14.0915 132.018 15.3733 130.045 15.3733C128.173 15.3733 127.156 13.9084 127.156 12.179ZM143.185 6.92977L147.905 17.7945C147.213 19.1983 146.827 19.6866 145.402 19.6866C145.097 19.6866 144.792 19.6866 144.324 19.6256V21.9857C144.69 22.0671 145.423 22.1078 145.87 22.1078C149.126 22.1078 149.716 20.7853 151.526 16.1871L155.209 6.92977H152.279C150.672 11.2024 149.777 14.0508 149.471 15.0885H149.431C149.187 14.295 148.271 11.65 146.338 6.92977H143.185ZM161.995 6.64493C158.17 6.64493 156.095 9.22885 156.095 12.1383C156.095 15.0274 158.089 17.652 161.873 17.652C165.698 17.652 167.814 15.2512 167.814 12.1383C167.814 9.49335 165.922 6.64493 161.995 6.64493ZM161.934 8.84228C163.908 8.84228 164.844 10.4496 164.844 12.179C164.844 13.9287 163.928 15.4343 161.954 15.4343C160.062 15.4343 159.045 13.888 159.045 12.1383C159.045 10.3886 159.961 8.84228 161.934 8.84228ZM180.454 6.92977H177.565V11.711C177.565 14.3153 176.853 15.3733 175.042 15.3733C173.516 15.3733 172.967 14.295 172.967 12.8504V6.92977H170.098V13.3387C170.098 16.3906 171.807 17.652 174.004 17.652C176.222 17.652 177.056 16.8992 177.585 15.9633C177.605 16.5127 177.605 17.0823 177.646 17.3672H180.454C180.434 16.3499 180.454 15.3326 180.454 14.3153V6.92977ZM192.081 17.3672V2.16885H189.212V17.3672H192.081ZM195.054 17.3672H197.943V6.92977H195.054V17.3672ZM197.943 4.71208V2.16885H195.054V4.71208H197.943ZM203.863 2.16885H200.995V17.3672H203.863V14.0101L205.613 12.5452L209.153 17.3672H212.653L207.648 10.9379L212.185 6.92977H208.746C207.322 8.31329 204.921 10.5106 203.863 11.589V2.16885ZM224.231 12.8301C224.251 12.5452 224.251 12.3621 224.251 12.1383C224.251 9.473 222.685 6.64493 218.656 6.64493C215.014 6.64493 212.98 9.14747 212.98 12.1587C212.98 14.8443 214.587 17.652 218.697 17.652C221.973 17.652 223.499 16.004 224.109 14.2339H221.24C220.793 15.0071 220.121 15.475 218.738 15.475C217.008 15.475 215.95 14.3357 215.849 12.8301H224.231ZM215.889 11.0193C216.032 9.77819 216.784 8.69986 218.656 8.69986C220.732 8.69986 221.24 10.0834 221.322 11.0193H215.889ZM231.129 9.04574H233.061V14.3357C233.061 16.3906 233.794 17.4486 236.235 17.4486C236.947 17.4486 237.639 17.4079 238.168 17.2248V15.2309C237.883 15.2919 237.517 15.3123 237.232 15.3123C236.174 15.3123 235.951 14.8646 235.951 13.8677V9.04574H238.473V6.92977H235.951V3.75582H233.061V6.92977H231.129V9.04574ZM245.604 6.64493C241.779 6.64493 239.704 9.22885 239.704 12.1383C239.704 15.0274 241.697 17.652 245.482 17.652C249.307 17.652 251.423 15.2512 251.423 12.1383C251.423 9.49335 249.531 6.64493 245.604 6.64493ZM245.543 8.84228C247.516 8.84228 248.452 10.4496 248.452 12.179C248.452 13.9287 247.537 15.4343 245.563 15.4343C243.671 15.4343 242.654 13.888 242.654 12.1383C242.654 10.3886 243.569 8.84228 245.543 8.84228ZM262.397 17.3672V2.16885H259.529V17.3672H262.397ZM275.95 12.8301C275.97 12.5452 275.97 12.3621 275.97 12.1383C275.97 9.473 274.404 6.64493 270.375 6.64493C266.733 6.64493 264.699 9.14747 264.699 12.1587C264.699 14.8443 266.306 17.652 270.416 17.652C273.692 17.652 275.217 16.004 275.828 14.2339H272.959C272.511 15.0071 271.84 15.475 270.457 15.475C268.727 15.475 267.669 14.3357 267.567 12.8301H275.95ZM267.608 11.0193C267.751 9.77819 268.503 8.69986 270.375 8.69986C272.45 8.69986 272.959 10.0834 273.04 11.0193H267.608ZM288.234 10.4293C288.234 8.67951 287.522 6.64493 283.229 6.64493C279.262 6.64493 278.346 8.67951 278.244 10.002H281.133C281.296 9.28989 281.662 8.63882 283.27 8.63882C285.019 8.63882 285.426 9.45266 285.426 10.3886V10.7751H283.127C280.075 10.7751 277.654 11.5483 277.654 14.2543C277.654 15.9023 278.794 17.652 281.683 17.652C283.717 17.652 284.918 17.0417 285.487 16.0854C285.487 16.3906 285.528 17.0823 285.609 17.3672H288.315C288.295 17.1434 288.234 15.8006 288.234 14.5391V10.4293ZM285.426 12.9114C285.426 14.4781 284.572 15.5564 282.456 15.5564C281.072 15.5564 280.462 14.9053 280.462 14.1119C280.462 13.1149 281.276 12.647 283.168 12.647H285.426V12.9114ZM291.279 17.3672H294.168V13.3794C294.168 10.3682 295.877 9.26954 298.258 9.28989V6.64493C296.122 6.60424 294.779 7.64188 294.168 9.08643C294.168 8.41502 294.128 7.27565 294.067 6.92977H291.259C291.279 7.86568 291.279 8.82194 291.279 9.75784V17.3672ZM300.121 17.3672H303.01V12.2197C303.01 10.1648 303.824 8.90332 305.574 8.90332C307.201 8.90332 307.73 10.063 307.73 11.4262V17.3672H310.64V10.9582C310.64 8.21156 309.093 6.64493 306.55 6.64493C304.455 6.64493 303.458 7.64188 302.99 8.45571C302.969 7.94706 302.949 7.23496 302.908 6.92977H300.101C300.121 7.68257 300.121 8.67951 300.121 9.55439V17.3672ZM85.2029 34.4293C85.2029 32.6795 84.4908 30.6449 80.1978 30.6449C76.2304 30.6449 75.3148 32.6795 75.2131 34.002H78.1022C78.2649 33.2899 78.6312 32.6388 80.2385 32.6388C81.9882 32.6388 82.3952 33.4527 82.3952 34.3886V34.7751H80.0961C77.0442 34.7751 74.623 35.5483 74.623 38.2543C74.623 39.9023 75.7624 41.652 78.6515 41.652C80.6861 41.652 81.8865 41.0417 82.4562 40.0854C82.4562 40.3906 82.4969 41.0823 82.5783 41.3672H85.2843C85.2639 41.1434 85.2029 39.8006 85.2029 38.5391V34.4293ZM82.3952 36.9114C82.3952 38.4781 81.5406 39.5564 79.4247 39.5564C78.0411 39.5564 77.4308 38.9053 77.4308 38.1119C77.4308 37.1149 78.2446 36.647 80.1368 36.647H82.3952V36.9114ZM88.1686 37.8474C88.1686 39.0071 88.1686 39.9226 88.1483 41.3672H90.8949C90.9153 41.0823 90.9356 40.3906 90.9356 40.0447C91.4443 40.8382 92.3598 41.652 94.4351 41.652C97.4056 41.652 99.7047 39.4954 99.7047 35.9552C99.7047 32.8626 97.487 30.6449 94.6386 30.6449C92.5633 30.6449 91.5664 31.5198 91.0374 32.2116V26.1688H88.1686V37.8474ZM96.7342 36.0569C96.7342 37.8474 95.839 39.3529 93.8654 39.3529C91.9936 39.3529 90.956 38.0101 90.956 36.1383C90.956 34.2461 91.8715 32.9033 93.8858 32.9033C95.8797 32.9033 96.7342 34.4903 96.7342 36.0569ZM107.226 30.6449C103.401 30.6449 101.326 33.2289 101.326 36.1383C101.326 39.0274 103.32 41.652 107.104 41.652C110.929 41.652 113.045 39.2512 113.045 36.1383C113.045 33.4933 111.153 30.6449 107.226 30.6449ZM107.165 32.8423C109.139 32.8423 110.075 34.4496 110.075 36.179C110.075 37.9287 109.159 39.4343 107.186 39.4343C105.293 39.4343 104.276 37.888 104.276 36.1383C104.276 34.3886 105.192 32.8423 107.165 32.8423ZM125.685 30.9298H122.796V35.711C122.796 38.3153 122.084 39.3733 120.273 39.3733C118.747 39.3733 118.198 38.295 118.198 36.8504V30.9298H115.329V37.3387C115.329 40.3906 117.038 41.652 119.235 41.652C121.453 41.652 122.287 40.8992 122.816 39.9633C122.837 40.5127 122.837 41.0823 122.877 41.3672H125.685C125.665 40.3499 125.685 39.3326 125.685 38.3153V30.9298ZM127.76 33.0457H129.693V38.3357C129.693 40.3906 130.425 41.4486 132.867 41.4486C133.579 41.4486 134.271 41.4079 134.8 41.2248V39.2309C134.515 39.2919 134.149 39.3123 133.864 39.3123C132.806 39.3123 132.582 38.8646 132.582 37.8677V33.0457H135.105V30.9298H132.582V27.7558H129.693V30.9298H127.76V33.0457ZM142.967 37.8474C142.967 39.0071 142.967 39.9226 142.947 41.3672H145.694C145.714 41.0823 145.734 40.3906 145.734 40.0447C146.243 40.8382 147.158 41.652 149.234 41.652C152.204 41.652 154.503 39.4954 154.503 35.9552C154.503 32.8626 152.286 30.6449 149.437 30.6449C147.362 30.6449 146.365 31.5198 145.836 32.2116V26.1688H142.967V37.8474ZM151.533 36.0569C151.533 37.8474 150.638 39.3529 148.664 39.3529C146.792 39.3529 145.755 38.0101 145.755 36.1383C145.755 34.2461 146.67 32.9033 148.684 32.9033C150.678 32.9033 151.533 34.4903 151.533 36.0569ZM167.132 30.9298H164.243V35.711C164.243 38.3153 163.531 39.3733 161.72 39.3733C160.194 39.3733 159.644 38.295 159.644 36.8504V30.9298H156.776V37.3387C156.776 40.3906 158.485 41.652 160.682 41.652C162.9 41.652 163.734 40.8992 164.263 39.9633C164.283 40.5127 164.283 41.0823 164.324 41.3672H167.132C167.111 40.3499 167.132 39.3326 167.132 38.3153V30.9298ZM169.174 38.1729C169.52 40.4109 171.616 41.652 174.525 41.652C178.187 41.652 179.632 40.1261 179.632 38.2339C179.632 36.7487 179.022 35.4059 174.871 34.7955C172.796 34.4903 172.409 34.1648 172.409 33.6358C172.409 33.1882 172.694 32.5981 174.159 32.5981C175.888 32.5981 176.295 33.3102 176.438 33.8392H179.286C179.144 32.415 177.943 30.6449 174.281 30.6449C170.741 30.6449 169.581 32.3947 169.581 33.9003C169.581 35.1821 170.171 36.6063 174.057 37.1353C176.316 37.4201 176.804 37.8067 176.804 38.4781C176.804 39.1088 176.316 39.6378 174.708 39.6378C173.142 39.6378 172.328 39.0681 172.043 38.1729H169.174ZM181.871 41.3672H184.76V30.9298H181.871V41.3672ZM184.76 28.7121V26.1688H181.871V28.7121H184.76ZM187.712 41.3672H190.601V36.2197C190.601 34.1648 191.415 32.9033 193.165 32.9033C194.793 32.9033 195.322 34.063 195.322 35.4262V41.3672H198.231V34.9582C198.231 32.2116 196.685 30.6449 194.141 30.6449C192.046 30.6449 191.049 31.6419 190.581 32.4557C190.561 31.9471 190.54 31.235 190.5 30.9298H187.692C187.712 31.6826 187.712 32.6795 187.712 33.5544V41.3672ZM211.763 36.8301C211.784 36.5452 211.784 36.3621 211.784 36.1383C211.784 33.473 210.217 30.6449 206.188 30.6449C202.547 30.6449 200.512 33.1475 200.512 36.1587C200.512 38.8443 202.119 41.652 206.229 41.652C209.505 41.652 211.031 40.004 211.641 38.2339H208.772C208.325 39.0071 207.653 39.475 206.27 39.475C204.54 39.475 203.482 38.3357 203.381 36.8301H211.763ZM203.421 35.0193C203.564 33.7782 204.317 32.6999 206.188 32.6999C208.264 32.6999 208.772 34.0834 208.854 35.0193H203.421ZM213.323 38.1729C213.669 40.4109 215.765 41.652 218.674 41.652C222.336 41.652 223.781 40.1261 223.781 38.2339C223.781 36.7487 223.171 35.4059 219.02 34.7955C216.945 34.4903 216.558 34.1648 216.558 33.6358C216.558 33.1882 216.843 32.5981 218.308 32.5981C220.037 32.5981 220.444 33.3102 220.587 33.8392H223.435C223.293 32.415 222.092 30.6449 218.43 30.6449C214.89 30.6449 213.73 32.3947 213.73 33.9003C213.73 35.1821 214.32 36.6063 218.206 37.1353C220.465 37.4201 220.953 37.8067 220.953 38.4781C220.953 39.1088 220.465 39.6378 218.857 39.6378C217.291 39.6378 216.477 39.0681 216.192 38.1729H213.323ZM225.324 38.1729C225.67 40.4109 227.766 41.652 230.675 41.652C234.337 41.652 235.782 40.1261 235.782 38.2339C235.782 36.7487 235.171 35.4059 231.021 34.7955C228.946 34.4903 228.559 34.1648 228.559 33.6358C228.559 33.1882 228.844 32.5981 230.309 32.5981C232.038 32.5981 232.445 33.3102 232.587 33.8392H235.436C235.293 32.415 234.093 30.6449 230.431 30.6449C226.891 30.6449 225.731 32.3947 225.731 33.9003C225.731 35.1821 226.321 36.6063 230.207 37.1353C232.465 37.4201 232.954 37.8067 232.954 38.4781C232.954 39.1088 232.465 39.6378 230.858 39.6378C229.291 39.6378 228.478 39.0681 228.193 38.1729H225.324ZM244.389 36.8911V36.708C244.389 35.8535 244.816 35.2634 246.037 34.3886C247.97 33.005 248.356 32.0691 248.356 30.6042C248.356 28.8952 246.973 26.6775 243.168 26.6775C238.794 26.6775 237.756 29.3428 237.614 30.8891H240.482C240.706 29.5869 241.601 28.8138 243.046 28.8138C244.735 28.8138 245.406 29.7294 245.406 30.6856C245.406 31.5401 244.999 32.0081 243.758 32.9033C241.825 34.3275 241.398 35.2838 241.398 36.5249V36.8911H244.389ZM244.389 41.3672V38.1932H241.398V41.3672H244.389Z" fill="white"/>
<path d="M97.1191 68.3672H98.3311V64.7072H102.291V63.6632H98.3311V61.0832H102.555V60.0272H97.1191V68.3672ZM108.763 65.5352C108.787 65.3672 108.787 65.2232 108.787 65.0312C108.787 63.6872 108.127 62.1152 106.135 62.1152C104.251 62.1152 103.327 63.5432 103.327 65.3792C103.327 66.9632 104.131 68.5112 106.063 68.5112C107.791 68.5112 108.439 67.4312 108.679 66.6512H107.491C107.311 67.0832 107.011 67.5392 106.099 67.5392C105.103 67.5392 104.527 66.6872 104.515 65.5352H108.763ZM104.551 64.7312C104.647 63.7352 105.091 63.0272 106.123 63.0272C107.119 63.0272 107.587 63.7832 107.599 64.7312H104.551ZM115.197 65.5352C115.221 65.3672 115.221 65.2232 115.221 65.0312C115.221 63.6872 114.561 62.1152 112.569 62.1152C110.685 62.1152 109.761 63.5432 109.761 65.3792C109.761 66.9632 110.565 68.5112 112.497 68.5112C114.225 68.5112 114.873 67.4312 115.113 66.6512H113.925C113.745 67.0832 113.445 67.5392 112.533 67.5392C111.537 67.5392 110.961 66.6872 110.949 65.5352H115.197ZM110.985 64.7312C111.081 63.7352 111.525 63.0272 112.557 63.0272C113.553 63.0272 114.021 63.7832 114.033 64.7312H110.985ZM117.743 68.3672V59.5712H116.567V68.3672H117.743ZM123.877 68.3672V63.1952H125.077V62.2592H123.877V61.6472C123.877 60.7952 124.105 60.4592 124.705 60.4592C124.873 60.4592 125.077 60.4712 125.209 60.5072V59.5232C125.065 59.4752 124.753 59.4512 124.513 59.4512C123.169 59.4512 122.701 60.4112 122.701 61.5632V62.2592H121.741V63.1952H122.701V68.3672H123.877ZM125.966 68.3672H127.142V65.4632C127.142 63.8912 127.934 63.3032 129.182 63.2792V62.1152C128.162 62.1392 127.454 62.6672 127.142 63.4712C127.142 62.9312 127.13 62.4272 127.106 62.2592H125.954C125.954 62.6192 125.966 63.1112 125.966 63.9152V68.3672ZM135.212 65.5352C135.236 65.3672 135.236 65.2232 135.236 65.0312C135.236 63.6872 134.576 62.1152 132.584 62.1152C130.7 62.1152 129.776 63.5432 129.776 65.3792C129.776 66.9632 130.58 68.5112 132.512 68.5112C134.24 68.5112 134.888 67.4312 135.128 66.6512H133.94C133.76 67.0832 133.46 67.5392 132.548 67.5392C131.552 67.5392 130.976 66.6872 130.964 65.5352H135.212ZM131 64.7312C131.096 63.7352 131.54 63.0272 132.572 63.0272C133.568 63.0272 134.036 63.7832 134.048 64.7312H131ZM141.646 65.5352C141.67 65.3672 141.67 65.2232 141.67 65.0312C141.67 63.6872 141.01 62.1152 139.018 62.1152C137.134 62.1152 136.21 63.5432 136.21 65.3792C136.21 66.9632 137.014 68.5112 138.946 68.5112C140.674 68.5112 141.322 67.4312 141.562 66.6512H140.374C140.194 67.0832 139.894 67.5392 138.982 67.5392C137.986 67.5392 137.41 66.6872 137.398 65.5352H141.646ZM137.434 64.7312C137.53 63.7352 137.974 63.0272 139.006 63.0272C140.002 63.0272 140.47 63.7832 140.482 64.7312H137.434ZM145.249 63.1952H146.281V66.9032C146.281 67.9352 146.689 68.4512 147.697 68.4512C147.997 68.4512 148.369 68.4392 148.645 68.3432V67.4672C148.489 67.5152 148.285 67.5152 148.141 67.5152C147.601 67.5152 147.457 67.2392 147.457 66.6632V63.1952H148.777V62.2592H147.457V60.4832H146.281V62.2592H145.249V63.1952ZM152.321 62.1152C150.461 62.1152 149.405 63.5072 149.405 65.3192C149.405 67.1552 150.473 68.5112 152.249 68.5112C154.133 68.5112 155.153 67.0832 155.153 65.2952C155.153 63.3872 154.037 62.1152 152.321 62.1152ZM152.273 63.0872C153.353 63.0872 153.953 63.9632 153.953 65.3192C153.953 66.6632 153.353 67.5392 152.297 67.5392C151.253 67.5392 150.617 66.6152 150.617 65.3072C150.617 63.9392 151.193 63.0872 152.273 63.0872ZM158.977 66.6032C159.133 67.6952 159.901 68.5112 161.533 68.5112C163.129 68.5112 163.957 67.7072 163.957 66.6392C163.957 65.7392 163.609 65.1032 161.713 64.6592C160.621 64.3952 160.381 64.1912 160.381 63.7592C160.381 63.3872 160.621 63.0032 161.425 63.0032C162.337 63.0032 162.601 63.5312 162.685 63.8912H163.813C163.741 63.0512 163.105 62.1152 161.473 62.1152C159.853 62.1152 159.217 62.9912 159.217 63.8552C159.217 64.6952 159.565 65.2472 161.365 65.6792C162.469 65.9552 162.745 66.1952 162.745 66.7352C162.745 67.2512 162.421 67.5992 161.581 67.5992C160.789 67.5992 160.309 67.2392 160.153 66.6032H158.977ZM170.322 65.5352C170.346 65.3672 170.346 65.2232 170.346 65.0312C170.346 63.6872 169.686 62.1152 167.694 62.1152C165.81 62.1152 164.886 63.5432 164.886 65.3792C164.886 66.9632 165.69 68.5112 167.622 68.5112C169.35 68.5112 169.998 67.4312 170.238 66.6512H169.05C168.87 67.0832 168.57 67.5392 167.658 67.5392C166.662 67.5392 166.086 66.6872 166.074 65.5352H170.322ZM166.11 64.7312C166.206 63.7352 166.65 63.0272 167.682 63.0272C168.678 63.0272 169.146 63.7832 169.158 64.7312H166.11ZM172.868 68.3672V59.5712H171.692V68.3672H172.868ZM179.638 65.5352C179.662 65.3672 179.662 65.2232 179.662 65.0312C179.662 63.6872 179.002 62.1152 177.01 62.1152C175.126 62.1152 174.202 63.5432 174.202 65.3792C174.202 66.9632 175.006 68.5112 176.938 68.5112C178.666 68.5112 179.314 67.4312 179.554 66.6512H178.366C178.186 67.0832 177.886 67.5392 176.974 67.5392C175.978 67.5392 175.402 66.6872 175.39 65.5352H179.638ZM175.426 64.7312C175.522 63.7352 175.966 63.0272 176.998 63.0272C177.994 63.0272 178.462 63.7832 178.474 64.7312H175.426ZM184.8 66.4832C184.572 67.1552 184.152 67.5512 183.42 67.5512C182.424 67.5512 181.86 66.6752 181.86 65.3072C181.86 63.9632 182.436 63.0872 183.456 63.0872C184.296 63.0872 184.668 63.5792 184.8 64.1792H185.964C185.892 63.4112 185.292 62.1152 183.48 62.1152C181.644 62.1152 180.648 63.6032 180.648 65.3432C180.648 67.2752 181.68 68.5112 183.396 68.5112C185.004 68.5112 185.712 67.5272 185.964 66.4832H184.8ZM186.57 63.1952H187.602V66.9032C187.602 67.9352 188.01 68.4512 189.018 68.4512C189.318 68.4512 189.69 68.4392 189.965 68.3432V67.4672C189.81 67.5152 189.605 67.5152 189.462 67.5152C188.922 67.5152 188.778 67.2392 188.778 66.6632V63.1952H190.098V62.2592H188.778V60.4832H187.602V62.2592H186.57V63.1952ZM194.251 68.3672H195.415V64.9832C195.415 63.8432 195.859 63.1112 196.783 63.1112C197.695 63.1112 197.911 63.7832 197.911 64.5392V68.3672H199.063V64.8632C199.063 63.8072 199.471 63.1112 200.407 63.1112C201.307 63.1112 201.559 63.8192 201.559 64.4912V68.3672H202.711V64.3592C202.711 62.7152 201.787 62.1152 200.779 62.1152C199.747 62.1152 199.183 62.6072 198.847 63.1712C198.619 62.5592 198.043 62.1152 197.179 62.1152C196.231 62.1152 195.703 62.6312 195.415 63.1592C195.415 62.8592 195.391 62.4392 195.367 62.2592H194.239C194.251 62.7632 194.251 63.3032 194.251 63.8312V68.3672ZM209.403 62.2592H208.227V65.4512C208.227 66.9272 207.819 67.5032 206.763 67.5032C205.803 67.5032 205.563 66.7952 205.563 66.0152V62.2592H204.387V66.2672C204.387 67.9472 205.335 68.5112 206.415 68.5112C207.339 68.5112 207.915 68.1512 208.227 67.4912C208.227 67.8392 208.239 68.2112 208.263 68.3672H209.415C209.415 67.9712 209.403 67.1792 209.403 66.5912V62.2592ZM212.325 68.3672V59.5712H211.149V68.3672H212.325ZM213.37 63.1952H214.402V66.9032C214.402 67.9352 214.81 68.4512 215.818 68.4512C216.118 68.4512 216.49 68.4392 216.766 68.3432V67.4672C216.61 67.5152 216.406 67.5152 216.262 67.5152C215.722 67.5152 215.578 67.2392 215.578 66.6632V63.1952H216.898V62.2592H215.578V60.4832H214.402V62.2592H213.37V63.1952ZM217.981 68.3672H219.157V62.2592H217.981V68.3672ZM219.157 60.9272V59.5712H217.981V60.9272H219.157ZM222.087 70.7552V67.6592C222.351 68.1152 222.855 68.5112 223.815 68.5112C225.291 68.5112 226.479 67.3352 226.479 65.1512C226.479 63.2912 225.447 62.1152 224.031 62.1152C223.011 62.1152 222.399 62.5952 222.087 63.1832C222.087 62.8232 222.063 62.4512 222.039 62.2592H220.899C220.911 62.7392 220.911 63.2432 220.911 63.7472V70.7552H222.087ZM225.267 65.1992C225.267 66.6512 224.703 67.5272 223.623 67.5272C222.423 67.5272 222.027 66.6992 222.027 65.3072C222.027 63.8672 222.495 63.0992 223.707 63.0992C224.703 63.0992 225.267 63.9392 225.267 65.1992ZM228.99 68.3672V59.5712H227.814V68.3672H228.99ZM235.759 65.5352C235.783 65.3672 235.783 65.2232 235.783 65.0312C235.783 63.6872 235.123 62.1152 233.131 62.1152C231.247 62.1152 230.323 63.5432 230.323 65.3792C230.323 66.9632 231.127 68.5112 233.059 68.5112C234.787 68.5112 235.435 67.4312 235.675 66.6512H234.487C234.307 67.0832 234.007 67.5392 233.095 67.5392C232.099 67.5392 231.523 66.6872 231.511 65.5352H235.759ZM231.547 64.7312C231.643 63.7352 232.087 63.0272 233.119 63.0272C234.115 63.0272 234.583 63.7832 234.595 64.7312H231.547Z" fill="#1A1A1A"/>
<path d="M97.1191 68.3672H98.3311V64.7072H102.291V63.6632H98.3311V61.0832H102.555V60.0272H97.1191V68.3672ZM108.763 65.5352C108.787 65.3672 108.787 65.2232 108.787 65.0312C108.787 63.6872 108.127 62.1152 106.135 62.1152C104.251 62.1152 103.327 63.5432 103.327 65.3792C103.327 66.9632 104.131 68.5112 106.063 68.5112C107.791 68.5112 108.439 67.4312 108.679 66.6512H107.491C107.311 67.0832 107.011 67.5392 106.099 67.5392C105.103 67.5392 104.527 66.6872 104.515 65.5352H108.763ZM104.551 64.7312C104.647 63.7352 105.091 63.0272 106.123 63.0272C107.119 63.0272 107.587 63.7832 107.599 64.7312H104.551ZM115.197 65.5352C115.221 65.3672 115.221 65.2232 115.221 65.0312C115.221 63.6872 114.561 62.1152 112.569 62.1152C110.685 62.1152 109.761 63.5432 109.761 65.3792C109.761 66.9632 110.565 68.5112 112.497 68.5112C114.225 68.5112 114.873 67.4312 115.113 66.6512H113.925C113.745 67.0832 113.445 67.5392 112.533 67.5392C111.537 67.5392 110.961 66.6872 110.949 65.5352H115.197ZM110.985 64.7312C111.081 63.7352 111.525 63.0272 112.557 63.0272C113.553 63.0272 114.021 63.7832 114.033 64.7312H110.985ZM117.743 68.3672V59.5712H116.567V68.3672H117.743ZM123.877 68.3672V63.1952H125.077V62.2592H123.877V61.6472C123.877 60.7952 124.105 60.4592 124.705 60.4592C124.873 60.4592 125.077 60.4712 125.209 60.5072V59.5232C125.065 59.4752 124.753 59.4512 124.513 59.4512C123.169 59.4512 122.701 60.4112 122.701 61.5632V62.2592H121.741V63.1952H122.701V68.3672H123.877ZM125.966 68.3672H127.142V65.4632C127.142 63.8912 127.934 63.3032 129.182 63.2792V62.1152C128.162 62.1392 127.454 62.6672 127.142 63.4712C127.142 62.9312 127.13 62.4272 127.106 62.2592H125.954C125.954 62.6192 125.966 63.1112 125.966 63.9152V68.3672ZM135.212 65.5352C135.236 65.3672 135.236 65.2232 135.236 65.0312C135.236 63.6872 134.576 62.1152 132.584 62.1152C130.7 62.1152 129.776 63.5432 129.776 65.3792C129.776 66.9632 130.58 68.5112 132.512 68.5112C134.24 68.5112 134.888 67.4312 135.128 66.6512H133.94C133.76 67.0832 133.46 67.5392 132.548 67.5392C131.552 67.5392 130.976 66.6872 130.964 65.5352H135.212ZM131 64.7312C131.096 63.7352 131.54 63.0272 132.572 63.0272C133.568 63.0272 134.036 63.7832 134.048 64.7312H131ZM141.646 65.5352C141.67 65.3672 141.67 65.2232 141.67 65.0312C141.67 63.6872 141.01 62.1152 139.018 62.1152C137.134 62.1152 136.21 63.5432 136.21 65.3792C136.21 66.9632 137.014 68.5112 138.946 68.5112C140.674 68.5112 141.322 67.4312 141.562 66.6512H140.374C140.194 67.0832 139.894 67.5392 138.982 67.5392C137.986 67.5392 137.41 66.6872 137.398 65.5352H141.646ZM137.434 64.7312C137.53 63.7352 137.974 63.0272 139.006 63.0272C140.002 63.0272 140.47 63.7832 140.482 64.7312H137.434ZM145.249 63.1952H146.281V66.9032C146.281 67.9352 146.689 68.4512 147.697 68.4512C147.997 68.4512 148.369 68.4392 148.645 68.3432V67.4672C148.489 67.5152 148.285 67.5152 148.141 67.5152C147.601 67.5152 147.457 67.2392 147.457 66.6632V63.1952H148.777V62.2592H147.457V60.4832H146.281V62.2592H145.249V63.1952ZM152.321 62.1152C150.461 62.1152 149.405 63.5072 149.405 65.3192C149.405 67.1552 150.473 68.5112 152.249 68.5112C154.133 68.5112 155.153 67.0832 155.153 65.2952C155.153 63.3872 154.037 62.1152 152.321 62.1152ZM152.273 63.0872C153.353 63.0872 153.953 63.9632 153.953 65.3192C153.953 66.6632 153.353 67.5392 152.297 67.5392C151.253 67.5392 150.617 66.6152 150.617 65.3072C150.617 63.9392 151.193 63.0872 152.273 63.0872ZM158.977 66.6032C159.133 67.6952 159.901 68.5112 161.533 68.5112C163.129 68.5112 163.957 67.7072 163.957 66.6392C163.957 65.7392 163.609 65.1032 161.713 64.6592C160.621 64.3952 160.381 64.1912 160.381 63.7592C160.381 63.3872 160.621 63.0032 161.425 63.0032C162.337 63.0032 162.601 63.5312 162.685 63.8912H163.813C163.741 63.0512 163.105 62.1152 161.473 62.1152C159.853 62.1152 159.217 62.9912 159.217 63.8552C159.217 64.6952 159.565 65.2472 161.365 65.6792C162.469 65.9552 162.745 66.1952 162.745 66.7352C162.745 67.2512 162.421 67.5992 161.581 67.5992C160.789 67.5992 160.309 67.2392 160.153 66.6032H158.977ZM170.322 65.5352C170.346 65.3672 170.346 65.2232 170.346 65.0312C170.346 63.6872 169.686 62.1152 167.694 62.1152C165.81 62.1152 164.886 63.5432 164.886 65.3792C164.886 66.9632 165.69 68.5112 167.622 68.5112C169.35 68.5112 169.998 67.4312 170.238 66.6512H169.05C168.87 67.0832 168.57 67.5392 167.658 67.5392C166.662 67.5392 166.086 66.6872 166.074 65.5352H170.322ZM166.11 64.7312C166.206 63.7352 166.65 63.0272 167.682 63.0272C168.678 63.0272 169.146 63.7832 169.158 64.7312H166.11ZM172.868 68.3672V59.5712H171.692V68.3672H172.868ZM179.638 65.5352C179.662 65.3672 179.662 65.2232 179.662 65.0312C179.662 63.6872 179.002 62.1152 177.01 62.1152C175.126 62.1152 174.202 63.5432 174.202 65.3792C174.202 66.9632 175.006 68.5112 176.938 68.5112C178.666 68.5112 179.314 67.4312 179.554 66.6512H178.366C178.186 67.0832 177.886 67.5392 176.974 67.5392C175.978 67.5392 175.402 66.6872 175.39 65.5352H179.638ZM175.426 64.7312C175.522 63.7352 175.966 63.0272 176.998 63.0272C177.994 63.0272 178.462 63.7832 178.474 64.7312H175.426ZM184.8 66.4832C184.572 67.1552 184.152 67.5512 183.42 67.5512C182.424 67.5512 181.86 66.6752 181.86 65.3072C181.86 63.9632 182.436 63.0872 183.456 63.0872C184.296 63.0872 184.668 63.5792 184.8 64.1792H185.964C185.892 63.4112 185.292 62.1152 183.48 62.1152C181.644 62.1152 180.648 63.6032 180.648 65.3432C180.648 67.2752 181.68 68.5112 183.396 68.5112C185.004 68.5112 185.712 67.5272 185.964 66.4832H184.8ZM186.57 63.1952H187.602V66.9032C187.602 67.9352 188.01 68.4512 189.018 68.4512C189.318 68.4512 189.69 68.4392 189.965 68.3432V67.4672C189.81 67.5152 189.605 67.5152 189.462 67.5152C188.922 67.5152 188.778 67.2392 188.778 66.6632V63.1952H190.098V62.2592H188.778V60.4832H187.602V62.2592H186.57V63.1952ZM194.251 68.3672H195.415V64.9832C195.415 63.8432 195.859 63.1112 196.783 63.1112C197.695 63.1112 197.911 63.7832 197.911 64.5392V68.3672H199.063V64.8632C199.063 63.8072 199.471 63.1112 200.407 63.1112C201.307 63.1112 201.559 63.8192 201.559 64.4912V68.3672H202.711V64.3592C202.711 62.7152 201.787 62.1152 200.779 62.1152C199.747 62.1152 199.183 62.6072 198.847 63.1712C198.619 62.5592 198.043 62.1152 197.179 62.1152C196.231 62.1152 195.703 62.6312 195.415 63.1592C195.415 62.8592 195.391 62.4392 195.367 62.2592H194.239C194.251 62.7632 194.251 63.3032 194.251 63.8312V68.3672ZM209.403 62.2592H208.227V65.4512C208.227 66.9272 207.819 67.5032 206.763 67.5032C205.803 67.5032 205.563 66.7952 205.563 66.0152V62.2592H204.387V66.2672C204.387 67.9472 205.335 68.5112 206.415 68.5112C207.339 68.5112 207.915 68.1512 208.227 67.4912C208.227 67.8392 208.239 68.2112 208.263 68.3672H209.415C209.415 67.9712 209.403 67.1792 209.403 66.5912V62.2592ZM212.325 68.3672V59.5712H211.149V68.3672H212.325ZM213.37 63.1952H214.402V66.9032C214.402 67.9352 214.81 68.4512 215.818 68.4512C216.118 68.4512 216.49 68.4392 216.766 68.3432V67.4672C216.61 67.5152 216.406 67.5152 216.262 67.5152C215.722 67.5152 215.578 67.2392 215.578 66.6632V63.1952H216.898V62.2592H215.578V60.4832H214.402V62.2592H213.37V63.1952ZM217.981 68.3672H219.157V62.2592H217.981V68.3672ZM219.157 60.9272V59.5712H217.981V60.9272H219.157ZM222.087 70.7552V67.6592C222.351 68.1152 222.855 68.5112 223.815 68.5112C225.291 68.5112 226.479 67.3352 226.479 65.1512C226.479 63.2912 225.447 62.1152 224.031 62.1152C223.011 62.1152 222.399 62.5952 222.087 63.1832C222.087 62.8232 222.063 62.4512 222.039 62.2592H220.899C220.911 62.7392 220.911 63.2432 220.911 63.7472V70.7552H222.087ZM225.267 65.1992C225.267 66.6512 224.703 67.5272 223.623 67.5272C222.423 67.5272 222.027 66.6992 222.027 65.3072C222.027 63.8672 222.495 63.0992 223.707 63.0992C224.703 63.0992 225.267 63.9392 225.267 65.1992ZM228.99 68.3672V59.5712H227.814V68.3672H228.99ZM235.759 65.5352C235.783 65.3672 235.783 65.2232 235.783 65.0312C235.783 63.6872 235.123 62.1152 233.131 62.1152C231.247 62.1152 230.323 63.5432 230.323 65.3792C230.323 66.9632 231.127 68.5112 233.059 68.5112C234.787 68.5112 235.435 67.4312 235.675 66.6512H234.487C234.307 67.0832 234.007 67.5392 233.095 67.5392C232.099 67.5392 231.523 66.6872 231.511 65.5352H235.759ZM231.547 64.7312C231.643 63.7352 232.087 63.0272 233.119 63.0272C234.115 63.0272 234.583 63.7832 234.595 64.7312H231.547Z" fill="white" fill-opacity="0.48"/>
<path d="M97.1191 68.3672H98.3311V64.7072H102.291V63.6632H98.3311V61.0832H102.555V60.0272H97.1191V68.3672ZM108.763 65.5352C108.787 65.3672 108.787 65.2232 108.787 65.0312C108.787 63.6872 108.127 62.1152 106.135 62.1152C104.251 62.1152 103.327 63.5432 103.327 65.3792C103.327 66.9632 104.131 68.5112 106.063 68.5112C107.791 68.5112 108.439 67.4312 108.679 66.6512H107.491C107.311 67.0832 107.011 67.5392 106.099 67.5392C105.103 67.5392 104.527 66.6872 104.515 65.5352H108.763ZM104.551 64.7312C104.647 63.7352 105.091 63.0272 106.123 63.0272C107.119 63.0272 107.587 63.7832 107.599 64.7312H104.551ZM115.197 65.5352C115.221 65.3672 115.221 65.2232 115.221 65.0312C115.221 63.6872 114.561 62.1152 112.569 62.1152C110.685 62.1152 109.761 63.5432 109.761 65.3792C109.761 66.9632 110.565 68.5112 112.497 68.5112C114.225 68.5112 114.873 67.4312 115.113 66.6512H113.925C113.745 67.0832 113.445 67.5392 112.533 67.5392C111.537 67.5392 110.961 66.6872 110.949 65.5352H115.197ZM110.985 64.7312C111.081 63.7352 111.525 63.0272 112.557 63.0272C113.553 63.0272 114.021 63.7832 114.033 64.7312H110.985ZM117.743 68.3672V59.5712H116.567V68.3672H117.743ZM123.877 68.3672V63.1952H125.077V62.2592H123.877V61.6472C123.877 60.7952 124.105 60.4592 124.705 60.4592C124.873 60.4592 125.077 60.4712 125.209 60.5072V59.5232C125.065 59.4752 124.753 59.4512 124.513 59.4512C123.169 59.4512 122.701 60.4112 122.701 61.5632V62.2592H121.741V63.1952H122.701V68.3672H123.877ZM125.966 68.3672H127.142V65.4632C127.142 63.8912 127.934 63.3032 129.182 63.2792V62.1152C128.162 62.1392 127.454 62.6672 127.142 63.4712C127.142 62.9312 127.13 62.4272 127.106 62.2592H125.954C125.954 62.6192 125.966 63.1112 125.966 63.9152V68.3672ZM135.212 65.5352C135.236 65.3672 135.236 65.2232 135.236 65.0312C135.236 63.6872 134.576 62.1152 132.584 62.1152C130.7 62.1152 129.776 63.5432 129.776 65.3792C129.776 66.9632 130.58 68.5112 132.512 68.5112C134.24 68.5112 134.888 67.4312 135.128 66.6512H133.94C133.76 67.0832 133.46 67.5392 132.548 67.5392C131.552 67.5392 130.976 66.6872 130.964 65.5352H135.212ZM131 64.7312C131.096 63.7352 131.54 63.0272 132.572 63.0272C133.568 63.0272 134.036 63.7832 134.048 64.7312H131ZM141.646 65.5352C141.67 65.3672 141.67 65.2232 141.67 65.0312C141.67 63.6872 141.01 62.1152 139.018 62.1152C137.134 62.1152 136.21 63.5432 136.21 65.3792C136.21 66.9632 137.014 68.5112 138.946 68.5112C140.674 68.5112 141.322 67.4312 141.562 66.6512H140.374C140.194 67.0832 139.894 67.5392 138.982 67.5392C137.986 67.5392 137.41 66.6872 137.398 65.5352H141.646ZM137.434 64.7312C137.53 63.7352 137.974 63.0272 139.006 63.0272C140.002 63.0272 140.47 63.7832 140.482 64.7312H137.434ZM145.249 63.1952H146.281V66.9032C146.281 67.9352 146.689 68.4512 147.697 68.4512C147.997 68.4512 148.369 68.4392 148.645 68.3432V67.4672C148.489 67.5152 148.285 67.5152 148.141 67.5152C147.601 67.5152 147.457 67.2392 147.457 66.6632V63.1952H148.777V62.2592H147.457V60.4832H146.281V62.2592H145.249V63.1952ZM152.321 62.1152C150.461 62.1152 149.405 63.5072 149.405 65.3192C149.405 67.1552 150.473 68.5112 152.249 68.5112C154.133 68.5112 155.153 67.0832 155.153 65.2952C155.153 63.3872 154.037 62.1152 152.321 62.1152ZM152.273 63.0872C153.353 63.0872 153.953 63.9632 153.953 65.3192C153.953 66.6632 153.353 67.5392 152.297 67.5392C151.253 67.5392 150.617 66.6152 150.617 65.3072C150.617 63.9392 151.193 63.0872 152.273 63.0872ZM158.977 66.6032C159.133 67.6952 159.901 68.5112 161.533 68.5112C163.129 68.5112 163.957 67.7072 163.957 66.6392C163.957 65.7392 163.609 65.1032 161.713 64.6592C160.621 64.3952 160.381 64.1912 160.381 63.7592C160.381 63.3872 160.621 63.0032 161.425 63.0032C162.337 63.0032 162.601 63.5312 162.685 63.8912H163.813C163.741 63.0512 163.105 62.1152 161.473 62.1152C159.853 62.1152 159.217 62.9912 159.217 63.8552C159.217 64.6952 159.565 65.2472 161.365 65.6792C162.469 65.9552 162.745 66.1952 162.745 66.7352C162.745 67.2512 162.421 67.5992 161.581 67.5992C160.789 67.5992 160.309 67.2392 160.153 66.6032H158.977ZM170.322 65.5352C170.346 65.3672 170.346 65.2232 170.346 65.0312C170.346 63.6872 169.686 62.1152 167.694 62.1152C165.81 62.1152 164.886 63.5432 164.886 65.3792C164.886 66.9632 165.69 68.5112 167.622 68.5112C169.35 68.5112 169.998 67.4312 170.238 66.6512H169.05C168.87 67.0832 168.57 67.5392 167.658 67.5392C166.662 67.5392 166.086 66.6872 166.074 65.5352H170.322ZM166.11 64.7312C166.206 63.7352 166.65 63.0272 167.682 63.0272C168.678 63.0272 169.146 63.7832 169.158 64.7312H166.11ZM172.868 68.3672V59.5712H171.692V68.3672H172.868ZM179.638 65.5352C179.662 65.3672 179.662 65.2232 179.662 65.0312C179.662 63.6872 179.002 62.1152 177.01 62.1152C175.126 62.1152 174.202 63.5432 174.202 65.3792C174.202 66.9632 175.006 68.5112 176.938 68.5112C178.666 68.5112 179.314 67.4312 179.554 66.6512H178.366C178.186 67.0832 177.886 67.5392 176.974 67.5392C175.978 67.5392 175.402 66.6872 175.39 65.5352H179.638ZM175.426 64.7312C175.522 63.7352 175.966 63.0272 176.998 63.0272C177.994 63.0272 178.462 63.7832 178.474 64.7312H175.426ZM184.8 66.4832C184.572 67.1552 184.152 67.5512 183.42 67.5512C182.424 67.5512 181.86 66.6752 181.86 65.3072C181.86 63.9632 182.436 63.0872 183.456 63.0872C184.296 63.0872 184.668 63.5792 184.8 64.1792H185.964C185.892 63.4112 185.292 62.1152 183.48 62.1152C181.644 62.1152 180.648 63.6032 180.648 65.3432C180.648 67.2752 181.68 68.5112 183.396 68.5112C185.004 68.5112 185.712 67.5272 185.964 66.4832H184.8ZM186.57 63.1952H187.602V66.9032C187.602 67.9352 188.01 68.4512 189.018 68.4512C189.318 68.4512 189.69 68.4392 189.965 68.3432V67.4672C189.81 67.5152 189.605 67.5152 189.462 67.5152C188.922 67.5152 188.778 67.2392 188.778 66.6632V63.1952H190.098V62.2592H188.778V60.4832H187.602V62.2592H186.57V63.1952ZM194.251 68.3672H195.415V64.9832C195.415 63.8432 195.859 63.1112 196.783 63.1112C197.695 63.1112 197.911 63.7832 197.911 64.5392V68.3672H199.063V64.8632C199.063 63.8072 199.471 63.1112 200.407 63.1112C201.307 63.1112 201.559 63.8192 201.559 64.4912V68.3672H202.711V64.3592C202.711 62.7152 201.787 62.1152 200.779 62.1152C199.747 62.1152 199.183 62.6072 198.847 63.1712C198.619 62.5592 198.043 62.1152 197.179 62.1152C196.231 62.1152 195.703 62.6312 195.415 63.1592C195.415 62.8592 195.391 62.4392 195.367 62.2592H194.239C194.251 62.7632 194.251 63.3032 194.251 63.8312V68.3672ZM209.403 62.2592H208.227V65.4512C208.227 66.9272 207.819 67.5032 206.763 67.5032C205.803 67.5032 205.563 66.7952 205.563 66.0152V62.2592H204.387V66.2672C204.387 67.9472 205.335 68.5112 206.415 68.5112C207.339 68.5112 207.915 68.1512 208.227 67.4912C208.227 67.8392 208.239 68.2112 208.263 68.3672H209.415C209.415 67.9712 209.403 67.1792 209.403 66.5912V62.2592ZM212.325 68.3672V59.5712H211.149V68.3672H212.325ZM213.37 63.1952H214.402V66.9032C214.402 67.9352 214.81 68.4512 215.818 68.4512C216.118 68.4512 216.49 68.4392 216.766 68.3432V67.4672C216.61 67.5152 216.406 67.5152 216.262 67.5152C215.722 67.5152 215.578 67.2392 215.578 66.6632V63.1952H216.898V62.2592H215.578V60.4832H214.402V62.2592H213.37V63.1952ZM217.981 68.3672H219.157V62.2592H217.981V68.3672ZM219.157 60.9272V59.5712H217.981V60.9272H219.157ZM222.087 70.7552V67.6592C222.351 68.1152 222.855 68.5112 223.815 68.5112C225.291 68.5112 226.479 67.3352 226.479 65.1512C226.479 63.2912 225.447 62.1152 224.031 62.1152C223.011 62.1152 222.399 62.5952 222.087 63.1832C222.087 62.8232 222.063 62.4512 222.039 62.2592H220.899C220.911 62.7392 220.911 63.2432 220.911 63.7472V70.7552H222.087ZM225.267 65.1992C225.267 66.6512 224.703 67.5272 223.623 67.5272C222.423 67.5272 222.027 66.6992 222.027 65.3072C222.027 63.8672 222.495 63.0992 223.707 63.0992C224.703 63.0992 225.267 63.9392 225.267 65.1992ZM228.99 68.3672V59.5712H227.814V68.3672H228.99ZM235.759 65.5352C235.783 65.3672 235.783 65.2232 235.783 65.0312C235.783 63.6872 235.123 62.1152 233.131 62.1152C231.247 62.1152 230.323 63.5432 230.323 65.3792C230.323 66.9632 231.127 68.5112 233.059 68.5112C234.787 68.5112 235.435 67.4312 235.675 66.6512H234.487C234.307 67.0832 234.007 67.5392 233.095 67.5392C232.099 67.5392 231.523 66.6872 231.511 65.5352H235.759ZM231.547 64.7312C231.643 63.7352 232.087 63.0272 233.119 63.0272C234.115 63.0272 234.583 63.7832 234.595 64.7312H231.547Z" fill="#E8E8ED"/>
</svg>
