<svg width="183" height="367" viewBox="0 0 183 367" fill="none" xmlns="http://www.w3.org/2000/svg">
<path d="M28.6841 65.0397L43.4599 62.9631L43.9981 58.0942L34.0289 59.4953L34.0596 24.2601L28.719 25.0107L28.6841 65.0397ZM59.0288 49.2112L60.7989 60.5263L66.3769 59.7424L59.7064 20.6557L52.1701 21.7148L45.6671 62.6529L51.067 61.894L52.6793 50.1036L59.0288 49.2112ZM53.3958 45.0298C54.2915 38.433 55.6046 29.5006 55.7855 26.2397L55.9635 26.2147C56.3752 30.351 57.3189 36.8691 58.3804 44.3293L53.3958 45.0298ZM69.2783 19.3104L69.2515 49.9914C69.2457 56.583 72.1506 59.4702 78.144 58.6278C84.3154 57.7605 87.1076 53.6533 87.1131 47.4212L87.1398 16.8002L81.8585 17.5424L81.8316 48.2833C81.829 51.2795 80.9372 53.3821 78.2075 53.7657C75.5965 54.1326 74.5894 52.3569 74.5921 49.3007L74.6189 18.5599L69.2783 19.3104ZM97.4714 55.3723L97.4822 43.028C97.4885 35.7772 97.4342 29.973 97.2011 25.1525L97.2604 25.1442C97.4967 26.3093 97.792 27.9455 98.3242 29.9677L104.83 54.3382L110.823 53.4959L110.858 13.4668L105.933 14.159L105.922 26.1438C105.917 32.6754 105.912 38.3083 106.204 43.42L106.085 43.4367C105.79 41.7406 105.377 39.402 104.548 36.5226L98.7525 15.1681L92.5217 16.0438L92.4868 56.0728L97.4714 55.3723ZM127.408 39.4213L127.407 41.3988C127.404 44.6946 126.808 46.9353 124.257 47.2939C121.646 47.6608 120.995 45.4755 120.998 42.2995L121.016 21.2663C121.019 18.2102 121.733 16.2525 124.165 15.9105C126.717 15.5519 127.309 17.446 127.306 20.3223L127.304 22.5994L132.645 21.8489L132.646 20.171C132.651 14.7179 131.291 10.0559 124.229 11.0484C118.354 11.874 115.562 16.1011 115.556 22.3931L115.539 42.6473C115.534 48.6397 116.954 53.1735 124.074 52.1727C131.967 51.0635 132.803 44.8945 132.807 40.1006L132.808 38.6624L127.408 39.4213ZM136.587 49.875L141.927 49.1244L141.944 30.1885L149.183 29.1711L149.167 48.107L154.507 47.3564L154.542 7.32736L149.202 8.07794L149.188 24.1974L141.948 25.2149L141.962 9.09539L136.622 9.84597L136.587 49.875ZM60.7624 117.524L60.7746 103.562C60.7752 102.843 60.8348 102.475 60.8944 102.167L68.3929 76.4279L62.7555 77.2201C61.1476 84.0369 59.1231 92.2304 58.2886 96.6617L58.2292 96.67C57.6394 92.6786 55.5694 85.0606 53.8545 78.4711L47.9797 79.2967L55.3168 102.532C55.4351 102.994 55.4941 103.286 55.4937 103.765L55.4811 118.267L60.7624 117.524ZM79.2545 74.3621C73.4392 75.1794 69.935 79.147 69.9287 86.4577L69.9117 105.873C69.9055 113.004 72.5725 116.404 78.8626 115.52C85.2121 114.627 88.3009 110.658 88.3074 103.228L88.3242 83.9323C88.3304 76.8014 85.1886 73.5281 79.2545 74.3621ZM79.1316 79.2326C81.7426 78.8657 82.9278 80.5565 82.9246 84.2119L82.9069 104.526C82.9034 108.541 81.6559 110.274 79.1042 110.633C76.7306 110.966 75.3672 109.54 75.3705 105.705L75.3884 85.271C75.3917 81.4958 76.6393 79.5829 79.1316 79.2326ZM92.8431 72.9916L92.8163 103.673C92.8105 110.264 95.7154 113.151 101.709 112.309C107.88 111.442 110.672 107.334 110.678 101.102L110.705 70.4813L105.423 71.2236L105.396 101.964C105.394 104.961 104.502 107.063 101.772 107.447C99.1613 107.814 98.1542 106.038 98.1569 102.982L98.1837 72.241L92.8431 72.9916ZM116.052 109.754L121.392 109.003L121.408 90.7866L123.248 90.5281C126.927 90.011 127.638 91.1693 127.633 96.143C127.631 99.0194 127.506 105.688 128.038 108.069L133.142 107.352C132.728 104.954 132.793 98.4736 132.796 95.0579C132.801 89.6648 131.556 88.1021 129.124 87.3654C130.965 86.4477 133.162 84.2815 133.167 78.409L133.168 76.7911C133.174 69.8399 129.913 67.7818 123.919 68.6241L116.087 69.725L116.052 109.754ZM121.423 73.4687L123.381 73.1934C127.061 72.6764 127.89 74.5371 127.887 77.8928L127.885 79.4509C127.882 83.7654 126.753 85.5418 123.311 86.0255L121.412 86.2923L121.423 73.4687ZM56.6257 249.061L56.5907 289.09L61.9314 288.339L61.9663 248.31L56.6257 249.061ZM72.4699 286.858L72.4807 274.514C72.487 267.263 72.4327 261.459 72.1996 256.638L72.259 256.63C72.4953 257.795 72.7905 259.431 73.3227 261.453L79.8281 285.824L85.8215 284.982L85.8565 244.952L80.9312 245.645L80.9207 257.629C80.915 264.161 80.9101 269.794 81.2023 274.906L81.0837 274.922C80.7885 273.226 80.3752 270.888 79.547 268.008L73.751 246.654L67.5202 247.529L67.4853 287.559L72.4699 286.858ZM95.1528 283.67L100.434 282.928L100.465 247.872L106.874 246.972L106.878 241.998L88.779 244.542L88.7747 249.515L95.1834 248.615L95.1528 283.67ZM118.019 239.893C112.203 240.71 108.699 244.678 108.693 251.989L108.676 271.404C108.67 278.535 111.337 281.935 117.627 281.051C123.976 280.158 127.065 276.189 127.071 268.759L127.088 249.463C127.094 242.332 123.953 239.059 118.019 239.893ZM117.896 244.764C120.507 244.397 121.692 246.088 121.689 249.743L121.671 270.057C121.667 274.072 120.42 275.805 117.868 276.164C115.495 276.497 114.131 275.071 114.135 271.236L114.152 250.802C114.156 247.027 115.403 245.114 117.896 244.764ZM28.2325 350.068L33.5732 349.318L33.5891 331.101L35.4286 330.842C39.1077 330.325 39.8187 331.483 39.8144 336.457C39.8119 339.333 39.6874 346.002 40.2193 348.383L45.3226 347.666C44.9094 345.268 44.9744 338.788 44.9773 335.372C44.982 329.979 43.7374 328.416 41.3054 327.68C43.1455 326.762 45.3427 324.596 45.3479 318.723L45.3493 317.105C45.3553 310.154 42.0938 308.096 36.1004 308.938L28.2675 310.039L28.2325 350.068ZM33.6042 313.783L35.5624 313.508C39.2415 312.99 40.0706 314.851 40.0677 318.207L40.0663 319.765C40.0625 324.079 38.9336 325.856 35.4919 326.34L33.593 326.606L33.6042 313.783ZM64.164 321.351L55.3816 322.586L55.3915 311.2L64.6486 309.899L64.653 304.925L50.0552 306.977L50.0203 347.006L64.7367 344.938L65.3938 339.932L55.3652 341.342L55.3773 327.499L64.1597 326.265L64.164 321.351ZM80.8879 331.104L82.658 342.419L88.2361 341.635L81.5655 302.549L74.0292 303.608L67.5262 344.546L72.9262 343.787L74.5385 331.996L80.8879 331.104ZM75.2549 326.923C76.1507 320.326 77.4638 311.393 77.6446 308.133L77.8226 308.108C78.2344 312.244 79.178 318.762 80.2395 326.222L75.2549 326.923ZM91.3398 341.199L106.116 339.122L106.654 334.253L96.6847 335.654L96.7154 300.419L91.3748 301.17L91.3398 341.199ZM109.165 298.67L109.13 338.699L114.471 337.948L114.506 297.919L109.165 298.67ZM123.759 336.643L129.041 335.9L129.071 300.845L135.48 299.944L135.484 294.971L117.385 297.514L117.381 302.488L123.79 301.587L123.759 336.643ZM150.038 332.949L150.05 318.987C150.051 318.268 150.11 317.9 150.17 317.592L157.668 291.853L152.031 292.645C150.423 299.462 148.399 307.655 147.564 312.087L147.505 312.095C146.915 308.104 144.845 300.486 143.13 293.896L137.255 294.722L144.592 317.957C144.711 318.42 144.77 318.711 144.769 319.19L144.757 333.692L150.038 332.949Z" fill="#EFEEFF"/>
<path d="M28.6841 65.0397L43.4599 62.9631L43.9981 58.0942L34.0289 59.4953L34.0596 24.2601L28.719 25.0107L28.6841 65.0397ZM59.0288 49.2112L60.7989 60.5263L66.3769 59.7424L59.7064 20.6557L52.1701 21.7148L45.6671 62.6529L51.067 61.894L52.6793 50.1036L59.0288 49.2112ZM53.3958 45.0298C54.2915 38.433 55.6046 29.5006 55.7855 26.2397L55.9635 26.2147C56.3752 30.351 57.3189 36.8691 58.3804 44.3293L53.3958 45.0298ZM69.2783 19.3104L69.2515 49.9914C69.2457 56.583 72.1506 59.4702 78.144 58.6278C84.3154 57.7605 87.1076 53.6533 87.1131 47.4212L87.1398 16.8002L81.8585 17.5424L81.8316 48.2833C81.829 51.2795 80.9372 53.3821 78.2075 53.7657C75.5965 54.1326 74.5894 52.3569 74.5921 49.3007L74.6189 18.5599L69.2783 19.3104ZM97.4714 55.3723L97.4822 43.028C97.4885 35.7772 97.4342 29.973 97.2011 25.1525L97.2604 25.1442C97.4967 26.3093 97.792 27.9455 98.3242 29.9677L104.83 54.3382L110.823 53.4959L110.858 13.4668L105.933 14.159L105.922 26.1438C105.917 32.6754 105.912 38.3083 106.204 43.42L106.085 43.4367C105.79 41.7406 105.377 39.402 104.548 36.5226L98.7525 15.1681L92.5217 16.0438L92.4868 56.0728L97.4714 55.3723ZM127.408 39.4213L127.407 41.3988C127.404 44.6946 126.808 46.9353 124.257 47.2939C121.646 47.6608 120.995 45.4755 120.998 42.2995L121.016 21.2663C121.019 18.2102 121.733 16.2525 124.165 15.9105C126.717 15.5519 127.309 17.446 127.306 20.3223L127.304 22.5994L132.645 21.8489L132.646 20.171C132.651 14.7179 131.291 10.0559 124.229 11.0484C118.354 11.874 115.562 16.1011 115.556 22.3931L115.539 42.6473C115.534 48.6397 116.954 53.1735 124.074 52.1727C131.967 51.0635 132.803 44.8945 132.807 40.1006L132.808 38.6624L127.408 39.4213ZM136.587 49.875L141.927 49.1244L141.944 30.1885L149.183 29.1711L149.167 48.107L154.507 47.3564L154.542 7.32736L149.202 8.07794L149.188 24.1974L141.948 25.2149L141.962 9.09539L136.622 9.84597L136.587 49.875ZM60.7624 117.524L60.7746 103.562C60.7752 102.843 60.8348 102.475 60.8944 102.167L68.3929 76.4279L62.7555 77.2201C61.1476 84.0369 59.1231 92.2304 58.2886 96.6617L58.2292 96.67C57.6394 92.6786 55.5694 85.0606 53.8545 78.4711L47.9797 79.2967L55.3168 102.532C55.4351 102.994 55.4941 103.286 55.4937 103.765L55.4811 118.267L60.7624 117.524ZM79.2545 74.3621C73.4392 75.1794 69.935 79.147 69.9287 86.4577L69.9117 105.873C69.9055 113.004 72.5725 116.404 78.8626 115.52C85.2121 114.627 88.3009 110.658 88.3074 103.228L88.3242 83.9323C88.3304 76.8014 85.1886 73.5281 79.2545 74.3621ZM79.1316 79.2326C81.7426 78.8657 82.9278 80.5565 82.9246 84.2119L82.9069 104.526C82.9034 108.541 81.6559 110.274 79.1042 110.633C76.7306 110.966 75.3672 109.54 75.3705 105.705L75.3884 85.271C75.3917 81.4958 76.6393 79.5829 79.1316 79.2326ZM92.8431 72.9916L92.8163 103.673C92.8105 110.264 95.7154 113.151 101.709 112.309C107.88 111.442 110.672 107.334 110.678 101.102L110.705 70.4813L105.423 71.2236L105.396 101.964C105.394 104.961 104.502 107.063 101.772 107.447C99.1613 107.814 98.1542 106.038 98.1569 102.982L98.1837 72.241L92.8431 72.9916ZM116.052 109.754L121.392 109.003L121.408 90.7866L123.248 90.5281C126.927 90.011 127.638 91.1693 127.633 96.143C127.631 99.0194 127.506 105.688 128.038 108.069L133.142 107.352C132.728 104.954 132.793 98.4736 132.796 95.0579C132.801 89.6648 131.556 88.1021 129.124 87.3654C130.965 86.4477 133.162 84.2815 133.167 78.409L133.168 76.7911C133.174 69.8399 129.913 67.7818 123.919 68.6241L116.087 69.725L116.052 109.754ZM121.423 73.4687L123.381 73.1934C127.061 72.6764 127.89 74.5371 127.887 77.8928L127.885 79.4509C127.882 83.7654 126.753 85.5418 123.311 86.0255L121.412 86.2923L121.423 73.4687ZM56.6257 249.061L56.5907 289.09L61.9314 288.339L61.9663 248.31L56.6257 249.061ZM72.4699 286.858L72.4807 274.514C72.487 267.263 72.4327 261.459 72.1996 256.638L72.259 256.63C72.4953 257.795 72.7905 259.431 73.3227 261.453L79.8281 285.824L85.8215 284.982L85.8565 244.952L80.9312 245.645L80.9207 257.629C80.915 264.161 80.9101 269.794 81.2023 274.906L81.0837 274.922C80.7885 273.226 80.3752 270.888 79.547 268.008L73.751 246.654L67.5202 247.529L67.4853 287.559L72.4699 286.858ZM95.1528 283.67L100.434 282.928L100.465 247.872L106.874 246.972L106.878 241.998L88.779 244.542L88.7747 249.515L95.1834 248.615L95.1528 283.67ZM118.019 239.893C112.203 240.71 108.699 244.678 108.693 251.989L108.676 271.404C108.67 278.535 111.337 281.935 117.627 281.051C123.976 280.158 127.065 276.189 127.071 268.759L127.088 249.463C127.094 242.332 123.953 239.059 118.019 239.893ZM117.896 244.764C120.507 244.397 121.692 246.088 121.689 249.743L121.671 270.057C121.667 274.072 120.42 275.805 117.868 276.164C115.495 276.497 114.131 275.071 114.135 271.236L114.152 250.802C114.156 247.027 115.403 245.114 117.896 244.764ZM28.2325 350.068L33.5732 349.318L33.5891 331.101L35.4286 330.842C39.1077 330.325 39.8187 331.483 39.8144 336.457C39.8119 339.333 39.6874 346.002 40.2193 348.383L45.3226 347.666C44.9094 345.268 44.9744 338.788 44.9773 335.372C44.982 329.979 43.7374 328.416 41.3054 327.68C43.1455 326.762 45.3427 324.596 45.3479 318.723L45.3493 317.105C45.3553 310.154 42.0938 308.096 36.1004 308.938L28.2675 310.039L28.2325 350.068ZM33.6042 313.783L35.5624 313.508C39.2415 312.99 40.0706 314.851 40.0677 318.207L40.0663 319.765C40.0625 324.079 38.9336 325.856 35.4919 326.34L33.593 326.606L33.6042 313.783ZM64.164 321.351L55.3816 322.586L55.3915 311.2L64.6486 309.899L64.653 304.925L50.0552 306.977L50.0203 347.006L64.7367 344.938L65.3938 339.932L55.3652 341.342L55.3773 327.499L64.1597 326.265L64.164 321.351ZM80.8879 331.104L82.658 342.419L88.2361 341.635L81.5655 302.549L74.0292 303.608L67.5262 344.546L72.9262 343.787L74.5385 331.996L80.8879 331.104ZM75.2549 326.923C76.1507 320.326 77.4638 311.393 77.6446 308.133L77.8226 308.108C78.2344 312.244 79.178 318.762 80.2395 326.222L75.2549 326.923ZM91.3398 341.199L106.116 339.122L106.654 334.253L96.6847 335.654L96.7154 300.419L91.3748 301.17L91.3398 341.199ZM109.165 298.67L109.13 338.699L114.471 337.948L114.506 297.919L109.165 298.67ZM123.759 336.643L129.041 335.9L129.071 300.845L135.48 299.944L135.484 294.971L117.385 297.514L117.381 302.488L123.79 301.587L123.759 336.643ZM150.038 332.949L150.05 318.987C150.051 318.268 150.11 317.9 150.17 317.592L157.668 291.853L152.031 292.645C150.423 299.462 148.399 307.655 147.564 312.087L147.505 312.095C146.915 308.104 144.845 300.486 143.13 293.896L137.255 294.722L144.592 317.957C144.711 318.42 144.77 318.711 144.769 319.19L144.757 333.692L150.038 332.949Z" fill="#4E4E4E"/>
<path d="M32.6744 178.465C33.9877 169.353 36.0164 156.365 36.8541 148.339L36.9727 148.322C37.7376 155.764 39.6846 168.312 40.8634 177.314L46.3821 176.538L52.3511 135.675L46.9511 136.434C45.9342 145.924 44.3198 160.052 43.8386 167.549L43.7199 167.566C43.0743 159.508 41.009 146.556 39.7709 137.443L34.4896 138.186C33.2949 147.401 31.1462 161.963 30.4274 169.673L30.3088 169.69C30.0182 162.721 28.4882 148.136 27.4281 139.178L21.7907 139.97L27.2151 179.232L32.6744 178.465ZM55.798 135.191L55.763 175.22L61.1037 174.469L61.1386 134.44L55.798 135.191ZM66.6576 173.689L81.4334 171.612L81.9716 166.743L72.0024 168.144L72.0332 132.909L66.6925 133.66L66.6576 173.689ZM84.4482 171.189L92.2811 170.088C101.479 168.795 102.493 162.062 102.499 155.949L102.512 140.369C102.518 133.418 100.92 128.849 92.4347 130.042L84.4831 131.16L84.4482 171.189ZM89.8197 135.023L91.956 134.723C96.4065 134.097 97.1164 136.574 97.1128 140.649L97.0981 157.547C97.094 162.161 96.261 164.915 91.9291 165.524L89.7929 165.824L89.8197 135.023ZM121.307 142.341L112.524 143.576L112.534 132.19L121.791 130.889L121.796 125.916L107.198 127.967L107.163 167.996L121.88 165.928L122.537 160.922L112.508 162.332L112.52 148.489L121.303 147.255L121.307 142.341ZM124.861 153.945L124.859 156.282C124.855 161.555 126.631 165.799 133.574 164.824C140.635 163.831 142.48 158.299 142.484 152.667C142.49 146.015 140.712 143.748 134.96 140.243C131.402 138.107 130.81 136.752 130.812 133.576C130.815 130.7 131.41 128.579 133.724 128.254C136.039 127.928 136.571 129.771 136.568 132.767L136.567 134.625L141.848 133.882L141.85 131.905C141.854 127.231 140.493 122.689 133.788 123.631C127.023 124.582 125.476 129.892 125.471 135.105C125.466 140.978 127.719 142.818 131.929 145.582C136.199 148.337 137.147 149.762 137.143 154.196C137.14 157.552 136.307 159.886 133.696 160.253C131.204 160.603 130.138 158.896 130.141 155.6L130.143 153.203L124.861 153.945ZM150.363 161.925L155.644 161.183L155.675 126.127L162.083 125.227L162.088 120.253L143.989 122.797L143.984 127.77L150.393 126.87L150.363 161.925ZM26.072 236.386L33.9049 235.285C43.1027 233.992 44.1173 227.259 44.1226 221.147L44.1362 205.567C44.1423 198.615 42.5442 194.047 34.0585 195.239L26.1069 196.357L26.072 236.386ZM31.4435 200.22L33.5798 199.92C38.0303 199.295 38.7402 201.771 38.7366 205.846L38.7219 222.745C38.7178 227.359 37.8848 230.112 33.5529 230.721L31.4166 231.021L31.4435 200.22ZM48.8462 233.185L54.1869 232.435L54.2028 214.218L56.0423 213.959C59.7215 213.442 60.4324 214.6 60.4281 219.574C60.4256 222.45 60.3011 229.119 60.833 231.5L65.9363 230.783C65.5231 228.385 65.5881 221.905 65.591 218.489C65.5958 213.096 64.3511 211.533 61.9191 210.796C63.7592 209.879 65.9565 207.713 65.9616 201.84L65.963 200.222C65.9691 193.271 62.7075 191.213 56.7141 192.055L48.8812 193.156L48.8462 233.185ZM54.2179 196.9L56.1761 196.625C59.8552 196.107 60.6843 197.968 60.6814 201.324L60.68 202.882C60.6762 207.196 59.5474 208.973 56.1056 209.457L54.2067 209.723L54.2179 196.9ZM84.7777 204.468L75.9953 205.703L76.0052 194.317L85.2623 193.016L85.2667 188.042L70.6689 190.094L70.634 230.123L85.3504 228.055L86.0075 223.049L75.9789 224.459L75.991 210.616L84.7734 209.382L84.7777 204.468ZM101.502 214.221L103.272 225.536L108.85 224.752L102.179 185.665L94.6429 186.725L88.1399 227.663L93.5399 226.904L95.1522 215.113L101.502 214.221ZM95.8686 210.04C96.7644 203.443 98.0775 194.51 98.2583 191.249L98.4364 191.224C98.8481 195.361 99.7917 201.879 100.853 209.339L95.8686 210.04ZM132.064 221.49L137.168 220.772L137.203 180.743L129.548 181.819C127.699 192.325 125.136 206.106 124.538 211.583L124.478 211.591C123.949 206.273 121.943 193.733 120.113 183.145L112.22 184.254L112.185 224.283L117.051 223.599L117.064 208.798C117.07 201.907 116.9 192.884 116.785 188.226L116.904 188.21C117.788 195.335 120.383 212.766 121.799 222.932L126.842 222.223C128.752 210.212 131.318 193.074 132.273 186.11L132.333 186.101C132.21 190.552 132.084 198.778 132.078 205.849L132.064 221.49ZM140.777 208.701L140.775 211.038C140.77 216.312 142.546 220.556 149.489 219.58C156.551 218.587 158.395 213.056 158.4 207.423C158.406 200.771 156.628 198.505 150.875 194.999C147.317 192.863 146.725 191.508 146.728 188.332C146.73 185.456 147.326 183.335 149.64 183.01C151.954 182.684 152.487 184.527 152.484 187.523L152.482 189.381L157.764 188.639L157.765 186.661C157.769 181.987 156.409 177.445 149.703 178.387C142.938 179.338 141.391 184.648 141.387 189.862C141.381 195.734 143.634 197.575 147.845 200.338C152.114 203.093 153.062 204.518 153.059 208.952C153.056 212.308 152.223 214.642 149.612 215.009C147.12 215.359 146.053 213.652 146.056 210.356L146.058 207.959L140.777 208.701Z" fill="#EFEEFF"/>
</svg>
