<svg width="357" height="882" viewBox="0 0 357 882" fill="none" xmlns="http://www.w3.org/2000/svg">
<path d="M2.302 881.25C2.302 881.526 2.07814 881.75 1.802 881.75C1.52586 881.75 1.302 881.526 1.302 881.25C1.302 880.974 1.52586 880.75 1.802 880.75C2.07814 880.75 2.302 880.974 2.302 881.25Z" fill="#6F6E7F"/>
<path d="M58.5801 200C58.5801 200.276 58.3562 200.5 58.0801 200.5C57.8039 200.5 57.5801 200.276 57.5801 200C57.5801 199.724 57.8039 199.5 58.0801 199.5C58.3562 199.5 58.5801 199.724 58.5801 200Z" fill="#EFEEFF"/>
<path d="M58.5801 177C58.5801 177.276 58.3562 177.5 58.0801 177.5C57.8039 177.5 57.5801 177.276 57.5801 177C57.5801 176.724 57.8039 176.5 58.0801 176.5C58.3562 176.5 58.5801 176.724 58.5801 177Z" fill="#EFEEFF"/>
<path d="M83.5801 178C83.5801 178.276 83.3562 178.5 83.0801 178.5C82.8039 178.5 82.5801 178.276 82.5801 178C82.5801 177.724 82.8039 177.5 83.0801 177.5C83.3562 177.5 83.5801 177.724 83.5801 178Z" fill="#EFEEFF"/>
<path d="M134.58 214C134.58 214.276 134.356 214.5 134.08 214.5C133.804 214.5 133.58 214.276 133.58 214C133.58 213.724 133.804 213.5 134.08 213.5C134.356 213.5 134.58 213.724 134.58 214Z" fill="#EFEEFF"/>
<path d="M51.5801 315C51.5801 315.276 51.3562 315.5 51.0801 315.5C50.8039 315.5 50.5801 315.276 50.5801 315C50.5801 314.724 50.8039 314.5 51.0801 314.5C51.3562 314.5 51.5801 314.724 51.5801 315Z" fill="#EFEEFF"/>
<path d="M31.5801 511C31.5801 511.276 31.3562 511.5 31.0801 511.5C30.8039 511.5 30.5801 511.276 30.5801 511C30.5801 510.724 30.8039 510.5 31.0801 510.5C31.3562 510.5 31.5801 510.724 31.5801 511Z" fill="#EFEEFF"/>
<path d="M110.58 546C110.58 546.276 110.356 546.5 110.08 546.5C109.804 546.5 109.58 546.276 109.58 546C109.58 545.724 109.804 545.5 110.08 545.5C110.356 545.5 110.58 545.724 110.58 546Z" fill="#EFEEFF"/>
<path d="M96.5801 503C96.5801 503.276 96.3562 503.5 96.0801 503.5C95.8039 503.5 95.5801 503.276 95.5801 503C95.5801 502.724 95.8039 502.5 96.0801 502.5C96.3562 502.5 96.5801 502.724 96.5801 503Z" fill="#EFEEFF"/>
<path d="M32.5801 561C32.5801 561.276 32.3562 561.5 32.0801 561.5C31.8039 561.5 31.5801 561.276 31.5801 561C31.5801 560.724 31.8039 560.5 32.0801 560.5C32.3562 560.5 32.5801 560.724 32.5801 561Z" fill="#EFEEFF"/>
<path d="M82.5801 625C82.5801 625.276 82.3562 625.5 82.0801 625.5C81.8039 625.5 81.5801 625.276 81.5801 625C81.5801 624.724 81.8039 624.5 82.0801 624.5C82.3562 624.5 82.5801 624.724 82.5801 625Z" fill="#EFEEFF"/>
<path d="M153.58 648C153.58 648.276 153.356 648.5 153.08 648.5C152.804 648.5 152.58 648.276 152.58 648C152.58 647.724 152.804 647.5 153.08 647.5C153.356 647.5 153.58 647.724 153.58 648Z" fill="#EFEEFF"/>
<path d="M89.5801 826C89.5801 826.276 89.3562 826.5 89.0801 826.5C88.8039 826.5 88.5801 826.276 88.5801 826C88.5801 825.724 88.8039 825.5 89.0801 825.5C89.3562 825.5 89.5801 825.724 89.5801 826Z" fill="#EFEEFF"/>
<path d="M1.58008 881C1.58008 881.276 1.35622 881.5 1.08008 881.5C0.803936 881.5 0.580078 881.276 0.580078 881C0.580078 880.724 0.803936 880.5 1.08008 880.5C1.35622 880.5 1.58008 880.724 1.58008 881Z" fill="#EFEEFF"/>
<path d="M232.58 654C232.58 654.276 232.356 654.5 232.08 654.5C231.804 654.5 231.58 654.276 231.58 654C231.58 653.724 231.804 653.5 232.08 653.5C232.356 653.5 232.58 653.724 232.58 654Z" fill="#EFEEFF"/>
<path d="M304.58 770C304.58 770.276 304.356 770.5 304.08 770.5C303.804 770.5 303.58 770.276 303.58 770C303.58 769.724 303.804 769.5 304.08 769.5C304.356 769.5 304.58 769.724 304.58 770Z" fill="#EFEEFF"/>
<path d="M124.58 742C124.58 742.276 124.356 742.5 124.08 742.5C123.804 742.5 123.58 742.276 123.58 742C123.58 741.724 123.804 741.5 124.08 741.5C124.356 741.5 124.58 741.724 124.58 742Z" fill="#EFEEFF"/>
<path d="M82.5801 761C82.5801 761.276 82.3562 761.5 82.0801 761.5C81.8039 761.5 81.5801 761.276 81.5801 761C81.5801 760.724 81.8039 760.5 82.0801 760.5C82.3562 760.5 82.5801 760.724 82.5801 761Z" fill="#EFEEFF"/>
<path d="M76.5801 741C76.5801 741.276 76.3562 741.5 76.0801 741.5C75.8039 741.5 75.5801 741.276 75.5801 741C75.5801 740.724 75.8039 740.5 76.0801 740.5C76.3562 740.5 76.5801 740.724 76.5801 741Z" fill="#EFEEFF"/>
<path d="M26.5801 741C26.5801 741.276 26.3562 741.5 26.0801 741.5C25.8039 741.5 25.5801 741.276 25.5801 741C25.5801 740.724 25.8039 740.5 26.0801 740.5C26.3562 740.5 26.5801 740.724 26.5801 741Z" fill="#EFEEFF"/>
<path d="M26.5801 709C26.5801 709.276 26.3562 709.5 26.0801 709.5C25.8039 709.5 25.5801 709.276 25.5801 709C25.5801 708.724 25.8039 708.5 26.0801 708.5C26.3562 708.5 26.5801 708.724 26.5801 709Z" fill="#EFEEFF"/>
<path d="M111.58 854C111.58 854.276 111.356 854.5 111.08 854.5C110.804 854.5 110.58 854.276 110.58 854C110.58 853.724 110.804 853.5 111.08 853.5C111.356 853.5 111.58 853.724 111.58 854Z" fill="#EFEEFF"/>
<path d="M247.58 853C247.58 853.276 247.356 853.5 247.08 853.5C246.804 853.5 246.58 853.276 246.58 853C246.58 852.724 246.804 852.5 247.08 852.5C247.356 852.5 247.58 852.724 247.58 853Z" fill="#EFEEFF"/>
<path d="M271.58 108C271.58 108.276 271.356 108.5 271.08 108.5C270.804 108.5 270.58 108.276 270.58 108C270.58 107.724 270.804 107.5 271.08 107.5C271.356 107.5 271.58 107.724 271.58 108Z" fill="#EFEEFF"/>
<path d="M293.58 298C293.58 298.276 293.356 298.5 293.08 298.5C292.804 298.5 292.58 298.276 292.58 298C292.58 297.724 292.804 297.5 293.08 297.5C293.356 297.5 293.58 297.724 293.58 298Z" fill="#EFEEFF"/>
<path d="M204.58 298C204.58 298.276 204.356 298.5 204.08 298.5C203.804 298.5 203.58 298.276 203.58 298C203.58 297.724 203.804 297.5 204.08 297.5C204.356 297.5 204.58 297.724 204.58 298Z" fill="#EFEEFF"/>
<path d="M171.58 326C171.58 326.276 171.356 326.5 171.08 326.5C170.804 326.5 170.58 326.276 170.58 326C170.58 325.724 170.804 325.5 171.08 325.5C171.356 325.5 171.58 325.724 171.58 326Z" fill="#EFEEFF"/>
<path d="M3.58008 439C3.58008 439.276 3.35622 439.5 3.08008 439.5C2.80394 439.5 2.58008 439.276 2.58008 439C2.58008 438.724 2.80394 438.5 3.08008 438.5C3.35622 438.5 3.58008 438.724 3.58008 439Z" fill="#EFEEFF"/>
<path d="M10.5801 431C10.5801 431.276 10.3562 431.5 10.0801 431.5C9.80394 431.5 9.58008 431.276 9.58008 431C9.58008 430.724 9.80394 430.5 10.0801 430.5C10.3562 430.5 10.5801 430.724 10.5801 431Z" fill="#EFEEFF"/>
<path d="M51.5801 375C51.5801 375.276 51.3562 375.5 51.0801 375.5C50.8039 375.5 50.5801 375.276 50.5801 375C50.5801 374.724 50.8039 374.5 51.0801 374.5C51.3562 374.5 51.5801 374.724 51.5801 375Z" fill="#EFEEFF"/>
<path d="M343.58 342C343.58 342.276 343.356 342.5 343.08 342.5C342.804 342.5 342.58 342.276 342.58 342C342.58 341.724 342.804 341.5 343.08 341.5C343.356 341.5 343.58 341.724 343.58 342Z" fill="#EFEEFF"/>
<path d="M305.58 219C305.58 219.276 305.356 219.5 305.08 219.5C304.804 219.5 304.58 219.276 304.58 219C304.58 218.724 304.804 218.5 305.08 218.5C305.356 218.5 305.58 218.724 305.58 219Z" fill="#EFEEFF"/>
<path d="M219.58 155C219.58 155.276 219.356 155.5 219.08 155.5C218.804 155.5 218.58 155.276 218.58 155C218.58 154.724 218.804 154.5 219.08 154.5C219.356 154.5 219.58 154.724 219.58 155Z" fill="#EFEEFF"/>
<path d="M50.5801 61C50.5801 61.2761 50.3562 61.5 50.0801 61.5C49.8039 61.5 49.5801 61.2761 49.5801 61C49.5801 60.7239 49.8039 60.5 50.0801 60.5C50.3562 60.5 50.5801 60.7239 50.5801 61Z" fill="#EFEEFF"/>
<path d="M22.5801 80C22.5801 80.2761 22.3562 80.5 22.0801 80.5C21.8039 80.5 21.5801 80.2761 21.5801 80C21.5801 79.7239 21.8039 79.5 22.0801 79.5C22.3562 79.5 22.5801 79.7239 22.5801 80Z" fill="#EFEEFF"/>
<path d="M35.5801 132C35.5801 132.276 35.3562 132.5 35.0801 132.5C34.8039 132.5 34.5801 132.276 34.5801 132C34.5801 131.724 34.8039 131.5 35.0801 131.5C35.3562 131.5 35.5801 131.724 35.5801 132Z" fill="#EFEEFF"/>
<path d="M131.58 53C131.58 53.2761 131.356 53.5 131.08 53.5C130.804 53.5 130.58 53.2761 130.58 53C130.58 52.7239 130.804 52.5 131.08 52.5C131.356 52.5 131.58 52.7239 131.58 53Z" fill="#EFEEFF"/>
<path d="M303.58 6C303.58 6.27614 303.356 6.5 303.08 6.5C302.804 6.5 302.58 6.27614 302.58 6C302.58 5.72386 302.804 5.5 303.08 5.5C303.356 5.5 303.58 5.72386 303.58 6Z" fill="#EFEEFF"/>
<path d="M288.58 52C288.58 52.2761 288.356 52.5 288.08 52.5C287.804 52.5 287.58 52.2761 287.58 52C287.58 51.7239 287.804 51.5 288.08 51.5C288.356 51.5 288.58 51.7239 288.58 52Z" fill="#EFEEFF"/>
<path d="M315.58 52C315.58 52.2761 315.356 52.5 315.08 52.5C314.804 52.5 314.58 52.2761 314.58 52C314.58 51.7239 314.804 51.5 315.08 51.5C315.356 51.5 315.58 51.7239 315.58 52Z" fill="#EFEEFF"/>
<path d="M308.08 120.75C308.08 121.026 307.856 121.25 307.58 121.25C307.304 121.25 307.08 121.026 307.08 120.75C307.08 120.474 307.304 120.25 307.58 120.25C307.856 120.25 308.08 120.474 308.08 120.75Z" fill="#EFEEFF"/>
<path d="M355.58 12C355.58 12.2761 355.356 12.5 355.08 12.5C354.804 12.5 354.58 12.2761 354.58 12C354.58 11.7239 354.804 11.5 355.08 11.5C355.356 11.5 355.58 11.7239 355.58 12Z" fill="#EFEEFF"/>
<path d="M236.08 141C236.08 141.276 235.856 141.5 235.58 141.5C235.304 141.5 235.08 141.276 235.08 141C235.08 140.724 235.304 140.5 235.58 140.5C235.856 140.5 236.08 140.724 236.08 141Z" fill="#EFEEFF"/>
<path d="M175.58 33C175.58 33.2761 175.356 33.5 175.08 33.5C174.804 33.5 174.58 33.2761 174.58 33C174.58 32.7239 174.804 32.5 175.08 32.5C175.356 32.5 175.58 32.7239 175.58 33Z" fill="#EFEEFF"/>
<path d="M225.58 7C225.58 7.27614 225.356 7.5 225.08 7.5C224.804 7.5 224.58 7.27614 224.58 7C224.58 6.72386 224.804 6.5 225.08 6.5C225.356 6.5 225.58 6.72386 225.58 7Z" fill="#EFEEFF"/>
<path d="M122.58 12C122.58 12.2761 122.356 12.5 122.08 12.5C121.804 12.5 121.58 12.2761 121.58 12C121.58 11.7239 121.804 11.5 122.08 11.5C122.356 11.5 122.58 11.7239 122.58 12Z" fill="#EFEEFF"/>
<path d="M12.5801 5C12.5801 5.27614 12.3562 5.5 12.0801 5.5C11.8039 5.5 11.5801 5.27614 11.5801 5C11.5801 4.72386 11.8039 4.5 12.0801 4.5C12.3562 4.5 12.5801 4.72386 12.5801 5Z" fill="#EFEEFF"/>
<path d="M53.5801 142C53.5801 142.276 53.3562 142.5 53.0801 142.5C52.8039 142.5 52.5801 142.276 52.5801 142C52.5801 141.724 52.8039 141.5 53.0801 141.5C53.3562 141.5 53.5801 141.724 53.5801 142Z" fill="#EFEEFF"/>
<path d="M134.58 171C134.58 171.276 134.356 171.5 134.08 171.5C133.804 171.5 133.58 171.276 133.58 171C133.58 170.724 133.804 170.5 134.08 170.5C134.356 170.5 134.58 170.724 134.58 171Z" fill="#EFEEFF"/>
<path d="M71.8721 215C71.8721 215.276 71.6482 215.5 71.3721 215.5C71.0959 215.5 70.8721 215.276 70.8721 215C70.8721 214.724 71.0959 214.5 71.3721 214.5C71.6482 214.5 71.8721 214.724 71.8721 215Z" fill="#EFEEFF"/>
<path d="M345.58 132C345.58 132.276 345.356 132.5 345.08 132.5C344.804 132.5 344.58 132.276 344.58 132C344.58 131.724 344.804 131.5 345.08 131.5C345.356 131.5 345.58 131.724 345.58 132Z" fill="#EFEEFF"/>
<path d="M310.58 262C310.58 262.276 310.356 262.5 310.08 262.5C309.804 262.5 309.58 262.276 309.58 262C309.58 261.724 309.804 261.5 310.08 261.5C310.356 261.5 310.58 261.724 310.58 262Z" fill="#EFEEFF"/>
<path d="M22.5801 250C22.5801 250.276 22.3562 250.5 22.0801 250.5C21.8039 250.5 21.5801 250.276 21.5801 250C21.5801 249.724 21.8039 249.5 22.0801 249.5C22.3562 249.5 22.5801 249.724 22.5801 250Z" fill="#EFEEFF"/>
<path d="M83.5801 355C83.5801 355.276 83.3562 355.5 83.0801 355.5C82.8039 355.5 82.5801 355.276 82.5801 355C82.5801 354.724 82.8039 354.5 83.0801 354.5C83.3562 354.5 83.5801 354.724 83.5801 355Z" fill="#EFEEFF"/>
<path d="M183.58 471C183.58 471.276 183.356 471.5 183.08 471.5C182.804 471.5 182.58 471.276 182.58 471C182.58 470.724 182.804 470.5 183.08 470.5C183.356 470.5 183.58 470.724 183.58 471Z" fill="#EFEEFF"/>
<path d="M223.58 501.5C223.58 502.605 222.685 503.5 221.58 503.5C220.476 503.5 219.58 502.605 219.58 501.5C219.58 500.395 220.476 499.5 221.58 499.5C222.685 499.5 223.58 500.395 223.58 501.5Z" fill="#EFEEFF"/>
<path d="M170.58 548.5C170.58 549.605 169.685 550.5 168.58 550.5C167.476 550.5 166.58 549.605 166.58 548.5C166.58 547.395 167.476 546.5 168.58 546.5C169.685 546.5 170.58 547.395 170.58 548.5Z" fill="#EFEEFF"/>
<path d="M68.5801 686.5C68.5801 687.605 67.6846 688.5 66.5801 688.5C65.4755 688.5 64.5801 687.605 64.5801 686.5C64.5801 685.395 65.4755 684.5 66.5801 684.5C67.6846 684.5 68.5801 685.395 68.5801 686.5Z" fill="#EFEEFF"/>
<path d="M125.58 831.5C125.58 832.605 124.685 833.5 123.58 833.5C122.476 833.5 121.58 832.605 121.58 831.5C121.58 830.395 122.476 829.5 123.58 829.5C124.685 829.5 125.58 830.395 125.58 831.5Z" fill="#EFEEFF"/>
<path d="M356.58 670.5C356.58 671.605 355.685 672.5 354.58 672.5C353.475 672.5 352.58 671.605 352.58 670.5C352.58 669.395 353.475 668.5 354.58 668.5C355.685 668.5 356.58 669.395 356.58 670.5Z" fill="#EFEEFF"/>
<path d="M280.58 819.5C280.58 820.605 279.685 821.5 278.58 821.5C277.475 821.5 276.58 820.605 276.58 819.5C276.58 818.395 277.475 817.5 278.58 817.5C279.685 817.5 280.58 818.395 280.58 819.5Z" fill="#EFEEFF"/>
<path d="M58.0801 456.5C58.0801 457.605 57.1846 458.5 56.0801 458.5C54.9755 458.5 54.0801 457.605 54.0801 456.5C54.0801 455.395 54.9755 454.5 56.0801 454.5C57.1846 454.5 58.0801 455.395 58.0801 456.5Z" fill="#EFEEFF"/>
<path d="M109.58 231.5C109.58 232.605 108.685 233.5 107.58 233.5C106.476 233.5 105.58 232.605 105.58 231.5C105.58 230.395 106.476 229.5 107.58 229.5C108.685 229.5 109.58 230.395 109.58 231.5Z" fill="#EFEEFF"/>
<path d="M142.58 323.5C142.58 324.605 141.685 325.5 140.58 325.5C139.476 325.5 138.58 324.605 138.58 323.5C138.58 322.395 139.476 321.5 140.58 321.5C141.685 321.5 142.58 322.395 142.58 323.5Z" fill="#EFEEFF"/>
<path d="M30.5801 316.5C30.5801 317.605 29.6846 318.5 28.5801 318.5C27.4755 318.5 26.5801 317.605 26.5801 316.5C26.5801 315.395 27.4755 314.5 28.5801 314.5C29.6846 314.5 30.5801 315.395 30.5801 316.5Z" fill="#EFEEFF"/>
<path d="M309.58 178C309.58 179.105 308.685 180 307.58 180C306.475 180 305.58 179.105 305.58 178C305.58 176.895 306.475 176 307.58 176C308.685 176 309.58 176.895 309.58 178Z" fill="#EFEEFF"/>
<path d="M100.58 2.5C100.58 3.60457 99.6846 4.5 98.5801 4.5C97.4755 4.5 96.5801 3.60457 96.5801 2.5C96.5801 1.39543 97.4755 0.5 98.5801 0.5C99.6846 0.5 100.58 1.39543 100.58 2.5Z" fill="#EFEEFF"/>
<path d="M303.58 383C303.58 383.276 303.356 383.5 303.08 383.5C302.804 383.5 302.58 383.276 302.58 383C302.58 382.724 302.804 382.5 303.08 382.5C303.356 382.5 303.58 382.724 303.58 383Z" fill="#EFEEFF"/>
<path d="M170.58 368C170.58 368.276 170.356 368.5 170.08 368.5C169.804 368.5 169.58 368.276 169.58 368C169.58 367.724 169.804 367.5 170.08 367.5C170.356 367.5 170.58 367.724 170.58 368Z" fill="#EFEEFF"/>
<path d="M36.5801 613C36.5801 613.276 36.3562 613.5 36.0801 613.5C35.8039 613.5 35.5801 613.276 35.5801 613C35.5801 612.724 35.8039 612.5 36.0801 612.5C36.3562 612.5 36.5801 612.724 36.5801 613Z" fill="#EFEEFF"/>
<path d="M313.58 614C313.58 614.276 313.356 614.5 313.08 614.5C312.804 614.5 312.58 614.276 312.58 614C312.58 613.724 312.804 613.5 313.08 613.5C313.356 613.5 313.58 613.724 313.58 614Z" fill="#EFEEFF"/>
<path d="M331.58 562C331.58 562.276 331.356 562.5 331.08 562.5C330.804 562.5 330.58 562.276 330.58 562C330.58 561.724 330.804 561.5 331.08 561.5C331.356 561.5 331.58 561.724 331.58 562Z" fill="#EFEEFF"/>
<path d="M293.58 499C293.58 499.276 293.356 499.5 293.08 499.5C292.804 499.5 292.58 499.276 292.58 499C292.58 498.724 292.804 498.5 293.08 498.5C293.356 498.5 293.58 498.724 293.58 499Z" fill="#EFEEFF"/>
<path d="M334.58 444C334.58 444.276 334.356 444.5 334.08 444.5C333.804 444.5 333.58 444.276 333.58 444C333.58 443.724 333.804 443.5 334.08 443.5C334.356 443.5 334.58 443.724 334.58 444Z" fill="#EFEEFF"/>
<path d="M279.58 447C279.58 447.276 279.356 447.5 279.08 447.5C278.804 447.5 278.58 447.276 278.58 447C278.58 446.724 278.804 446.5 279.08 446.5C279.356 446.5 279.58 446.724 279.58 447Z" fill="#EFEEFF"/>
<path d="M281.58 417C281.58 417.276 281.356 417.5 281.08 417.5C280.804 417.5 280.58 417.276 280.58 417C280.58 416.724 280.804 416.5 281.08 416.5C281.356 416.5 281.58 416.724 281.58 417Z" fill="#EFEEFF"/>
<path d="M263.58 367C263.58 367.276 263.356 367.5 263.08 367.5C262.804 367.5 262.58 367.276 262.58 367C262.58 366.724 262.804 366.5 263.08 366.5C263.356 366.5 263.58 366.724 263.58 367Z" fill="#EFEEFF"/>
<path d="M254.58 416C254.58 416.276 254.356 416.5 254.08 416.5C253.804 416.5 253.58 416.276 253.58 416C253.58 415.724 253.804 415.5 254.08 415.5C254.356 415.5 254.58 415.724 254.58 416Z" fill="#EFEEFF"/>
</svg>
